<svg width="45" height="45" viewBox="0 0 45 45" fill="none" xmlns="http://www.w3.org/2000/svg">
<path d="M32.0054 35.1617C27.0046 40.3134 12.6861 35.2225 7.53436 30.2217C2.38266 25.2209 7.88484 14.7853 12.8857 9.63364C17.8865 4.48194 26.1167 4.35962 31.2684 9.36044C36.4201 14.3613 37.0063 30.01 32.0054 35.1617Z" fill="#674002"/>
<path d="M29.6948 29.4255C19.6948 25.9254 16.6853 18.1542 8.02102 22.9654C4.35796 19.4096 7.52033 14.9789 12.5211 9.82726C17.5219 4.6756 26.532 4.41657 30.1951 7.97234C35.1952 11.4723 39.6948 32.9255 29.6948 29.4255Z" fill="#442B02"/>
<circle cx="18" cy="10" r="1" fill="#D9D9D9"/>
<circle cx="28" cy="17" r="1" fill="#D9D9D9"/>
<circle cx="15" cy="17" r="1" fill="#D9D9D9"/>
<circle cx="24.5" cy="9.5" r="0.5" fill="#D9D9D9"/>
<circle cx="29.5" cy="25.5" r="0.5" fill="#D9D9D9"/>
<circle cx="21.5" cy="15.5" r="0.5" fill="#D9D9D9"/>
<circle cx="12.5" cy="13.5" r="0.5" fill="#D9D9D9"/>
<circle cx="32" cy="15" r="1" fill="#D9D9D9"/>
<circle cx="23" cy="22" r="1" fill="#D9D9D9"/>
</svg>
