<svg width="451" height="699" viewBox="0 0 451 699" fill="none" xmlns="http://www.w3.org/2000/svg">
<path fill-rule="evenodd" clip-rule="evenodd" d="M312.187 556.533C300.372 549.764 284.373 544.01 264.189 539.272C205.483 512.75 153.885 499.427 109.395 499.304C87.2416 499.243 70.9037 501.827 60.381 507.058C44.2585 511.55 32.0435 525.734 23.7361 549.61C19.6132 561.548 17.121 573.025 16.2595 584.04L11.4597 592.901C7.95211 600.162 5.21373 607.147 3.24456 613.854C-3.03214 635.453 -0.201512 650.407 11.7365 658.714C14.6287 662.529 18.7517 665.391 24.1053 667.298C34.9357 671.175 46.6891 668.406 59.3656 658.991C68.2883 652.345 78.0112 652.53 88.5339 659.545C91.8568 661.822 95.0259 664.591 98.0411 667.852L101.641 672.19C138.132 696.436 166.531 703.851 186.838 694.436C193.176 691.482 198.345 687.021 202.345 681.052L206.314 673.021L214.899 621.515C223.821 633.023 241.236 642.592 267.143 650.222C275.204 652.56 283.665 654.591 292.527 656.314L303.326 658.252C319.141 659.606 334.802 658.56 350.309 655.114L368.77 649.576C384.277 642.93 374.77 631.515 340.248 615.331C322.895 607.208 304.034 599.732 283.665 592.901C326.125 582.255 335.633 570.133 312.187 556.533Z" fill="black" fill-opacity="0.176471"/>
<path fill-rule="evenodd" clip-rule="evenodd" d="M82.5343 132.302C82.7189 139.317 83.2419 145.009 84.1034 149.378C89.1494 183.962 106.133 211.099 135.055 230.791C144.04 236.883 153.732 241.898 164.131 245.836L176.869 249.805C183.269 249.805 185.392 253.159 183.238 259.867C182.131 263.19 180.377 266.482 177.977 269.743C154.962 270.728 132.625 275.312 110.964 283.497C100.072 287.558 91.5186 291.527 85.3034 295.404C55.3968 314.911 33.5514 335.556 19.7673 357.34C12.8137 368.294 8.9061 377.278 8.04459 384.293C8.47534 399.862 15.3982 412.907 28.8131 423.43C32.9975 426.691 37.6128 429.522 42.6587 431.922L48.8432 434.507C65.8272 438.937 79.5805 436.753 90.1032 427.953C93.3647 425.184 96.103 421.984 98.3183 418.353L100.718 413.553C102.072 410.107 104.503 405.554 108.01 399.892L112.902 392.416C121.148 383.678 131.333 378.139 143.455 375.801L154.716 374.693L159.239 374.878C159.239 388.108 155.547 426.322 148.163 489.52C140.778 522.134 133.979 559.179 127.763 600.655C124.625 621.454 122.225 638.93 120.564 653.083C120.564 667.729 125.148 678.344 134.317 684.928C137.271 687.021 140.44 688.59 143.824 689.636L148.163 690.467L179.085 691.667C199.822 694.559 214.683 691.328 223.668 681.975C226.498 679.082 228.56 675.76 229.852 672.006L230.96 667.114C237.421 644.222 242.682 613.793 246.744 575.825L250.805 525.703C251.728 516.965 253.297 510.842 255.513 507.335L258.559 504.658C264.528 502.258 269.205 506.596 272.589 517.673C274.25 523.211 275.297 529.026 275.727 535.118C277.081 544.287 277.758 554.072 277.758 564.471C277.758 569.64 277.604 573.855 277.297 577.117C274.589 599.024 273.42 614.377 273.789 623.177C273.912 627.546 274.374 629.73 275.174 629.73C277.45 642.407 290.281 649.33 313.664 650.499L337.479 649.76L348.002 648.376C364.124 649.422 374.647 631.023 379.57 593.178C381.108 581.424 382.001 568.379 382.247 554.041L382.154 536.226C383.57 495.304 378.308 448.937 366.37 397.123C362.617 380.939 358.432 365.155 353.817 349.771L348.002 331.679C382.954 306.388 410 274.851 429.137 237.067C435.106 225.252 439.937 213.499 443.629 201.807L447.321 187.869C454.275 167.439 447.69 150.978 427.568 138.486C417.538 132.333 406.83 128.179 395.446 126.025C372.001 126.025 356.309 133.994 348.371 149.932C344.371 157.932 342.771 165.932 343.571 173.931C344.002 185.623 341.54 196.33 336.187 206.053C333.541 210.853 330.833 214.545 328.064 217.13C324.372 221.991 318.126 227.56 309.326 233.837C304.896 236.914 300.834 239.529 297.142 241.683L288.373 234.668C284.681 230.791 285.604 225.745 291.142 219.53L300.557 211.315C325.418 186.946 336.525 156.64 333.879 120.395C333.079 109.072 330.956 97.8416 327.51 86.7036L322.526 73.3194C303.203 33.8747 273.143 10.5832 232.344 3.44497C211.914 -0.12413 193.423 0.214325 176.869 4.46033C129.056 21.0136 99.2721 50.151 87.5187 91.8726C83.8265 104.857 82.1651 118.333 82.5343 132.302Z" fill="#D07423"/>
<path d="M82.5343 132.302C82.1651 118.333 83.8265 104.857 87.5187 91.8726C99.2721 50.151 129.056 21.0136 176.869 4.46033C193.423 0.214325 211.914 -0.12413 232.344 3.44497C273.143 10.5832 303.203 33.8747 322.526 73.3194L327.51 86.7036C330.956 97.8416 333.079 109.072 333.879 120.395C336.525 156.64 325.418 186.946 300.557 211.315L291.142 219.53C285.604 225.745 284.681 230.791 288.373 234.668L297.142 241.683C300.834 239.529 304.896 236.914 309.326 233.837C318.126 227.56 324.372 221.991 328.064 217.13C330.833 214.545 333.541 210.853 336.187 206.053C341.54 196.33 344.002 185.623 343.571 173.931C342.771 165.932 344.371 157.932 348.371 149.932C356.309 133.994 372.001 126.025 395.446 126.025C406.83 128.179 417.538 132.333 427.568 138.486C447.69 150.978 454.275 167.439 447.321 187.869L443.629 201.807C439.937 213.499 435.106 225.252 429.137 237.067C410 274.851 382.954 306.388 348.002 331.679L353.817 349.771C358.432 365.155 362.617 380.939 366.37 397.123C378.308 448.937 383.57 495.304 382.154 536.226L382.247 554.041C382.001 568.379 381.108 581.424 379.57 593.178C374.647 631.023 364.124 649.422 348.002 648.376L337.479 649.76L313.664 650.499C290.281 649.33 277.45 642.407 275.174 629.73C274.374 629.73 273.912 627.546 273.789 623.177C273.42 614.377 274.589 599.024 277.297 577.117C277.604 573.855 277.758 569.64 277.758 564.471C277.758 554.072 277.081 544.287 275.727 535.118C275.297 529.026 274.25 523.211 272.589 517.673C269.205 506.596 264.528 502.258 258.559 504.658L255.513 507.335C253.297 510.842 251.728 516.965 250.805 525.703L246.744 575.825C242.682 613.793 237.421 644.222 230.96 667.114L229.852 672.006C228.56 675.76 226.498 679.082 223.668 681.975C214.683 691.328 199.822 694.559 179.085 691.667L148.163 690.467L143.824 689.636C140.44 688.59 137.271 687.021 134.317 684.928C125.148 678.344 120.564 667.729 120.564 653.083C122.225 638.93 124.625 621.454 127.763 600.655C133.979 559.179 140.778 522.134 148.163 489.52C155.547 426.322 159.239 388.108 159.239 374.878L154.716 374.693L143.455 375.801C131.333 378.139 121.148 383.678 112.902 392.416L108.01 399.892C104.503 405.554 102.072 410.107 100.718 413.553L98.3183 418.353C96.103 421.984 93.3647 425.184 90.1032 427.953C79.5805 436.753 65.8272 438.937 48.8432 434.507L42.6587 431.922C37.6128 429.522 32.9975 426.691 28.8131 423.43C15.3982 412.907 8.47534 399.862 8.04459 384.293C8.9061 377.278 12.8137 368.294 19.7673 357.34C33.5514 335.556 55.3968 314.911 85.3034 295.404C91.5186 291.527 100.072 287.558 110.964 283.497C132.625 275.312 154.962 270.728 177.977 269.743C180.377 266.482 182.131 263.19 183.238 259.867C185.392 253.159 183.269 249.805 176.869 249.805L164.131 245.836C153.732 241.898 144.04 236.883 135.055 230.791C106.133 211.099 89.1494 183.962 84.1034 149.378C83.2419 145.009 82.7189 139.317 82.5343 132.302Z" stroke="#E7ABFF" stroke-width="2"/>
<path d="M270.471 101.538L270.471 101.537C267.054 97.8813 262.939 96.0654 258.098 96.0654C253.194 96.0654 249.016 97.8826 245.539 101.539C242.059 105.26 240.321 109.691 240.321 114.857C240.321 120.087 242.06 124.516 245.538 128.174L245.541 128.177C248.954 131.83 253.13 133.649 258.098 133.649C262.939 133.649 267.054 131.833 270.471 128.177L270.474 128.174C273.951 124.516 275.689 120.087 275.689 114.857C275.689 109.69 273.952 105.259 270.471 101.538Z" fill="#CCCCCC" stroke="#7C7777"/>
<path fill-rule="evenodd" clip-rule="evenodd" d="M253.575 271.497C246.56 271.497 240.591 274.143 235.668 279.435C230.683 284.604 228.191 290.912 228.191 298.358C228.191 305.742 230.683 312.08 235.668 317.372C240.591 322.664 246.56 325.311 253.575 325.311C260.59 325.311 266.559 322.664 271.482 317.372C276.466 312.08 278.958 305.742 278.958 298.358C278.958 290.912 276.466 284.604 271.482 279.435C266.559 274.143 260.59 271.497 253.575 271.497Z" fill="black" fill-opacity="0.168627"/>
<path d="M249.236 268.49C242.363 268.49 236.493 271.045 231.6 276.179C226.769 281.313 224.353 287.527 224.353 294.85C224.353 302.173 226.768 308.418 231.601 313.614C236.494 318.748 242.364 321.303 249.236 321.303C256.046 321.303 261.886 318.749 266.779 313.615C271.612 308.418 274.028 302.173 274.028 294.85C274.028 287.527 271.612 281.313 266.78 276.179C261.886 271.044 256.047 268.49 249.236 268.49Z" fill="#665C91" stroke="#4DA1F0"/>
<path fill-rule="evenodd" clip-rule="evenodd" d="M247.76 351.801C242.776 357.094 240.283 363.432 240.283 370.816C240.283 378.262 242.776 384.631 247.76 389.923C252.744 395.092 258.713 397.677 265.667 397.677C272.744 397.677 278.774 395.092 283.759 389.923C288.682 384.631 291.143 378.262 291.143 370.816C291.143 363.432 288.682 357.094 283.759 351.801C278.774 346.571 272.744 343.956 265.667 343.956C258.713 343.956 252.744 346.571 247.76 351.801Z" fill="black" fill-opacity="0.168627"/>
<path fill-rule="evenodd" clip-rule="evenodd" d="M253.667 280.543C250.713 277.405 247.144 275.835 242.959 275.835C238.836 275.835 235.298 277.405 232.344 280.543C229.39 283.681 227.914 287.435 227.914 291.804C227.914 296.173 229.39 299.927 232.344 303.065C235.298 306.204 238.836 307.773 242.959 307.773C247.144 307.773 250.713 306.204 253.667 303.065C256.62 299.927 258.097 296.173 258.097 291.804C258.097 287.435 256.62 283.681 253.667 280.543Z" fill="white" fill-opacity="0.34902"/>
<path d="M242.123 349.283L242.121 349.285C237.228 354.42 234.782 360.633 234.782 367.955C234.782 375.214 237.227 381.397 242.121 386.532C247.015 391.668 252.855 394.223 259.666 394.223C266.539 394.223 272.409 391.668 277.302 386.534C282.135 381.399 284.55 375.215 284.55 367.955C284.55 360.631 282.133 354.417 277.301 349.283C272.408 344.087 266.538 341.502 259.666 341.502C252.857 341.502 247.018 344.086 242.123 349.283Z" fill="#665C91" stroke="#4DA1F0"/>
<path d="M182.23 135.508L182.23 135.508L182.227 135.505C178.747 131.785 174.601 129.94 169.762 129.94C164.86 129.94 160.683 131.787 157.204 135.505L157.204 135.505L157.202 135.508C153.724 139.165 151.986 143.594 151.986 148.824C151.986 153.991 153.723 158.422 157.203 162.143C160.68 165.799 164.858 167.616 169.762 167.616C174.603 167.616 178.75 165.8 182.228 162.143C185.709 158.422 187.446 153.991 187.446 148.824C187.446 143.594 185.707 139.165 182.23 135.508Z" fill="#CCCCCC" stroke="#7C7777"/>
<path fill-rule="evenodd" clip-rule="evenodd" d="M230.683 456.105L240.652 459.521C249.451 464.69 259.789 466.29 271.666 464.32C275.42 463.705 279.081 462.782 282.65 461.551L286.989 459.798C295.665 457.705 303.603 456.967 310.803 457.582L319.018 459.151C328.31 463.828 336.925 463.582 344.863 458.413C347.448 456.751 349.756 454.69 351.786 452.229L354.094 449.09C356.309 438.875 353.632 433.368 346.063 432.568C342.248 432.075 338.217 432.66 333.971 434.322L317.634 433.398C315.049 432.722 313.141 432.014 311.911 431.275C303.542 428.506 294.619 428.383 285.142 430.906C280.404 432.198 276.466 433.737 273.327 435.521C267.42 439.521 261.02 440.629 254.128 438.844C250.682 437.921 247.851 436.598 245.636 434.875C237.759 428.229 228.683 425.891 218.406 427.86C213.299 428.783 208.961 430.414 205.391 432.752C201.699 433.737 197.915 433.398 194.038 431.737C192.069 430.937 190.469 429.983 189.238 428.876C186.961 427.522 184.346 426.66 181.392 426.291L177.608 426.199C172.439 429.952 170.47 434.906 171.7 441.06C172.377 444.075 173.577 446.721 175.3 448.998C180.962 456.69 188.192 460.69 196.992 460.997L205.207 459.982L208.53 458.967C215.36 455.398 222.745 454.444 230.683 456.105Z" fill="white"/>
<path d="M230.683 456.105C222.745 454.444 215.36 455.398 208.53 458.967L205.207 459.982L196.992 460.997C188.192 460.69 180.962 456.69 175.3 448.998C173.577 446.721 172.377 444.075 171.7 441.06C170.47 434.906 172.439 429.952 177.608 426.199L181.392 426.291C184.346 426.66 186.961 427.522 189.238 428.876C190.469 429.983 192.069 430.937 194.038 431.737C197.915 433.398 201.699 433.737 205.391 432.752C208.961 430.414 213.299 428.783 218.406 427.86C228.683 425.891 237.759 428.229 245.636 434.875C247.851 436.598 250.682 437.921 254.128 438.844C261.02 440.629 267.42 439.521 273.327 435.521C276.466 433.737 280.404 432.198 285.142 430.906C294.619 428.383 303.542 428.506 311.911 431.275C313.141 432.014 315.049 432.722 317.634 433.398L333.971 434.322C338.217 432.66 342.248 432.075 346.063 432.568C353.632 433.368 356.309 438.875 354.094 449.09L351.786 452.229C349.756 454.69 347.448 456.751 344.863 458.413C336.925 463.582 328.31 463.828 319.018 459.151L310.803 457.582C303.603 456.967 295.665 457.705 286.989 459.798L282.65 461.551C279.081 462.782 275.42 463.705 271.666 464.32C259.789 466.29 249.451 464.69 240.652 459.521L230.683 456.105Z" stroke="#F0C095"/>
<path fill-rule="evenodd" clip-rule="evenodd" d="M272.127 113.933C272.127 109.625 270.651 105.933 267.697 102.856C264.743 99.7796 261.236 98.2412 257.174 98.2412C253.051 98.2412 249.574 99.7796 246.744 102.856C243.79 105.933 242.313 109.625 242.313 113.933C242.313 118.302 243.79 122.025 246.744 125.102C249.636 128.24 253.113 129.809 257.174 129.809C261.236 129.809 264.743 128.24 267.697 125.102C270.651 122.025 272.127 118.302 272.127 113.933Z" fill="white"/>
<path fill-rule="evenodd" clip-rule="evenodd" d="M183.792 147.994C183.792 143.748 182.346 140.118 179.454 137.103C176.562 134.026 173.085 132.487 169.023 132.487C164.962 132.487 161.516 134.026 158.685 137.103C155.793 140.118 154.347 143.748 154.347 147.994C154.347 152.364 155.793 156.056 158.685 159.071C161.516 162.148 164.962 163.686 169.023 163.686C173.085 163.686 176.562 162.148 179.454 159.071C182.346 156.056 183.792 152.364 183.792 147.994Z" fill="white"/>
<path fill-rule="evenodd" clip-rule="evenodd" d="M382.155 175.685C376.801 171.378 372.063 170.178 367.94 172.085C365.909 173.008 364.432 174.393 363.509 176.239C360.125 180.3 359.755 184.362 362.401 188.423L367.478 193.315L376.063 193.777L380.216 193.315C381.878 193.008 383.908 193.377 386.308 194.423L389.262 195.992C392.154 200.915 395.723 203.13 399.969 202.638L405.323 200.33C406.985 199.9 409.015 200.269 411.415 201.438L414.461 203.469C419.015 206.607 422.399 206.33 424.615 202.638L426.553 195.992C426.922 187.562 424.184 182.885 418.338 181.962C415.323 181.531 412.338 181.962 409.384 183.254C406.431 185.039 403.538 185.377 400.708 184.269C399.231 183.777 398.093 183.07 397.293 182.146C396.308 176.854 393.508 174.178 388.893 174.116C386.493 174.116 384.247 174.639 382.155 175.685Z" fill="white"/>
<path d="M382.155 175.685C384.247 174.639 386.493 174.116 388.893 174.116C393.508 174.178 396.308 176.854 397.293 182.146C398.093 183.07 399.231 183.777 400.708 184.269C403.538 185.377 406.431 185.039 409.384 183.254C412.338 181.962 415.323 181.531 418.338 181.962C424.184 182.885 426.922 187.562 426.553 195.992L424.615 202.638C422.399 206.33 419.015 206.607 414.461 203.469L411.415 201.438C409.015 200.269 406.985 199.9 405.323 200.33L399.969 202.638C395.723 203.13 392.154 200.915 389.262 195.992L386.308 194.423C383.908 193.377 381.878 193.008 380.216 193.315L376.063 193.777L367.478 193.315L362.401 188.423C359.755 184.362 360.125 180.3 363.509 176.239C364.432 174.393 365.909 173.008 367.94 172.085C372.063 170.178 376.801 171.378 382.155 175.685Z" stroke="#F0C095"/>
<path fill-rule="evenodd" clip-rule="evenodd" d="M77.55 367.955C79.3961 358.663 77.0269 352.971 70.4425 350.879L59.9199 350.417C58.9353 345.987 56.8123 343.125 53.5508 341.833C51.8894 341.094 50.3202 340.818 48.8433 341.002C41.0282 348.817 39.059 355.063 42.9358 359.74C44.1666 361.217 45.8895 362.417 48.1049 363.34L51.0586 364.448C54.6892 364.448 57.7969 365.617 60.3814 367.955L63.1505 371.37C66.4119 378.262 70.1349 382.693 74.3193 384.662L79.7653 385.493C83.8882 392.323 87.8572 394.539 91.6725 392.139C92.9032 391.462 94.0417 390.323 95.0878 388.724L96.2877 386.601C101.334 378.847 99.7338 373.432 91.4879 370.355C87.365 368.755 82.719 367.955 77.55 367.955Z" fill="white"/>
<path d="M77.55 367.955C82.719 367.955 87.365 368.755 91.4879 370.355C99.7338 373.432 101.334 378.847 96.2877 386.601L95.0878 388.724C94.0417 390.323 92.9032 391.462 91.6725 392.139C87.8572 394.539 83.8882 392.323 79.7653 385.493L74.3193 384.662C70.1349 382.693 66.4119 378.262 63.1505 371.37L60.3814 367.955C57.7969 365.617 54.6892 364.448 51.0586 364.448L48.1049 363.34C45.8895 362.417 44.1666 361.217 42.9358 359.74C39.059 355.063 41.0282 348.817 48.8433 341.002C50.3202 340.818 51.8894 341.094 53.5508 341.833C56.8123 343.125 58.9353 345.987 59.9199 350.417L70.4425 350.879C77.0269 352.971 79.3961 358.663 77.55 367.955Z" stroke="#F0C095"/>
<path d="M242.346 81.3349L242.355 81.3321L242.364 81.3296C247.99 79.7667 252.761 80.4605 256.596 83.4966C259.462 84.6206 262.156 85.0241 264.685 84.7299L264.686 84.7299C267.236 84.4367 268.904 83.3641 269.812 81.5633C270.733 79.7356 270.918 77.0678 270.265 73.4861L268.838 70.8102C267.403 68.7234 265.548 66.9295 263.268 65.4296L263.268 65.4296C256.062 60.6852 246.123 59.9157 233.356 63.2661L225.973 67.0942C223.875 68.789 222.673 70.6066 222.289 72.5398C221.903 74.4842 222.329 76.6244 223.643 78.9835L223.662 79.0175L223.675 79.054C224.074 80.1357 224.792 81.1801 225.855 82.1842C228.095 84.251 231.187 85.072 235.216 84.5604C237.268 83.2679 239.646 82.194 242.346 81.3349Z" fill="#C6C5C2" stroke="white"/>
<path d="M163.558 93.485L156.022 94.3022C147.933 96.9593 140.869 104.396 134.881 116.783L132.69 125.181C132.519 127.978 133.034 130.135 134.169 131.709C135.303 133.283 137.106 134.345 139.651 134.852L143.438 135.213C146.277 134.737 148.869 132.799 151.192 129.258C151.578 126.772 152.42 124.147 153.709 121.385C156.201 115.902 159.79 112.571 164.5 111.524C167.117 109.965 169.191 108.059 170.731 105.809C172.205 103.567 172.531 101.518 171.831 99.6138C171.125 97.6932 169.339 95.8152 166.351 94.0086L163.558 93.485Z" fill="#C6C5C2" stroke="white"/>
<path fill-rule="evenodd" clip-rule="evenodd" d="M184.623 606.377C191.515 615.669 197.792 619.208 203.453 616.992C205.237 616.315 206.868 615.116 208.345 613.392L210.006 610.993C219.237 617.331 225.698 618.254 229.39 613.762C230.498 612.408 231.267 610.562 231.698 608.223L232.16 605.177C232.59 592.562 227.36 586.624 216.468 587.363C211.053 587.732 205.576 589.393 200.038 592.347C197.33 584.04 191.176 580.194 181.577 580.809C176.777 581.117 172.254 582.224 168.008 584.132C161.116 576.378 154.101 574.44 146.962 578.317C143.393 580.286 140.47 583.024 138.194 586.532C135.486 594.347 137.24 599.208 143.455 601.116L150.378 601.947L153.701 601.67C160.101 611.885 167.177 615.731 174.931 613.208C177.392 612.469 179.731 611.085 181.946 609.054L184.623 606.377Z" fill="white"/>
<path d="M184.623 606.377L181.946 609.054C179.731 611.085 177.392 612.469 174.931 613.208C167.177 615.731 160.101 611.885 153.701 601.67L150.378 601.947L143.455 601.116C137.24 599.208 135.486 594.347 138.194 586.532C140.47 583.024 143.393 580.286 146.962 578.317C154.101 574.44 161.116 576.378 168.008 584.132C172.254 582.224 176.777 581.117 181.577 580.809C191.176 580.194 197.33 584.04 200.038 592.347C205.576 589.393 211.053 587.732 216.468 587.363C227.36 586.624 232.59 592.562 232.16 605.177L231.698 608.223C231.267 610.562 230.498 612.408 229.39 613.762C225.698 618.254 219.237 617.331 210.006 610.993L208.345 613.392C206.868 615.116 205.237 616.315 203.453 616.992C197.792 619.208 191.515 615.669 184.623 606.377Z" stroke="#F0C095"/>
<path fill-rule="evenodd" clip-rule="evenodd" d="M324.002 559.579C320.064 560.81 316.464 562.625 313.203 565.025C306.064 559.794 299.819 559.517 294.465 564.194C291.819 566.471 289.85 569.302 288.557 572.686C287.573 579.763 289.88 583.516 295.48 583.947L304.157 582.47C311.295 589.855 317.879 591.732 323.91 588.101C325.818 586.993 327.571 585.393 329.171 583.301L330.833 580.532C338.217 586.993 344.125 588.778 348.555 585.886C349.909 585.024 351.078 583.701 352.063 581.916L352.986 579.609C361.847 583.178 368.001 582.747 371.447 578.317C372.493 576.901 373.201 575.209 373.57 573.24L373.847 570.563C372.062 559.794 366.155 555.794 356.124 558.563C351.078 559.917 346.217 562.317 341.54 565.763C337.786 559.363 331.94 557.302 324.002 559.579Z" fill="white"/>
<path d="M324.002 559.579C331.94 557.302 337.786 559.363 341.54 565.763C346.217 562.317 351.078 559.917 356.124 558.563C366.155 555.794 372.062 559.794 373.847 570.563L373.57 573.24C373.201 575.209 372.493 576.901 371.447 578.317C368.001 582.747 361.847 583.178 352.986 579.609L352.063 581.916C351.078 583.701 349.909 585.024 348.555 585.886C344.125 588.778 338.217 586.993 330.833 580.532L329.171 583.301C327.571 585.393 325.818 586.993 323.91 588.101C317.879 591.732 311.295 589.855 304.157 582.47L295.48 583.947C289.88 583.516 287.573 579.763 288.557 572.686C289.85 569.302 291.819 566.471 294.465 564.194C299.819 559.517 306.064 559.794 313.203 565.025C316.464 562.625 320.064 560.81 324.002 559.579Z" stroke="#F0C095"/>
<path d="M251.823 147.442L251.822 147.443C246.348 149.632 241.357 152.918 236.847 157.306L236.807 157.345L236.759 157.374C231.181 160.783 225.771 162.994 220.531 163.992L220.503 163.997L220.475 164L214.383 164.461L214.364 164.462H214.345C197.909 164.462 186.882 168.452 181.055 176.26C178.227 180.112 177.018 183.952 177.365 187.795C178.726 194.237 182.052 198.972 187.343 202.044C192.662 205.133 200.01 206.567 209.438 206.292C215.305 206.109 221.639 205.253 228.439 203.722L236.909 201.42C256.838 194.918 268.999 185.423 273.597 173.019L273.598 173.017C275.048 169.15 275.653 165.227 275.414 161.246L274.689 156.442C272.386 151.228 269.343 147.935 265.598 146.451C261.835 144.961 257.26 145.255 251.823 147.442ZM264.036 164.234L264.031 164.258L264.025 164.281C263.27 166.985 262.015 169.619 260.265 172.181C254.765 180.368 245.419 186.481 232.308 190.562L232.27 190.574L232.23 190.58L212.754 193.349L212.731 193.352L212.707 193.353C206.126 193.662 201.015 193.088 197.422 191.584C193.797 190.067 191.693 187.589 191.235 184.151L191.219 184.034L191.258 183.922C191.924 181.989 193.627 180.128 196.246 178.32L196.248 178.318C198.984 176.451 202.098 176.015 205.757 175.778C206.503 175.73 207.274 175.69 208.071 175.648C211.193 175.485 214.728 175.301 218.862 174.517L225.426 171.988L225.457 171.976L225.489 171.968C230.294 170.813 234.384 169.146 237.768 166.976C241.722 163.58 245.804 160.737 250.012 158.447L250.012 158.447L250.016 158.445C254.184 156.221 257.541 155.219 260.019 155.599C261.281 155.793 262.317 156.345 263.094 157.265C263.864 158.176 264.351 159.412 264.591 160.931L264.604 161.013L264.589 161.096L264.036 164.234Z" fill="#C1272D" stroke="#FB6C6C"/>
<path fill-rule="evenodd" clip-rule="evenodd" d="M253.851 346.079C249.728 346.079 246.19 347.648 243.236 350.786C240.344 353.863 238.898 357.617 238.898 362.047C238.898 366.478 240.344 370.232 243.236 373.308C246.19 376.385 249.728 377.924 253.851 377.924C257.974 377.924 261.543 376.385 264.559 373.308C267.451 370.232 268.897 366.478 268.897 362.047C268.897 357.617 267.451 353.863 264.559 350.786C261.543 347.648 257.974 346.079 253.851 346.079Z" fill="white" fill-opacity="0.34902"/>
</svg>
