<svg width="127" height="127" viewBox="0 0 127 127" fill="none" xmlns="http://www.w3.org/2000/svg">
<g clip-path="url(#clip0_453_501)">
<path d="M86.2929 89.283C91.7657 64.8565 67.3467 70.5597 67.3467 70.5597C67.3467 70.5597 65.1108 69.4436 62.152 68.7882C59.9441 60.5392 48.2074 57.7532 48.2074 57.7532C48.2074 57.7532 33.6013 40.7361 23.5247 62.4047C19.2907 71.7099 22.683 81.3387 32.0549 86.9532C36.8231 89.8097 41.82 90.7924 46.2571 90.0991C48.5302 97.4935 55.2722 102.65 64.4766 103.695C75.7193 105.068 84.0645 99.3429 86.2929 89.283Z" fill="#FF1744"/>
<path d="M61.3422 87.2945C64.526 80.4881 76.6166 71.8678 82.172 72.2914C76.3514 68.581 67.3462 70.5593 67.3462 70.5593C67.3462 70.5593 65.2746 69.5417 62.3158 68.8863C62.2499 68.6234 62.0855 68.5249 61.9211 68.4264C62.9424 71.9429 62.0582 76.7755 57.559 82.7938C54.5048 86.7732 50.6277 89.1426 46.355 89.9343C47.4423 93.7137 50.8004 101.535 64.4761 103.695C59.97 99.6548 58.1584 94.1009 61.3422 87.2945Z" fill="#D50000"/>
<path d="M29.5102 67.3308C28.8526 66.9368 28.326 65.9511 28.654 65.0305C31.0483 57.3042 36.6689 56.8731 38.9041 56.8716C40.0217 56.8708 40.8112 57.7907 40.6476 58.8098C40.6483 59.9274 39.7285 60.7169 38.7094 60.5532C36.5727 60.3903 33.845 61.2139 32.369 65.9154C32.0409 66.836 30.9567 67.5271 30.0361 67.199C29.6747 67.4293 29.6747 67.4293 29.5102 67.3308Z" fill="#FFCDD2"/>
<path d="M70.6977 68.3219C70.8288 67.7302 70.8614 67.3028 70.9925 66.7111C71.091 66.5467 71.025 66.2837 71.1235 66.1193C71.1561 65.692 71.3531 65.3631 71.2872 65.1002C71.3198 64.6729 71.4183 64.5085 71.4509 64.0811C71.4834 63.6538 71.5819 63.4894 71.7789 63.1605C71.8115 62.7332 72.0085 62.4043 71.9426 62.1414C71.9752 61.7141 72.1722 61.3853 72.2048 60.9579C72.3033 60.7935 72.2373 60.5306 72.3358 60.3661C72.3684 59.9388 72.5654 59.61 72.7624 59.2811C72.8609 59.1167 72.9594 58.9523 72.8935 58.6894C73.0905 58.3605 73.1231 57.9332 73.3201 57.6044C73.4186 57.4399 73.5171 57.2755 73.4512 57.0126C73.6482 56.6838 73.6807 56.2564 73.8777 55.9276L74.0747 55.5987L74.6657 54.6122L74.9612 54.119L75.5522 53.1324L75.7492 52.8036L76.3402 51.8171L76.5372 51.4882L77.0297 50.6661L77.3252 50.1729L77.7192 49.5152L78.0147 49.0219L78.3102 48.5287C78.4087 48.3643 78.5072 48.1998 78.8687 47.9695L79.0657 47.6407C79.1642 47.4762 79.5256 47.2459 79.6241 47.0815L79.8211 46.7526C80.0181 46.4238 80.281 46.3579 80.478 46.0291L80.5765 45.8646C80.7735 45.5358 81.0364 45.4699 81.2334 45.141C84.2885 42.2792 87.3116 40.9623 88.4618 40.5342C88.6262 40.6327 88.8892 40.5668 88.8892 40.5668C89.9083 40.7305 90.8281 39.941 90.9918 38.9219C91.1554 37.9028 91.0562 36.9496 90.0371 36.7859C90.0371 36.7859 89.8726 36.6874 89.7741 36.8518C89.6097 36.7533 89.4453 36.6548 89.1824 36.7208C89.018 36.6223 88.9195 36.7867 88.6565 36.8526C59.5967 33.5195 45.4468 59.0039 45.3483 59.1683C44.8558 59.9904 45.1854 61.305 46.0075 61.7975C46.994 62.3885 48.1442 61.9604 48.6367 61.1383C48.7352 60.9739 59.5035 41.5072 81.6903 40.2759C75.5795 44.8819 67.3025 54.2228 66.3948 72.8939C66.4281 73.5841 66.7244 74.2085 67.3821 74.6025C67.7109 74.7995 67.8753 74.898 68.3027 74.9306C69.1573 74.9957 69.8802 74.535 70.1098 73.7789C70.2083 73.6144 70.2408 73.1871 70.3393 73.0227C70.4045 72.168 70.4697 71.3133 70.4363 70.6231L70.5348 70.4586C70.5015 69.7684 70.5666 68.9137 70.6977 68.3219Z" fill="#795548"/>
<path d="M92.0295 67.0255C90.9414 62.1285 109.603 48.5075 90.0367 36.786C65.8542 51.7914 92.0295 67.0255 92.0295 67.0255Z" fill="#4CAF50"/>
</g>
<defs>
<clipPath id="clip0_453_501">
<rect width="92" height="92" fill="white" transform="translate(47.2803) rotate(30.9248)"/>
</clipPath>
</defs>
</svg>
