<?xml version="1.0" encoding="iso-8859-1"?>
<!-- Uploaded to: SVG Repo, www.svgrepo.com, Generator: SVG Repo Mixer Tools -->
<svg height="800px" width="800px" version="1.1" id="Layer_1" xmlns="http://www.w3.org/2000/svg" xmlns:xlink="http://www.w3.org/1999/xlink" 
	 viewBox="0 0 511.986 511.986" xml:space="preserve">
<g>
	<path style="fill:#967ADC;" d="M169.433,265.692L21.328,383.993c0,0-21.328-77.435-21.328-127.613
		c0-50.154,21.328-107.043,21.328-107.043L169.433,265.692z"/>
	<path style="fill:#967ADC;" d="M342.538,267.63l148.104-118.293c0,0,21.344,77.435,21.344,127.597
		c0,50.187-21.344,107.06-21.344,107.06L342.538,267.63z"/>
</g>
<g>
	<path style="fill:#AC92EB;" d="M58.296,235.881c-0.016,0-0.016,0-0.016,0l-0.188-0.094v0.016c-4-2-8.984-1.344-12.312,1.984
		c-4.156,4.172-4.156,10.921,0,15.093c0.828,0.828,1.781,1.484,2.781,1.984l0,0l23.577,11.797l-23.577,11.804l0,0
		c-1,0.5-1.953,1.156-2.781,2c-4.156,4.156-4.156,10.906,0,15.062c3.328,3.344,8.312,4,12.312,2l0,0l0.188-0.094c0,0,0,0,0.016,0
		l42.468-21.219l-4.766-9.554l4.766-9.531L58.296,235.881z"/>
	<path style="fill:#AC92EB;" d="M463.409,278.465L463.409,278.465l-23.578-11.804l23.594-11.797h-0.016
		c1-0.5,1.953-1.156,2.781-1.984c4.172-4.171,4.172-10.921,0-15.093c-3.328-3.328-8.312-3.984-12.312-1.984v-0.016l-0.141,0.078
		c-0.031,0.016-0.047,0.016-0.062,0.031l-42.468,21.233l4.781,9.531l-4.781,9.554l42.468,21.219c0.016,0,0.031,0.031,0.062,0.031
		l0.141,0.062l0,0c4,2,8.984,1.344,12.312-2c4.172-4.156,4.172-10.906,0-15.062C465.362,279.621,464.409,278.965,463.409,278.465z"
		/>
</g>
<path style="fill:#A0D468;" d="M427.253,255.989c0,70.693-76.669,128.004-171.26,128.004S84.717,326.682,84.717,255.989
	c0-70.685,76.685-127.996,171.276-127.996S427.253,185.304,427.253,255.989z"/>
<path style="fill:#967ADC;" d="M315.022,356.994c2.453-9.594,2.453-26.437,0-36.03l-10.75-41.999
	c-3.344-13.054-3.344-33.538,0-46.615l10.75-41.968c2.453-9.609,2.453-26.452,0-36.045l-5.078-19.843
	c-16.968-4.203-35.107-6.5-53.951-6.5c-18.187,0-35.702,2.125-52.139,6.047l3.844,15c3.344,13.078,3.344,33.562,0,46.624
	l-10.75,41.983c-2.453,9.593-2.453,26.437,0,36.038l10.75,41.999c3.344,13.062,3.344,33.529,0,46.623l-4,15.593
	c16.483,3.967,34.045,6.092,52.295,6.092c18.781,0,36.858-2.281,53.779-6.438L315.022,356.994z"/>
</svg>