<?xml version="1.0" encoding="iso-8859-1"?>
<!-- Uploaded to: SVG Repo, www.svgrepo.com, Generator: SVG Repo Mixer Tools -->
<svg height="800px" width="800px" version="1.1" id="Layer_1" xmlns="http://www.w3.org/2000/svg" xmlns:xlink="http://www.w3.org/1999/xlink" 
	 viewBox="0 0 512 512" xml:space="preserve">
<g>
	<path style="fill:#FCD197;" d="M125.806,406.731C136.383,456.895,105.146,512,105.146,512
		c-13.143-13.143-19.771-6.515-32.914-19.659c-13.143-13.143-6.515-19.771-19.659-32.914s-19.771-6.515-32.914-19.659
		C6.515,426.625,13.143,419.998,0,406.854c0,0,55.105-31.238,105.269-20.66l33.62-13.373L125.806,406.731z"/>
	<path style="fill:#FCD197;" d="M406.731,125.806C456.895,136.383,512,105.146,512,105.146
		c-13.143-13.143-6.515-19.771-19.659-32.914c-13.143-13.143-19.771-6.515-32.914-19.659s-6.515-19.771-19.659-32.914
		C426.625,6.515,419.998,13.143,406.854,0c0,0-31.238,55.105-20.66,105.269l-13.373,33.62L406.731,125.806z"/>
</g>
<g>
	<path style="fill:#FAB352;" d="M256,256c-71.643-74.207-76.237-110.06-76.215-184.016c23.462-9.779,49.208-15.157,76.215-15.157
		s52.753,5.379,76.237,15.112C337.395,167.854,319.39,181.793,256,256z"/>
	<path style="fill:#FAB352;" d="M256,256c-74.207,71.643-110.06,76.237-184.016,76.215C62.205,308.753,56.826,283.007,56.826,256
		s5.379-52.753,15.112-76.237C167.854,174.606,181.793,192.61,256,256z"/>
	<path style="fill:#FAB352;" d="M256,256c71.643,74.207,76.237,110.06,76.215,184.016c-23.462,9.779-49.208,15.157-76.215,15.157
		s-52.753-5.379-76.237-15.112C174.606,344.146,192.61,330.207,256,256z"/>
	<path style="fill:#FAB352;" d="M256,256c74.207-71.643,110.06-76.237,184.016-76.215c9.779,23.462,15.157,49.208,15.157,76.215
		s-5.379,52.753-15.112,76.237C344.146,337.395,330.207,319.39,256,256z"/>
</g>
<g>
	<path style="fill:#F16831;" d="M256,256c-9.52,95.48-66.706,88.525-76.215,184.016c-19.827-8.17-38.012-19.479-53.979-33.286
		c-7.337-6.335-14.201-13.199-20.536-20.536c-13.807-15.968-25.116-34.152-33.331-53.957C146.229,271.439,181.754,316.787,256,256z"
		/>
	<path style="fill:#F16831;" d="M179.785,71.984C240.561,146.229,195.213,181.754,256,256c-95.48-9.52-88.525-66.706-184.016-76.215
		C92.126,131.072,131.072,92.126,179.785,71.984z"/>
	<path style="fill:#F16831;" d="M256,256c9.52-95.48,66.706-88.525,76.215-184.016c19.827,8.17,38.012,19.479,53.979,33.286
		c7.337,6.335,14.201,13.199,20.536,20.536c13.807,15.968,25.116,34.152,33.331,53.957C365.771,240.561,330.246,195.213,256,256z"/>
	<path style="fill:#F16831;" d="M256,256c95.48,9.52,88.525,66.706,184.016,76.215c-20.142,48.713-59.088,87.659-107.779,107.846
		C271.439,365.771,316.787,330.246,256,256z"/>
</g>
</svg>