<svg width="153" height="153" viewBox="0 0 153 153" fill="none" xmlns="http://www.w3.org/2000/svg">
<g clip-path="url(#clip0_483_141)">
<path d="M107.477 80.747C107.477 80.747 119.629 95.0615 129.327 100.288C135.195 104.593 149.93 108.021 143.6 95.1908C141.08 90.0819 135.587 87.2453 146.212 80.2914C148.41 78.8541 155.193 75.0349 145.571 70.2391C144.99 70.2924 138.438 65.7492 144.686 58.562C144.686 58.562 152.247 47.569 141.086 48.2567C137.947 48.9645 125.05 48.3038 111.507 64.475L107.477 80.747ZM44.8783 78.8077C44.8783 78.8077 31.9924 92.4672 22.0338 97.1786C15.9477 101.168 1.05385 103.821 8.04756 91.3397C10.8321 86.3683 16.4661 83.8252 6.21986 76.3239C4.10099 74.765 -2.48292 70.6035 7.3876 66.3191C7.96333 66.4027 14.7464 62.2076 8.88323 54.7027C8.88323 54.7027 1.9089 43.3284 13.0184 44.6003C16.114 45.4733 29.0304 45.488 41.7071 62.3469L44.8783 78.8077Z" fill="#F09AC1"/>
<path d="M108.101 79.9967C108.101 79.9967 118.754 92.5447 127.253 97.1256C132.397 100.899 145.312 103.905 139.764 92.6582C137.555 88.1788 132.741 85.6924 142.054 79.5977C143.98 78.337 149.927 74.9903 141.492 70.7853C140.99 70.8322 135.24 66.8497 140.717 60.5491C140.717 60.5491 147.343 50.9114 137.561 51.5167C134.81 52.1377 123.506 51.5572 111.632 65.7327L108.101 79.9967ZM43.2055 77.74C43.2055 77.74 31.9073 89.7123 23.18 93.8413C17.8451 97.3394 4.7905 99.6645 10.9203 88.7242C13.3614 84.3668 18.3006 82.1362 9.31794 75.5616C7.46111 74.2017 1.69738 70.5478 10.3431 66.7908C10.8422 66.864 16.7849 63.1881 11.6524 56.6093C11.6524 56.6093 5.53994 46.6374 15.2788 47.7548C17.9914 48.5191 29.3127 48.5321 40.427 63.3105L43.2055 77.74Z" fill="#E772AC"/>
<path d="M131.86 57.8049C124.801 59.8765 118.287 63.4801 112.781 68.3588C112.539 68.5746 112.885 68.9361 113.126 68.7219C118.567 63.9007 125.005 60.3395 131.98 58.2924C132.289 58.2003 132.163 57.7143 131.86 57.8049ZM137.879 74.2052C129.782 74.7255 121.652 74.1657 113.702 72.5404C113.388 72.4754 113.241 72.9542 113.558 73.0194C121.547 74.6578 129.718 75.2249 137.857 74.7057C138.177 74.6857 138.192 74.185 137.87 74.2049L137.879 74.2052ZM133.442 93.0822C129.47 91.6418 125.693 89.7454 122.007 87.6911C120.196 86.6848 118.423 85.6428 116.641 84.6022C114.86 83.5616 113.073 82.4608 111.642 80.9333C111.421 80.697 111.057 81.0416 111.278 81.2779C112.608 82.6958 114.22 83.7503 115.883 84.7393C117.733 85.8368 119.598 86.9125 121.477 87.9662C125.281 90.1055 129.188 92.0821 133.302 93.563C133.606 93.6728 133.749 93.1922 133.446 93.084L133.442 93.0822ZM16.3774 55.6294C23.2357 58.0399 29.4775 61.9343 34.6575 67.0346C34.8888 67.2612 35.2519 66.9166 35.0223 66.6901C29.7797 61.5292 23.4627 57.589 16.522 55.1505C16.2175 55.0423 16.0729 55.5229 16.3774 55.6294ZM9.64006 71.7118C17.7404 72.6569 25.9305 72.5189 33.9944 71.3016C34.313 71.2549 34.1904 70.7689 33.8735 70.8157C25.8534 72.0223 17.7084 72.1552 9.65319 71.2111C9.33178 71.1742 9.32199 71.6751 9.64006 71.7118ZM13.2139 90.7806C17.3017 89.5516 21.2088 87.8267 25.033 85.9493C26.9722 84.998 28.8906 84.0077 30.8075 83.014C32.6075 82.0841 34.3659 81.0812 35.8428 79.6684C36.0758 79.4457 35.7313 79.0809 35.4982 79.3053C34.0555 80.6906 32.328 81.6591 30.5685 82.5751C28.745 83.5295 26.9127 84.4619 25.0715 85.3724C21.1994 87.292 17.2365 89.0438 13.0913 90.2947C12.7849 90.3869 12.9091 90.8745 13.2122 90.7806L13.2139 90.7806Z" fill="#FCC3DF"/>
<path d="M76.2008 35.1883C70.7947 35.0465 65.4144 35.9349 60.3674 37.8028C55.3203 39.6707 50.7052 42.4814 46.7856 46.0747C42.866 49.6679 39.7186 53.9731 37.5231 58.7446C35.3277 63.5161 34.1272 68.6604 33.9902 73.8837C33.8532 79.1071 34.7824 84.3072 36.7247 89.1872C38.6669 94.0673 41.5843 98.5316 45.3102 102.325C49.036 106.119 53.4974 109.168 58.4397 111.298C63.3819 113.428 68.7081 114.597 74.1143 114.739C85.0326 115.025 95.6135 111.109 103.53 103.852C111.446 96.5956 116.048 86.5923 116.325 76.0433C116.602 65.4942 112.53 55.2635 105.005 47.6017C97.4802 39.9399 87.1191 35.4747 76.2008 35.1883Z" fill="#F6B1D0"/>
<path d="M75.9519 35.2283C70.8882 35.0952 65.8487 35.9271 61.1212 37.6765C56.3937 39.4258 52.0708 42.0585 48.3993 45.424C44.7278 48.7895 41.7797 52.8221 39.7232 57.2913C37.6668 61.7606 36.5423 66.5791 36.414 71.4717C36.2856 76.3642 37.156 81.235 38.9753 85.806C40.7947 90.3769 43.5273 94.5584 47.0173 98.1118C50.5073 101.665 54.6863 104.521 59.3156 106.516C63.9449 108.51 68.9338 109.605 73.9976 109.738C79.0613 109.871 84.1009 109.039 88.8284 107.29C93.5558 105.54 97.8788 102.908 101.55 99.5422C105.222 96.1766 108.17 92.1441 110.226 87.6748C112.283 83.2055 113.407 78.3871 113.536 73.4945C113.664 68.6019 112.794 63.7311 110.974 59.1602C109.155 54.5893 106.422 50.4077 102.932 46.8543C99.4422 43.301 95.2632 40.4454 90.6339 38.4506C86.0046 36.4558 81.0157 35.3608 75.9519 35.2283Z" fill="#FCD2E8"/>
<path d="M56.5474 48.5384C53.2714 50.8494 50.2847 53.5288 48.0946 56.9156C45.9966 60.2071 44.7199 63.9545 44.3721 67.8422C44.3419 68.1655 44.8427 68.1753 44.8729 67.8554C45.2326 64.0599 46.4822 60.4027 48.5203 57.1807C50.6118 53.8581 53.6056 51.2257 56.7898 48.979C57.0501 48.7955 56.8062 48.3531 56.5474 48.5401L56.5474 48.5384Z" fill="white"/>
</g>
<defs>
<clipPath id="clip0_483_141">
<rect width="148.544" height="148.544" fill="white" transform="translate(152.462 3.96875) rotate(91.5025)"/>
</clipPath>
</defs>
</svg>
