<svg width="144" height="144" viewBox="0 0 144 144" fill="none" xmlns="http://www.w3.org/2000/svg">
<path d="M56.25 56.25C55.6533 56.25 55.081 56.0129 54.659 55.591C54.2371 55.169 54 54.5967 54 54V43.7553C53.9956 39.9096 52.4659 36.2227 49.7466 33.5034C47.0273 30.7841 43.3404 29.2544 39.4947 29.25H29.25C28.6533 29.25 28.081 29.0129 27.659 28.591C27.2371 28.169 27 27.5967 27 27C27 26.4033 27.2371 25.831 27.659 25.409C28.081 24.9871 28.6533 24.75 29.25 24.75H39.4947C44.5335 24.7556 49.3643 26.7597 52.9273 30.3227C56.4903 33.8857 58.4944 38.7165 58.5 43.7553V54C58.5 54.5967 58.2629 55.169 57.841 55.591C57.419 56.0129 56.8467 56.25 56.25 56.25Z" fill="#6D4D42"/>
<path d="M117 81.0002C116.403 81.0002 115.831 80.7631 115.409 80.3412C114.987 79.9192 114.75 79.3469 114.75 78.7502V59.6477C114.748 57.571 113.922 55.58 112.453 54.1117C110.985 52.6433 108.994 51.8175 106.917 51.8154H101.25C100.653 51.8154 100.081 51.5784 99.659 51.1564C99.2371 50.7345 99 50.1622 99 49.5654C99 48.9687 99.2371 48.3964 99.659 47.9744C100.081 47.5525 100.653 47.3154 101.25 47.3154H106.917C110.187 47.3191 113.321 48.6196 115.633 50.9315C117.945 53.2434 119.246 56.378 119.25 59.6477V78.7502C119.25 79.3469 119.013 79.9192 118.591 80.3412C118.169 80.7631 117.597 81.0002 117 81.0002Z" fill="#6D4D42"/>
<path d="M135 97.875C134.997 102.946 132.981 107.809 129.395 111.395C125.809 114.981 120.946 116.997 115.875 117C115.493 117 115.133 117 114.75 116.978C109.88 116.688 105.305 114.549 101.959 110.999C98.6133 107.448 96.75 102.754 96.75 97.875C96.75 92.9964 98.6133 88.302 101.959 84.7514C105.305 81.2008 109.88 79.0621 114.75 78.7725C115.133 78.75 115.493 78.75 115.875 78.75C120.946 78.7534 125.809 80.7694 129.395 84.3553C132.981 87.9412 134.997 92.8038 135 97.875Z" fill="#AB6CAD"/>
<path d="M56.205 56.4524C51.3053 60.864 48.185 66.9127 47.43 73.4624C44.6852 75.2473 41.5194 76.2793 38.25 76.4549C37.8762 76.4924 37.5006 76.5074 37.125 76.4999C32.0527 76.4999 27.1882 74.485 23.6016 70.8983C20.015 67.3117 18 62.4472 18 57.3749C18 52.3026 20.015 47.4381 23.6016 43.8515C27.1882 40.2649 32.0527 38.2499 37.125 38.2499C37.5006 38.2424 37.8762 38.2575 38.25 38.2949C42.9568 38.5699 47.3954 40.577 50.7105 43.9295C54.0257 47.282 55.9828 51.7428 56.205 56.4524Z" fill="#863B96"/>
<path d="M99.6973 108.045C98.2268 111.122 95.7967 113.639 92.7725 115.216C89.7483 116.793 86.2938 117.345 82.9287 116.789C79.5636 116.233 76.47 114.6 74.1136 112.134C71.7571 109.668 70.2651 106.504 69.8623 103.117C71.3127 103.358 72.7796 103.486 74.2498 103.5C78.136 103.511 81.977 102.666 85.4998 101.025C90.3212 98.8024 94.3823 95.2108 97.1773 90.6973C97.4023 90.9673 97.6498 91.2373 97.8523 91.5073C97.1299 93.5528 96.7571 95.7054 96.7498 97.8748C96.7454 101.476 97.7679 105.004 99.6973 108.045Z" fill="#863B96"/>
<path d="M99.6975 108.045C98.4149 110.723 96.4018 112.985 93.8899 114.569C91.3781 116.154 88.4698 116.996 85.5 117V101.025C90.3214 98.8024 94.3825 95.2108 97.1775 90.6973C97.4025 90.9673 97.65 91.2373 97.8525 91.5073C97.1301 93.5528 96.7573 95.7054 96.75 97.8748C96.7456 101.476 97.768 105.004 99.6975 108.045Z" fill="#783293"/>
<path d="M101.25 76.4999C101.253 83.146 98.8034 89.5596 94.3708 94.5116C89.9381 99.4636 83.834 102.606 77.2281 103.336C70.6222 104.066 63.9792 102.333 58.5719 98.4691C53.1646 94.6049 49.3734 88.8812 47.9248 82.3949C48.8321 85.2568 50.6278 87.7551 53.0513 89.5272C55.4748 91.2993 58.4 92.253 61.4023 92.2499H65.2498V88.4024C65.2521 86.5432 64.8876 84.7018 64.1772 82.9837C63.4668 81.2656 62.4244 79.7045 61.1097 78.3899C59.7951 77.0753 58.234 76.0329 56.5159 75.3225C54.7978 74.6121 52.9564 74.2476 51.0973 74.2499H47.3848C47.7205 70.1921 48.9696 66.2629 51.0386 62.7561C53.1075 59.2494 55.9428 56.2559 59.3323 53.9999H62.8423C66.9084 54.0075 70.883 52.7924 74.2498 50.5124C74.6956 50.223 75.1238 49.9074 75.5323 49.5674C79.7671 49.7608 83.8962 50.952 87.5834 53.0438C91.2705 55.1357 94.4113 58.069 96.7498 61.6049V64.1249C96.7476 66.0718 97.1369 67.9993 97.8945 69.7927C98.6521 71.5862 99.7625 73.2091 101.16 74.5649C101.205 75.2174 101.25 75.8474 101.25 76.4999Z" fill="#692C90"/>
<path d="M57.8251 97.8974C56.8761 101.96 54.9149 105.717 52.1238 108.819C49.3328 111.92 45.8026 114.265 41.8618 115.635C37.921 117.006 33.6976 117.357 29.5845 116.657C25.4713 115.957 21.6022 114.227 18.337 111.63C15.0718 109.032 12.5167 105.651 10.9093 101.801C9.30197 97.9506 8.69461 93.7563 9.14376 89.6082C9.5929 85.4602 11.084 81.4931 13.4782 78.0761C15.8725 74.6591 19.0921 71.9033 22.8376 70.0649C25.6831 73.2786 29.5265 75.4421 33.7501 76.2074C34.8654 76.396 35.9941 76.4939 37.1251 76.4999C40.781 76.5016 44.3596 75.4468 47.4301 73.4624C47.4076 73.7324 47.4076 73.9799 47.3851 74.2499H47.2501V78.0974C47.2531 79.5635 47.4807 81.0204 47.9251 82.4174C49.3165 88.5751 52.819 94.0516 57.8251 97.8974Z" fill="#9743C8"/>
<path d="M83.25 27V33.5925C83.2503 36.2725 82.7226 38.9264 81.6972 41.4025C80.6717 43.8785 79.1685 46.1284 77.2734 48.0234C75.3784 49.9185 73.1285 51.4217 70.6525 52.4472C68.1764 53.4726 65.5225 54.0003 62.8425 54H56.25V47.4075C56.2497 44.7275 56.7774 42.0736 57.8028 39.5975C58.8283 37.1215 60.3315 34.8716 62.2266 32.9766C64.1216 31.0815 66.3715 29.5783 68.8475 28.5528C71.3236 27.5274 73.9775 26.9997 76.6575 27H83.25Z" fill="#378E43"/>
<path d="M83.25 27V33.5925C83.2503 36.2725 82.7226 38.9264 81.6972 41.4025C80.6717 43.8785 79.1685 46.1284 77.2734 48.0234C75.3784 49.9185 73.1285 51.4217 70.6525 52.4472C68.1764 53.4726 65.5225 54.0003 62.8425 54H56.25L83.25 27Z" fill="#42A047"/>
<path d="M90 81H87.75V78.75C87.75 78.1533 87.5129 77.581 87.091 77.159C86.669 76.7371 86.0967 76.5 85.5 76.5C84.9033 76.5 84.331 76.7371 83.909 77.159C83.4871 77.581 83.25 78.1533 83.25 78.75V81H81C80.4033 81 79.831 81.2371 79.409 81.659C78.9871 82.081 78.75 82.6533 78.75 83.25C78.75 83.8467 78.9871 84.419 79.409 84.841C79.831 85.2629 80.4033 85.5 81 85.5H83.25V87.75C83.25 88.3467 83.4871 88.919 83.909 89.341C84.331 89.7629 84.9033 90 85.5 90C86.0967 90 86.669 89.7629 87.091 89.341C87.5129 88.919 87.75 88.3467 87.75 87.75V85.5H90C90.5967 85.5 91.169 85.2629 91.591 84.841C92.0129 84.419 92.25 83.8467 92.25 83.25C92.25 82.6533 92.0129 82.081 91.591 81.659C91.169 81.2371 90.5967 81 90 81Z" fill="#263238"/>
<path d="M27 96.75H24.75V94.5C24.75 93.9033 24.5129 93.331 24.091 92.909C23.669 92.4871 23.0967 92.25 22.5 92.25C21.9033 92.25 21.331 92.4871 20.909 92.909C20.4871 93.331 20.25 93.9033 20.25 94.5V96.75H18C17.4033 96.75 16.831 96.9871 16.409 97.409C15.9871 97.831 15.75 98.4033 15.75 99C15.75 99.5967 15.9871 100.169 16.409 100.591C16.831 101.013 17.4033 101.25 18 101.25H20.25V103.5C20.25 104.097 20.4871 104.669 20.909 105.091C21.331 105.513 21.9033 105.75 22.5 105.75C23.0967 105.75 23.669 105.513 24.091 105.091C24.5129 104.669 24.75 104.097 24.75 103.5V101.25H27C27.5967 101.25 28.169 101.013 28.591 100.591C29.0129 100.169 29.25 99.5967 29.25 99C29.25 98.4033 29.0129 97.831 28.591 97.409C28.169 96.9871 27.5967 96.75 27 96.75Z" fill="#263238"/>
<path d="M126 99H123.75V96.75C123.75 96.1533 123.513 95.581 123.091 95.159C122.669 94.7371 122.097 94.5 121.5 94.5C120.903 94.5 120.331 94.7371 119.909 95.159C119.487 95.581 119.25 96.1533 119.25 96.75V99H117C116.403 99 115.831 99.2371 115.409 99.659C114.987 100.081 114.75 100.653 114.75 101.25C114.75 101.847 114.987 102.419 115.409 102.841C115.831 103.263 116.403 103.5 117 103.5H119.25V105.75C119.25 106.347 119.487 106.919 119.909 107.341C120.331 107.763 120.903 108 121.5 108C122.097 108 122.669 107.763 123.091 107.341C123.513 106.919 123.75 106.347 123.75 105.75V103.5H126C126.597 103.5 127.169 103.263 127.591 102.841C128.013 102.419 128.25 101.847 128.25 101.25C128.25 100.653 128.013 100.081 127.591 99.659C127.169 99.2371 126.597 99 126 99Z" fill="#263238"/>
<path d="M135 60.75V64.3275C135 68.1526 133.48 71.821 130.776 74.5257C128.071 77.2305 124.403 78.75 120.578 78.75H117V75.1725C117 71.3474 118.52 67.679 121.224 64.9743C123.929 62.2695 127.597 60.75 131.422 60.75H135Z" fill="#378E43"/>
<path d="M135 60.75V64.3275C135 68.1526 133.48 71.821 130.776 74.5257C128.071 77.2305 124.403 78.75 120.578 78.75H117L135 60.75Z" fill="#42A047"/>
<path d="M117 73.125V78.75H111.375C107.496 78.75 103.776 77.2092 101.034 74.4664C98.2908 71.7237 96.75 68.0038 96.75 64.125V58.5H102.375C106.254 58.5 109.974 60.0408 112.716 62.7836C115.459 65.5263 117 69.2462 117 73.125Z" fill="#378E43"/>
<path d="M117 78.75H111.375C107.496 78.75 103.776 77.2092 101.034 74.4664C98.2908 71.7237 96.75 68.0038 96.75 64.125V58.5L117 78.75Z" fill="#42A047"/>
<path d="M65.25 88.4025V92.25H61.4025C59.5433 92.2523 57.702 91.8878 55.9839 91.1774C54.2657 90.467 52.7047 89.4246 51.39 88.11C50.0754 86.7954 49.033 85.2343 48.3226 83.5162C47.6122 81.7981 47.2477 79.9567 47.25 78.0975V74.25H51.0975C52.9567 74.2477 54.7981 74.6122 56.5162 75.3226C58.2343 76.033 59.7953 77.0754 61.11 78.39C62.4246 79.7047 63.467 81.2657 64.1774 82.9839C64.8878 84.702 65.2523 86.5433 65.25 88.4025Z" fill="#42A047"/>
<path d="M130.5 27V29.6325C130.501 32.2419 129.988 34.826 128.99 37.237C127.992 39.648 126.529 41.8387 124.684 43.6838C122.839 45.5289 120.648 46.9923 118.237 47.9903C115.826 48.9883 113.242 49.5013 110.632 49.5H108V46.8675C107.999 44.2581 108.512 41.674 109.51 39.263C110.508 36.852 111.971 34.6613 113.816 32.8162C115.661 30.9711 117.852 29.5077 120.263 28.5097C122.674 27.5118 125.258 26.9987 127.868 27H130.5Z" fill="#378E43"/>
<path d="M130.5 27V29.6325C130.501 32.2419 129.988 34.826 128.99 37.237C127.992 39.648 126.529 41.8387 124.684 43.6838C122.839 45.5289 120.648 46.9923 118.237 47.9903C115.826 48.9883 113.242 49.5013 110.632 49.5H108L130.5 27Z" fill="#42A047"/>
<path d="M101.25 46.08V49.5H97.83C96.3501 49.5 94.9308 48.9121 93.8843 47.8657C92.8379 46.8192 92.25 45.3999 92.25 43.92V40.5H95.67C97.1499 40.5 98.5692 41.0879 99.6157 42.1343C100.662 43.1808 101.25 44.6001 101.25 46.08Z" fill="#378E43"/>
<path d="M101.25 49.5H97.83C96.3501 49.5 94.9308 48.9121 93.8843 47.8657C92.8379 46.8192 92.25 45.3999 92.25 43.92V40.5L101.25 49.5Z" fill="#42A047"/>
</svg>
