<svg width="84" height="84" viewBox="0 0 84 84" fill="none" xmlns="http://www.w3.org/2000/svg">
<g clip-path="url(#clip0_477_59)">
<path d="M0.410156 42.0003C0.410156 53.0307 4.79197 63.6094 12.5916 71.409C20.3913 79.2087 30.9699 83.5905 42.0003 83.5905C53.0307 83.5905 63.6094 79.2087 71.409 71.409C79.2087 63.6094 83.5905 53.0307 83.5905 42.0003C83.5905 30.9699 79.2087 20.3913 71.409 12.5916C63.6094 4.79197 53.0307 0.410156 42.0003 0.410156C30.9699 0.410156 20.3913 4.79197 12.5916 12.5916C4.79197 20.3913 0.410156 30.9699 0.410156 42.0003Z" fill="#FFBC00"/>
<path d="M42.0004 83.9999C32.3109 83.994 22.9212 80.6389 15.4221 74.5029C7.92305 68.3668 2.77555 59.8272 0.851644 50.3306C-1.07226 40.834 0.345715 30.9642 4.86537 22.3934C9.38502 13.8225 16.7285 7.07742 25.6517 3.30079C35.9084 -0.996694 47.4506 -1.05216 57.7481 3.14654C68.0456 7.34524 76.2583 15.4555 80.5858 25.6996C84.9133 35.9436 85.0027 47.4856 80.8342 57.7954C76.6657 68.1051 68.5795 76.3416 58.3482 80.6991C53.1765 82.8882 47.6163 84.0109 42.0004 83.9999ZM42.0004 0.821427C19.2929 0.819545 0.819537 19.2929 0.819537 42.0004C0.819537 64.708 19.2929 83.1813 42.0004 83.1813C64.708 83.1813 83.1813 64.707 83.1813 42.0004C83.1813 19.2938 64.707 0.819545 42.0004 0.819545V0.821427Z" fill="#541018"/>
<path d="M3.41357 42.0003C3.41357 47.0676 4.41165 52.0852 6.35081 56.7668C8.28998 61.4484 11.1323 65.7021 14.7154 69.2852C18.2985 72.8683 22.5522 75.7106 27.2338 77.6498C31.9154 79.589 36.933 80.587 42.0003 80.587C47.0676 80.587 52.0852 79.589 56.7668 77.6498C61.4484 75.7106 65.7021 72.8683 69.2852 69.2852C72.8683 65.7021 75.7106 61.4484 77.6498 56.7668C79.589 52.0852 80.587 47.0676 80.587 42.0003C80.587 31.7665 76.5216 21.9518 69.2852 14.7154C62.0488 7.47895 52.2341 3.41357 42.0003 3.41357C31.7665 3.41357 21.9518 7.47895 14.7154 14.7154C7.47895 21.9518 3.41357 31.7665 3.41357 42.0003Z" fill="white"/>
<path d="M40.273 6.36174C31.9424 6.75519 24.0154 10.0652 17.8788 15.7127L40.273 38.1069V6.36174ZM38.1502 43.4674H6.34668C6.67992 51.8384 9.95981 59.8225 15.6073 66.0103L38.1502 43.4674ZM43.3865 6.34668V38.2311L66.0103 15.6073C59.8013 9.94239 51.7856 6.66127 43.3865 6.34668ZM38.1145 40.3548L15.6751 17.9155C10.031 24.0691 6.73323 32.0132 6.35985 40.3548H38.1145ZM45.6645 40.3548H77.6421C77.2653 31.9612 73.927 23.9725 68.2196 17.8063L45.6645 40.3548ZM45.6297 43.4674L68.2874 66.1251C73.9965 59.9219 77.3148 51.8913 77.6497 43.4674H45.6297ZM40.273 45.752L17.8016 68.2196C23.9482 73.909 31.9067 77.2448 40.273 77.6384V45.752ZM43.3865 45.6269V77.6497C51.8189 77.3341 59.8641 74.0288 66.0828 68.325L43.3865 45.6269Z" fill="#FCDD26"/>
<path d="M55.7324 36.4655C55.7755 36.6015 55.9173 36.7048 56.1497 36.7694C56.3821 36.834 56.7005 36.8586 57.0867 36.8419C57.4729 36.8252 57.9194 36.7675 58.4007 36.672C58.8819 36.5766 59.3885 36.4452 59.8916 36.2856C60.3946 36.1259 60.8842 35.941 61.3324 35.7414C61.7807 35.5419 62.1787 35.3315 62.5039 35.1224C62.829 34.9133 63.0749 34.7096 63.2275 34.5228C63.3801 34.336 63.4364 34.1699 63.3932 34.0338C63.35 33.8978 63.2082 33.7945 62.9758 33.7299C62.7435 33.6654 62.4251 33.6407 62.0389 33.6574C61.6526 33.6741 61.2061 33.7318 60.7249 33.8273C60.2436 33.9228 59.737 34.0541 59.234 34.2137C58.7309 34.3734 58.2413 34.5583 57.7931 34.7579C57.3449 34.9575 56.9468 35.1678 56.6217 35.3769C56.2965 35.586 56.0506 35.7897 55.898 35.9765C55.7454 36.1633 55.6892 36.3294 55.7324 36.4655Z" fill="white"/>
<path d="M47.6735 28.2399C47.9354 28.3603 48.3635 28.0912 48.8636 27.4917C49.3636 26.8921 49.8948 26.0113 50.3402 25.043C50.7856 24.0747 51.1087 23.0982 51.2384 22.3283C51.3682 21.5584 51.294 21.0583 51.0321 20.9378C50.7703 20.8174 50.3422 21.0865 49.8421 21.6861C49.342 22.2856 48.8109 23.1664 48.3655 24.1347C47.9201 25.103 47.597 26.0796 47.4672 26.8494C47.3375 27.6193 47.4117 28.1195 47.6735 28.2399Z" fill="white"/>
<path d="M33.5858 24.6594C33.7839 25.1486 34.0061 25.6225 34.2398 26.0539C34.4735 26.4854 34.714 26.866 34.9477 27.1741C35.1813 27.4821 35.4035 27.7115 35.6016 27.8492C35.7996 27.987 35.9696 28.0303 36.1019 27.9767C36.2342 27.9231 36.3262 27.7737 36.3726 27.537C36.419 27.3002 36.4189 26.9808 36.3723 26.597C36.3257 26.2132 36.2336 25.7725 36.1011 25.3C35.9687 24.8276 35.7985 24.3326 35.6003 23.8434C35.4022 23.3542 35.18 22.8804 34.9463 22.4489C34.7126 22.0175 34.4721 21.6368 34.2384 21.3288C34.0048 21.0208 33.7826 20.7913 33.5845 20.6536C33.3865 20.5159 33.2165 20.4726 33.0842 20.5262C32.9519 20.5798 32.8599 20.7292 32.8135 20.9659C32.7671 21.2026 32.7672 21.522 32.8138 21.9058C32.8604 22.2896 32.9525 22.7304 33.085 23.2028C33.2174 23.6753 33.3876 24.1702 33.5858 24.6594Z" fill="white"/>
<path d="M59.0708 50.1326C59.5737 50.2929 60.0801 50.4248 60.5613 50.5209C61.0424 50.6169 61.4888 50.6752 61.875 50.6924C62.2613 50.7096 62.5797 50.6854 62.8122 50.6211C63.0446 50.5568 63.1866 50.4537 63.23 50.3177C63.2733 50.1817 63.2172 50.0155 63.0648 49.8285C62.9124 49.6416 62.6667 49.4375 62.3418 49.228C62.0169 49.0185 61.6191 48.8077 61.1711 48.6076C60.7232 48.4075 60.2338 48.222 59.7309 48.0617C59.2281 47.9014 58.7217 47.7695 58.2405 47.6735C57.7594 47.5774 57.3129 47.5191 56.9267 47.5019C56.5405 47.4848 56.2221 47.509 55.9896 47.5733C55.7571 47.6376 55.6152 47.7407 55.5718 47.8766C55.5285 48.0126 55.5846 48.1788 55.737 48.3658C55.8894 48.5528 56.135 48.7568 56.4599 48.9663C56.7849 49.1758 57.1827 49.3866 57.6306 49.5867C58.0786 49.7869 58.568 49.9723 59.0708 50.1326Z" fill="white"/>
<path d="M48.0512 60.0005C48.4859 60.9737 49.0073 61.8603 49.5008 62.4653C49.9943 63.0703 50.4193 63.3442 50.6825 63.2266C50.9457 63.109 51.0254 62.6097 50.9041 61.8385C50.7828 61.0672 50.4704 60.0872 50.0357 59.1141C49.601 58.1409 49.0796 57.2543 48.5861 56.6493C48.0927 56.0443 47.6676 55.7705 47.4044 55.888C47.1412 56.0056 47.0615 56.5049 47.1828 57.2761C47.3041 58.0474 47.6165 59.0274 48.0512 60.0005Z" fill="white"/>
<path d="M33.1526 63.2632C33.283 63.3211 33.4544 63.2834 33.6568 63.1523C33.8592 63.0212 34.0888 62.7992 34.3323 62.4989C34.5759 62.1987 34.8287 61.8262 35.0763 61.4026C35.324 60.9791 35.5616 60.5127 35.7756 60.0303C35.9896 59.5478 36.1758 59.0587 36.3235 58.5908C36.4713 58.123 36.5778 57.6855 36.6368 57.3035C36.6959 56.9214 36.7064 56.6023 36.6677 56.3642C36.629 56.1261 36.542 55.9738 36.4115 55.916C36.281 55.8581 36.1097 55.8958 35.9073 56.0269C35.7049 56.158 35.4753 56.38 35.2317 56.6802C34.9882 56.9804 34.7354 57.353 34.4877 57.7766C34.2401 58.2001 34.0025 58.6665 33.7885 59.1489C33.5745 59.6314 33.3883 60.1205 33.2405 60.5883C33.0928 61.0562 32.9863 61.4937 32.9273 61.8757C32.8682 62.2578 32.8577 62.5769 32.8964 62.815C32.935 63.0531 33.0221 63.2053 33.1526 63.2632Z" fill="white"/>
<path d="M20.0676 49.2039C20.0951 49.344 20.2243 49.4626 20.4479 49.553C20.6715 49.6434 20.9851 49.7039 21.3707 49.7309C21.7564 49.7579 22.2065 49.7509 22.6955 49.7104C23.1845 49.6698 23.7027 49.5965 24.2206 49.4946C24.7384 49.3928 25.2458 49.2643 25.7137 49.1166C26.1816 48.9689 26.6008 48.8048 26.9475 48.6337C27.2942 48.4626 27.5615 48.2879 27.7342 48.1196C27.9069 47.9512 27.9815 47.7925 27.9539 47.6524C27.9264 47.5124 27.7972 47.3937 27.5736 47.3033C27.35 47.2129 27.0364 47.1525 26.6508 47.1255C26.2652 47.0985 25.815 47.1055 25.326 47.146C24.837 47.1865 24.3188 47.2598 23.8009 47.3617C23.2831 47.4636 22.7757 47.5921 22.3078 47.7398C21.8399 47.8875 21.4207 48.0516 21.074 48.2227C20.7273 48.3937 20.46 48.5684 20.2873 48.7368C20.1147 48.9052 20.04 49.0639 20.0676 49.2039Z" fill="white"/>
<path d="M23.75 36.2889C24.2529 36.4492 24.7593 36.5811 25.2405 36.6771C25.7216 36.7732 26.168 36.8315 26.5542 36.8487C26.9405 36.8658 27.2589 36.8416 27.4914 36.7773C27.7238 36.713 27.8658 36.6099 27.9092 36.474C27.9525 36.338 27.8964 36.1718 27.744 35.9848C27.5916 35.7978 27.3459 35.5938 27.021 35.3843C26.6961 35.1748 26.2983 34.964 25.8503 34.7639C25.4024 34.5637 24.913 34.3783 24.4101 34.218C23.9073 34.0577 23.4009 33.9258 22.9197 33.8297C22.4386 33.7337 21.9921 33.6754 21.6059 33.6582C21.2197 33.641 20.9013 33.6652 20.6688 33.7295C20.4363 33.7938 20.2944 33.8969 20.251 34.0329C20.2077 34.1689 20.2638 34.3351 20.4162 34.5221C20.5686 34.709 20.8142 34.9131 21.1391 35.1226C21.4641 35.3321 21.8619 35.5429 22.3098 35.743C22.7578 35.9431 23.2472 36.1286 23.75 36.2889Z" fill="white"/>
<path d="M36.6514 41.9347C36.6514 43.3118 37.1984 44.6324 38.1721 45.6061C39.1458 46.5798 40.4664 47.1268 41.8434 47.1268C43.2205 47.1268 44.5411 46.5798 45.5148 45.6061C46.4885 44.6324 47.0355 43.3118 47.0355 41.9347C47.0355 40.5577 46.4885 39.2371 45.5148 38.2634C44.5411 37.2897 43.2205 36.7427 41.8434 36.7427C40.4664 36.7427 39.1458 37.2897 38.1721 38.2634C37.1984 39.2371 36.6514 40.5577 36.6514 41.9347Z" fill="white"/>
</g>
<defs>
<clipPath id="clip0_477_59">
<rect width="84" height="84" fill="white"/>
</clipPath>
</defs>
</svg>
