<svg width="118" height="118" viewBox="0 0 118 118" fill="none" xmlns="http://www.w3.org/2000/svg">
<path d="M47.3925 1.8984C32.3086 4.90068 19.0351 13.7721 10.4921 26.5609C1.94902 39.3498 -1.16373 55.0086 1.83854 70.0925C4.84082 85.1765 13.7122 98.45 26.5011 106.993C39.29 115.536 54.9488 118.649 70.0327 115.646C85.1166 112.644 98.3901 103.773 106.933 90.984C115.476 78.1951 118.589 62.5363 115.587 47.4524C112.584 32.3684 103.713 19.0949 90.9241 10.5519C78.1352 2.00889 62.4764 -1.10387 47.3925 1.8984Z" fill="#FFBC00"/>
<path d="M1.27882 70.204C-1.35044 56.952 0.681984 43.1986 7.0318 31.2736C13.3816 19.3485 23.6584 9.98507 36.1212 4.76935C48.5841 -0.446375 62.4668 -1.19367 75.4175 2.65406C88.3682 6.50179 99.5908 14.708 107.184 25.8825C115.852 38.7387 119.07 54.5073 116.131 69.7319C113.192 84.9564 104.337 98.3946 91.506 107.101C78.6753 115.807 62.9161 119.07 47.683 116.176C32.4499 113.282 18.9859 104.466 10.2422 91.6609C5.84104 85.1846 2.79239 77.8865 1.27882 70.204ZM115.024 47.5643C108.846 16.5115 78.5562 -3.72245 47.5039 2.45812C16.4516 8.6387 -3.78233 38.9289 2.39826 69.9811C8.57883 101.033 38.8703 121.267 69.9213 115.087C100.972 108.906 121.207 78.6148 115.027 47.5638L115.024 47.5643Z" fill="#541018"/>
<path d="M48.21 6.0056C41.2805 7.38482 34.6906 10.1154 28.8164 14.0414C22.9423 17.9674 17.8989 23.012 13.9743 28.8871C10.0497 34.7622 7.32074 41.3528 5.9432 48.2826C4.56564 55.2124 4.56651 62.3456 5.94573 69.2751C7.32496 76.2045 10.0555 82.7944 13.9815 88.6686C17.9076 94.5428 22.9521 99.5861 28.8272 103.511C34.7024 107.435 41.293 110.164 48.2227 111.542C55.1525 112.919 62.2858 112.919 69.2152 111.539C83.2098 108.754 95.5248 100.523 103.451 88.6578C111.377 76.7925 114.265 62.2645 111.479 48.2698C108.694 34.2752 100.463 21.9603 88.5979 14.0342C76.7326 6.1081 62.2046 3.22013 48.21 6.0056Z" fill="white"/>
<path d="M106.978 46.7098C104.172 35.425 97.4885 25.4858 88.0953 18.6312L63.5668 55.3503L106.978 46.7098ZM55.6586 53.9065L47.0023 10.4156C35.6458 13.1497 25.6204 19.808 18.6958 29.2152L55.6586 53.9065ZM107.846 50.9635L64.2444 59.6418L101.34 84.4218C107.397 74.3892 109.702 62.5347 107.846 50.9635ZM59.9053 53.0104L84.4833 16.2173C74.532 10.174 62.7711 7.82651 51.2623 9.58637L59.9053 53.0104ZM61.9603 63.335L70.6641 107.064C82.0397 104.264 92.0555 97.5246 98.9342 88.0415L61.9603 63.335ZM57.6944 64.1346L32.8773 101.286C42.914 107.404 54.7989 109.756 66.4096 107.921L57.6944 64.1346ZM53.1122 57.4311L16.2718 32.8171C10.1645 42.771 7.7691 54.5621 9.50808 66.11L53.1122 57.4311ZM54.1308 61.6548L10.3401 70.3708C13.0668 81.8162 19.7764 91.9181 29.2689 98.8697L54.1308 61.6548Z" fill="#FCDD26"/>
<path d="M70.0193 76.044C69.845 76.1401 69.7424 76.3621 69.7173 76.6975C69.6922 77.0328 69.7452 77.4749 69.8731 77.9985C70.0011 78.5221 70.2016 79.117 70.4631 79.7491C70.7246 80.3813 71.0421 81.0383 71.3974 81.6828C71.7526 82.3272 72.1387 82.9464 72.5336 83.505C72.9286 84.0636 73.3245 84.5507 73.699 84.9384C74.0734 85.3262 74.419 85.607 74.7159 85.7648C75.0129 85.9226 75.2554 85.9544 75.4296 85.8583C75.6039 85.7622 75.7065 85.5402 75.7316 85.2048C75.7567 84.8695 75.7037 84.4274 75.5758 83.9038C75.4478 83.3802 75.2473 82.7853 74.9858 82.1532C74.7243 81.521 74.4068 80.864 74.0516 80.2195C73.6963 79.5751 73.3102 78.9559 72.9153 78.3973C72.5204 77.8387 72.1244 77.3516 71.75 76.9639C71.3755 76.5761 71.03 76.2953 70.733 76.1375C70.4361 75.9797 70.1935 75.9479 70.0193 76.044Z" fill="white"/>
<path d="M79.0739 62.7853C78.9804 63.1761 79.465 63.6882 80.421 64.2089C81.377 64.7296 82.726 65.2162 84.1714 65.5617C85.6168 65.9072 87.0401 66.0833 88.1282 66.0512C89.2163 66.0191 89.8801 65.7815 89.9735 65.3906C90.067 64.9997 89.5824 64.4876 88.6264 63.9669C87.6704 63.4462 86.3214 62.9596 84.876 62.6141C83.4306 62.2687 82.0073 62.0926 80.9192 62.1247C79.8311 62.1568 79.1673 62.3944 79.0739 62.7853Z" fill="white"/>
<path d="M80.1359 42.5453C79.5209 42.9493 78.9334 43.3822 78.407 43.8192C77.8806 44.2562 77.4255 44.6887 77.0679 45.0921C76.7102 45.4954 76.457 45.8617 76.3226 46.1701C76.1882 46.4784 76.1752 46.7227 76.2845 46.889C76.3938 47.0553 76.6231 47.1404 76.9595 47.1394C77.2958 47.1384 77.7325 47.0513 78.2447 46.8832C78.7569 46.715 79.3345 46.469 79.9445 46.1593C80.5546 45.8496 81.1851 45.4822 81.8001 45.0781C82.4152 44.674 83.0027 44.2411 83.5291 43.8041C84.0555 43.3671 84.5105 42.9346 84.8682 42.5312C85.2258 42.1279 85.4791 41.7616 85.6135 41.4533C85.7479 41.145 85.7608 40.9007 85.6516 40.7343C85.5423 40.568 85.3129 40.4829 84.9766 40.4839C84.6403 40.4849 84.2035 40.572 83.6913 40.7402C83.1792 40.9083 82.6016 41.1543 81.9915 41.464C81.3815 41.7737 80.751 42.1411 80.1359 42.5453Z" fill="white"/>
<path d="M52.2381 84.3293C52.1557 85.0606 52.1132 85.789 52.1128 86.4732C52.1124 87.1573 52.1542 87.7836 52.2358 88.3164C52.3174 88.8492 52.4373 89.2781 52.5884 89.5785C52.7396 89.8789 52.9192 90.045 53.117 90.0673C53.3147 90.0895 53.5268 89.9675 53.741 89.7083C53.9552 89.449 54.1673 89.0575 54.3654 88.5562C54.5634 88.0548 54.7434 87.4535 54.8952 86.7864C55.0469 86.1193 55.1673 85.3996 55.2496 84.6684C55.332 83.9371 55.3745 83.2086 55.3749 82.5245C55.3753 81.8404 55.3335 81.2141 55.2519 80.6813C55.1703 80.1485 55.0505 79.7196 54.8993 79.4192C54.7481 79.1188 54.5685 78.9527 54.3707 78.9304C54.173 78.9082 53.9609 79.0302 53.7467 79.2894C53.5326 79.5487 53.3204 79.9402 53.1223 80.4415C52.9243 80.9429 52.7443 81.5442 52.5926 82.2113C52.4408 82.8784 52.3204 83.5981 52.2381 84.3293Z" fill="white"/>
<path d="M35.7442 71.946C34.5318 72.8054 33.4613 73.7597 32.7683 74.5992C32.0753 75.4387 31.8165 76.0945 32.0489 76.4224C32.2813 76.7503 32.9858 76.7234 34.0074 76.3476C35.0291 75.9718 36.2842 75.2779 37.4967 74.4186C38.7091 73.5593 39.7796 72.6049 40.4726 71.7654C41.1657 70.9259 41.4244 70.2701 41.192 69.9422C40.9597 69.6144 40.2551 69.6413 39.2335 70.017C38.2118 70.3928 36.9567 71.0867 35.7442 71.946Z" fill="white"/>
<path d="M27.2276 52.4605C27.1839 52.6547 27.282 52.8787 27.5164 53.1198C27.7508 53.3609 28.1169 53.6144 28.5937 53.8658C29.0706 54.1172 29.6488 54.3615 30.2954 54.5848C30.9421 54.8082 31.6444 55.0062 32.3624 55.1675C33.0804 55.3288 33.8 55.4503 34.48 55.525C35.16 55.5998 35.7872 55.6263 36.3257 55.603C36.8642 55.5798 37.3035 55.5073 37.6186 55.3896C37.9336 55.2719 38.1181 55.1114 38.1617 54.9172C38.2054 54.7231 38.1072 54.4991 37.8728 54.258C37.6384 54.0168 37.2724 53.7634 36.7955 53.512C36.3187 53.2606 35.7405 53.0163 35.0938 52.7929C34.4472 52.5696 33.7448 52.3716 33.0269 52.2103C32.3089 52.049 31.5893 51.9275 30.9093 51.8527C30.2293 51.778 29.6021 51.7515 29.0636 51.7747C28.525 51.798 28.0857 51.8705 27.7707 51.9882C27.4557 52.1058 27.2711 52.2664 27.2276 52.4605Z" fill="white"/>
<path d="M42.892 30.7403C42.7079 30.816 42.5809 31.025 42.5181 31.3554C42.4553 31.6857 42.458 32.131 42.5261 32.6657C42.5941 33.2004 42.7262 33.8141 42.9147 34.4718C43.1032 35.1294 43.3445 35.8181 43.6248 36.4985C43.9051 37.179 44.2188 37.8378 44.5482 38.4375C44.8776 39.0371 45.216 39.5658 45.5443 39.9933C45.8726 40.4208 46.1843 40.7388 46.4615 40.9291C46.7388 41.1194 46.9762 41.1783 47.1601 41.1024C47.3442 41.0267 47.4712 40.8177 47.534 40.4873C47.5968 40.157 47.5941 39.7117 47.526 39.177C47.458 38.6423 47.3259 38.0286 47.1374 37.371C46.9489 36.7133 46.7076 36.0246 46.4273 35.3442C46.1471 34.6637 45.8333 34.0049 45.5039 33.4053C45.1746 32.8056 44.8361 32.277 44.5078 31.8494C44.1795 31.4219 43.8678 31.1039 43.5906 30.9136C43.3133 30.7233 43.0759 30.6644 42.892 30.7403Z" fill="white"/>
<path d="M61.5559 32.2604C61.4736 32.9917 61.431 33.7202 61.4306 34.4043C61.4302 35.0884 61.472 35.7147 61.5537 36.2475C61.6353 36.7804 61.7551 37.2092 61.9063 37.5096C62.0575 37.81 62.2371 37.9761 62.4348 37.9984C62.6326 38.0206 62.8446 37.8986 63.0588 37.6394C63.273 37.3801 63.4852 36.9886 63.6832 36.4873C63.8813 35.9859 64.0613 35.3846 64.213 34.7175C64.3647 34.0504 64.4852 33.3307 64.5675 32.5995C64.6498 31.8682 64.6924 31.1398 64.6928 30.4557C64.6932 29.7715 64.6514 29.1452 64.5697 28.6124C64.4881 28.0796 64.3683 27.6507 64.2171 27.3503C64.0659 27.0499 63.8863 26.8838 63.6886 26.8615C63.4908 26.8393 63.2788 26.9613 63.0646 27.2205C62.8504 27.4798 62.6382 27.8713 62.4402 28.3726C62.2422 28.874 62.0621 29.4754 61.9104 30.1424C61.7587 30.8095 61.6382 31.5292 61.5559 32.2604Z" fill="white"/>
<path d="M57.3467 51.4396C55.4636 51.8144 53.8066 52.9219 52.7401 54.5184C51.6736 56.115 51.285 58.0698 51.6598 59.9528C52.0346 61.8359 53.1421 63.4929 54.7386 64.5594C56.3352 65.6259 58.29 66.0145 60.1731 65.6397C62.0561 65.2649 63.7132 64.1575 64.7797 62.5609C65.8462 60.9644 66.2348 59.0095 65.86 57.1265C65.4852 55.2434 64.3777 53.5864 62.7811 52.5199C61.1846 51.4534 59.2298 51.0648 57.3467 51.4396Z" fill="white"/>
</svg>
