<svg width="380" height="103" viewBox="0 0 380 103" fill="none" xmlns="http://www.w3.org/2000/svg">
<path d="M0 44.7113V0H9.7038V16.0961H18.6073V0H28.3111V44.7113H18.6073V27.3377H9.7038V44.7113H0ZM33.0129 44.7113V33.9806H50.8198V27.5294L32.5127 25.4215V8.17577L38.9152 0H60.0234V10.7307H42.2165V16.5432L60.5236 18.651V36.5355L54.1211 44.7113H33.0129ZM64.7253 44.7113V0H89.5349V10.2197H74.429V17.118H87.034V26.8268H74.429V34.4915H90.0351V44.7113H64.7253ZM104.941 44.7113L112.144 0H129.851L137.054 44.7113H126.75L125.549 35.769H116.445L115.245 44.7113H104.941ZM117.546 27.0823H124.449L122.148 9.70873H119.847L117.546 27.0823ZM149.358 23.2499H158.862V9.70873H149.358V23.2499ZM168.566 8.68676V23.8886L164.314 29.3178L170.317 44.7113H159.412L155.361 32.9586H149.358V44.7113H139.655V0H161.763L168.566 8.68676ZM179.92 44.7113V10.7307H171.367V0H198.178V10.7307H189.624V44.7113H179.92ZM212.583 44.7113L219.786 0H237.493L244.696 44.7113H234.392L233.191 35.769H224.088L222.887 44.7113H212.583ZM225.188 27.0823H232.091L229.79 9.70873H227.489L225.188 27.0823ZM247.297 44.7113V0H255.8L268.005 25.2299V0H276.908V44.7113H268.405L256.2 19.4813V44.7113H247.297ZM291.014 33.9806H299.167V10.7307H291.014V33.9806ZM281.31 44.7113V0H302.068L308.871 8.68676V36.0245L302.068 44.7113H281.31Z" fill="white"/>
<path d="M9.70379 91.2644H17.857V68.0145H9.70379V91.2644ZM0 101.995V57.2838H20.7581L27.5608 65.9706V93.3083L20.7581 101.995H0ZM31.7624 101.995V57.2838H56.5721V67.5035H41.4662V74.4018H54.0712V84.1106H41.4662V91.7754H57.0723V101.995H31.7624ZM61.0739 101.995V91.2644H78.8808V84.8132L60.5737 82.7054V65.4596L66.9762 57.2838H88.0844V68.0145H70.2775V73.827L88.5846 75.9348V93.8193L82.1821 101.995H61.0739ZM92.8363 102.251V92.7973L96.4877 92.478V66.8009L92.8363 66.4816V57.0283L101.34 57.5393L109.843 57.0283V66.4816L106.191 66.8009V92.478L109.843 92.7973V102.251L101.34 101.74L92.8363 102.251ZM114.095 93.3083V65.9706L120.897 57.2838H139.905V68.0145H123.798V91.2644H133.752V84.3022H127.6V74.5935H142.206V101.995H120.897L114.095 93.3083ZM146.407 101.995V57.2838H154.911L167.115 82.5137V57.2838H176.019V101.995H167.516L155.311 76.7651V101.995H146.407ZM193.726 101.995V91.2644H211.533V84.8132L193.226 82.7054V65.4596L199.628 57.2838H220.736V68.0145H202.929V73.827L221.237 75.9348V93.8193L214.834 101.995H193.726ZM225.238 93.3083V65.9706L232.041 57.2838H249.348V68.5255H235.342V90.7534H249.848V101.995H232.041L225.238 93.3083ZM253.349 101.995V57.2838H263.053V73.3799H271.956V57.2838H281.66V101.995H271.956V84.6216H263.053V101.995H253.349ZM285.862 93.3083V65.9706L292.664 57.2838H309.071L315.874 65.9706V93.3083L309.071 101.995H292.664L285.862 93.3083ZM295.966 68.0145V91.2644H305.77V68.0145H295.966ZM319.875 93.3083V65.9706L326.678 57.2838H343.084L349.887 65.9706V93.3083L343.084 101.995H326.678L319.875 93.3083ZM329.979 68.0145V91.2644H339.783V68.0145H329.979ZM354.088 101.995V57.2838H363.792V91.7754H370.745V84.1106H379.198V101.995H354.088Z" fill="white"/>
</svg>
