<svg width="870" height="594" viewBox="0 0 870 594" fill="none" xmlns="http://www.w3.org/2000/svg">
<path d="M380.464 323.941L380.496 323.937L380.494 323.927L380.494 323.927L380.494 323.924L380.492 323.915L380.487 323.878L380.465 323.732C380.446 323.605 380.418 323.416 380.381 323.171C380.306 322.682 380.196 321.97 380.055 321.078C379.772 319.295 379.363 316.792 378.857 313.914C377.847 308.161 376.449 300.898 374.904 294.881C374.408 292.949 373.987 291.304 373.617 289.858C371.69 282.323 371.139 280.166 368.48 270.863C367.049 265.854 366.52 264.683 365.978 263.485C365.95 263.423 365.921 263.361 365.893 263.298C365.346 262.083 364.729 260.612 362.981 254.371C362.179 251.506 361.024 249.547 359.504 248.382C357.97 247.205 356.136 246.891 354.101 247.168C352.08 247.444 349.829 248.307 347.403 249.522C344.972 250.74 342.332 252.329 339.53 254.082C334.626 257.147 330.867 259.846 327.2 262.479C326.863 262.721 326.527 262.962 326.191 263.203C322.197 266.066 318.193 268.887 312.791 272.075C307.735 275.058 303.538 278.331 299.559 281.433C297.775 282.824 296.035 284.181 294.282 285.462C288.597 289.614 282.691 293.04 274.456 294.514C271.75 294.998 269.383 295.547 267.192 296.075C266.834 296.161 266.481 296.246 266.133 296.331C264.341 296.764 262.66 297.172 260.975 297.506C256.968 298.302 252.965 298.68 247.61 297.972C241.211 297.125 236.061 295.295 230.975 293.1C229.264 292.361 227.553 291.577 225.801 290.775C222.364 289.201 218.771 287.555 214.719 286.04C206.439 282.943 205.796 282.779 198.153 280.825C197.685 280.706 197.191 280.58 196.668 280.446C184.319 277.285 175.44 279.226 164.145 281.694C162.163 282.128 160.107 282.577 157.944 283.018C150.09 284.62 143.91 286.599 137.886 288.529C137.321 288.71 136.758 288.89 136.194 289.07C129.622 291.166 123.056 293.158 114.466 294.512C97.4341 297.197 84.3727 292.998 69.0684 288.078C65.4287 286.908 61.6621 285.697 57.6851 284.528C53.8861 283.412 50.1307 282.608 46.5368 281.838C46.2777 281.783 46.0195 281.728 45.7622 281.672C41.9264 280.849 38.2912 280.044 34.9519 278.911C28.2987 276.652 22.8596 273.106 19.5005 265.555C16.607 259.05 17.1883 253.389 19.3208 247.717C20.391 244.871 21.851 242.025 23.464 239.067C23.937 238.199 24.4237 237.321 24.9171 236.431C26.101 234.295 27.3239 232.088 28.4897 229.79C29.9179 226.975 31.1426 223.993 32.3353 221.09C32.4643 220.776 32.5929 220.463 32.7214 220.151C34.0418 216.945 35.345 213.869 36.8784 211.199C38.4111 208.531 40.1563 206.301 42.3425 204.767C44.5183 203.24 47.1591 202.384 50.5267 202.505C53.5077 202.613 56.0188 202.527 58.2499 202.444L58.4903 202.435C60.6267 202.355 62.4922 202.286 64.2946 202.396C67.9951 202.622 71.4473 203.607 76.2606 206.92C80.2988 209.7 83.6628 212.916 86.9896 216.098C88.0275 217.09 89.0618 218.079 90.1118 219.051C94.5108 223.12 99.1539 226.84 105.382 228.981C108.981 230.218 112.008 231.46 114.768 232.628C115.315 232.86 115.853 233.089 116.382 233.315C118.519 234.226 120.531 235.084 122.558 235.841C127.637 237.738 132.831 239.008 140.544 239.008C148.253 239.008 152.443 237.924 156.844 236.112C158.17 235.566 159.503 234.96 160.952 234.302C164.306 232.778 168.279 230.972 174.203 228.982C178.118 227.667 181.533 226.313 184.778 225.026C185.916 224.574 187.033 224.131 188.144 223.701C192.429 222.041 196.639 220.563 201.648 219.497C213.192 217.041 221.173 221.392 228.707 226.471C229.635 227.097 230.558 227.735 231.481 228.373C238.016 232.893 244.556 237.417 253.039 237.508C254.307 237.522 255.528 237.536 256.71 237.551C269.641 237.709 277.891 237.81 291.626 235.524C298.535 234.374 303.263 232.677 307.571 230.081C311.862 227.495 315.718 224.024 320.879 219.38C335.921 205.841 340.198 199.804 352.457 181.789C357.026 175.076 358.5 168.587 358.793 161.779C358.939 158.383 358.79 154.906 358.587 151.29C358.547 150.577 358.505 149.859 358.462 149.135C358.288 146.18 358.109 143.124 358.044 139.92C357.935 134.532 356.686 129.452 355.097 124.623C354.303 122.208 353.422 119.851 352.556 117.549L352.381 117.085C351.574 114.942 350.785 112.848 350.09 110.786C348.599 106.365 347.557 102.142 347.699 98.0173C347.84 93.9099 349.157 89.8745 352.433 85.8231C355.975 81.4421 362.771 78.7643 370.813 77.4817C378.829 76.2031 387.971 76.3286 396.072 77.4545C404.194 78.5831 411.184 80.7055 414.95 83.3618C416.838 84.6934 417.807 86.0805 417.851 87.4527C417.893 88.8158 417.028 90.3847 414.703 92.0979C406.345 98.257 402.321 103.027 399.939 108.33C398.753 110.973 397.982 113.73 397.278 116.823C396.954 118.247 396.643 119.747 396.313 121.341L396.227 121.755C395.863 123.506 395.473 125.373 395.012 127.389C393.014 136.131 391.771 140.347 390.038 144.495C389.04 146.883 387.885 149.239 386.327 152.413C385.16 154.792 383.768 157.631 382.047 161.287C377.689 170.548 376.531 180.773 377.618 188.699C378.161 192.66 379.27 196.081 380.851 198.527C382.432 200.974 384.532 202.506 387.044 202.506C392.139 202.506 395.468 204.397 398.436 207.128C399.872 208.45 401.217 209.963 402.643 211.567L402.82 211.766C404.306 213.437 405.88 215.193 407.705 216.876C414.412 223.059 416.489 226.192 419.992 231.478C421.259 233.388 422.711 235.579 424.636 238.297C426.777 241.32 429.104 244.033 431.415 246.122C433.717 248.202 436.043 249.697 438.183 250.222C439.26 250.487 440.306 250.509 441.28 250.22C442.257 249.93 443.128 249.335 443.864 248.422C445.321 246.616 446.255 243.558 446.543 239.04C446.728 236.142 447.488 234.651 448.511 234.011C449.535 233.37 451.029 233.454 453.023 234.248C454.994 235.033 457.314 236.457 459.867 238.257C462.416 240.054 465.168 242.205 468.005 244.428L468.263 244.629C473.842 249.001 479.744 253.625 484.936 256.218C487.571 257.535 490.079 258.357 492.304 258.325C494.565 258.293 496.511 257.376 497.955 255.291C498.862 253.981 499.724 252.694 500.569 251.433C503.948 246.391 507.04 241.777 511.487 237.933C517.016 233.154 524.664 229.558 537.604 228.004C545.787 227.022 554.39 220.861 560.928 212.841C567.47 204.815 572.039 194.812 572.044 186.008C572.049 177.06 568.752 168.676 565.651 160.788C565.159 159.536 564.671 158.296 564.203 157.069C560.761 148.05 558.344 139.716 562 131.635C563.136 129.124 564.826 127.606 566.872 126.787C568.935 125.961 571.399 125.832 574.088 126.18C579.476 126.878 585.6 129.469 590.835 131.883C591.562 132.219 592.708 132.389 594.058 132.474C595.429 132.561 597.086 132.564 598.883 132.527C600.553 132.492 602.354 132.423 604.172 132.354L604.59 132.338C606.551 132.262 608.521 132.19 610.369 132.161C612.218 132.132 613.935 132.148 615.388 132.249C616.853 132.35 618.005 132.535 618.75 132.823C619.124 132.967 619.347 133.12 619.465 133.259C619.566 133.376 619.6 133.491 619.572 133.648C619.539 133.833 619.413 134.103 619.102 134.47C618.795 134.831 618.337 135.253 617.697 135.741C614.453 138.212 611.682 142.438 609.422 147.679C607.158 152.929 605.385 159.246 604.166 165.955C601.73 179.367 601.493 194.416 604.012 205.747C605.462 212.273 605.961 220.575 606.096 227.266C606.163 230.607 606.139 233.538 606.098 235.634C606.078 236.682 606.053 237.52 606.034 238.097C606.029 238.24 606.025 238.367 606.02 238.477C606.016 238.588 606.013 238.682 606.01 238.758L606.003 238.928L606.001 238.965L606.001 238.971L605.996 239.01L605.986 239.091L605.974 239.191C605.954 239.351 605.924 239.588 605.883 239.894C605.801 240.508 605.677 241.402 605.505 242.52C605.163 244.758 604.633 247.893 603.885 251.485C602.388 258.676 600.023 267.662 596.549 274.923C593.099 282.134 589.185 285.554 583.609 288.037C580.799 289.288 577.562 290.302 573.725 291.436C573.031 291.641 572.318 291.85 571.584 292.064C568.27 293.034 564.546 294.124 560.342 295.526C550.012 298.969 537.212 306.99 525.204 316.025C513.186 325.067 501.915 335.162 494.638 342.794C486.65 351.171 483.268 355.017 481.276 357.281C480.711 357.924 480.258 358.44 479.843 358.895C478.164 360.739 477.114 361.607 471.592 366.173C471.007 366.656 470.372 367.181 469.681 367.754C462.9 373.366 461.557 374.955 460.78 375.875C460.724 375.941 460.672 376.003 460.62 376.063C459.931 376.867 459.518 377.194 453.23 381.218C445.825 385.957 444.906 386.273 444.223 386.443C444.186 386.453 444.15 386.461 444.114 386.47C443.74 386.561 443.34 386.658 442.342 387.16C441.27 387.699 439.489 388.712 436.238 390.713C429.806 394.671 426.471 397.052 424.706 399.337C422.915 401.657 422.758 403.861 422.518 407.229L422.512 407.303L422.501 407.464C422.439 408.331 422.367 409.039 422.305 409.65L422.301 409.682C422.24 410.275 422.188 410.788 422.166 411.259C422.12 412.243 422.206 413.052 422.596 414.141C422.976 415.204 423.645 416.537 424.744 418.574C425.271 419.55 425.903 420.7 426.656 422.069C427.474 423.559 428.436 425.309 429.56 427.378C432.705 433.164 436.587 438.5 440.406 443.396C441.788 445.169 443.158 446.879 444.483 448.532C446.828 451.46 449.029 454.207 450.895 456.798C453.818 460.856 455.837 464.424 456.281 467.559C456.5 469.11 456.332 470.546 455.7 471.886C455.066 473.23 453.948 474.513 452.213 475.729C450.826 476.701 448.668 477.562 445.9 478.287C443.142 479.009 439.818 479.586 436.126 480.009C428.743 480.855 419.928 481.082 411.315 480.639C402.699 480.195 394.309 479.081 387.771 477.256C384.501 476.343 381.715 475.257 379.6 474.001C377.477 472.741 376.086 471.343 375.512 469.828C374.687 467.651 373.699 465.859 372.785 464.299C372.604 463.989 372.427 463.69 372.255 463.4C371.552 462.215 370.938 461.181 370.505 460.177C369.975 458.947 369.742 457.817 369.968 456.604C370.196 455.382 370.902 454.011 372.376 452.33C379.951 443.685 382.781 431.162 383.999 412.032C384.479 404.495 384.094 398.176 382.257 392.222C380.419 386.264 377.138 380.706 371.877 374.672C368.883 371.238 368.323 367.975 369.124 364.621C369.938 361.212 372.161 357.688 374.832 353.788C378.844 347.931 380.249 340.448 380.662 334.476C380.869 331.482 380.827 328.852 380.735 326.969C380.688 326.027 380.629 325.272 380.581 324.751C380.557 324.49 380.536 324.288 380.521 324.15C380.513 324.081 380.507 324.029 380.503 323.993L380.498 323.952L380.496 323.941L380.496 323.938L380.496 323.937C380.496 323.937 380.496 323.937 380.464 323.941Z" fill="#C06E6E" stroke="#C8B7A9"/>
<path id="island__1" class="island-stroke_1" d="M90.2495 208.879C55.2701 185.09 44.7141 160.106 50.5584 137.981C56.4754 115.582 79.4115 95.0604 113.886 80.8825C148.494 66.6493 166.192 63.273 178.611 63.4583C184.822 63.551 189.782 64.5336 195.05 65.5908L195.206 65.6221C200.427 66.6702 205.945 67.7777 213.054 68.0315L213.157 68.0352C227.135 68.5344 237.7 68.9118 248.991 71.1209C260.282 73.3303 272.372 77.3894 289.273 85.3431C306.368 93.3879 316.009 96.3197 322.312 97.7343C324.214 98.1612 325.941 98.4721 327.371 98.7295C328.192 98.8773 328.915 99.0075 329.517 99.1319C331.288 99.4978 332.629 99.9101 334.133 100.769C335.464 101.53 337.335 103.478 339.444 106.6C341.506 109.652 343.652 113.609 345.603 118.106C349.513 127.122 352.544 138.101 352.625 148.049C352.735 161.632 349.558 172.432 343.781 182.014C337.976 191.641 329.494 200.128 318.845 208.996C309.856 216.482 301.921 221.964 293.389 225.592C284.882 229.209 275.681 231.024 264.123 231.033C254.109 231.04 246.982 227.431 239.535 223.284C239.03 223.003 238.522 222.718 238.012 222.433C231.034 218.524 223.559 214.336 213.376 213.049C197.027 210.982 184.209 217.155 172.189 222.943C171.612 223.221 171.038 223.497 170.465 223.772C157.843 229.826 145.917 235.035 130.624 231.096C116.656 227.499 108.865 221.981 98.291 214.492C95.8035 212.731 93.1619 210.86 90.2495 208.879Z" fill="#BF78DF" stroke="white" stroke-width="4"/>
<path pointer-events="none" d="M136.048 138V120.5H140.898V127.025H142.848L145.773 120.5H151.098L147.048 128.75L151.473 138H146.098L143.023 131.225H140.898V138H136.048ZM152.6 141.5V124H162.675L166.125 127.45V134.55L162.675 138H157.45V141.5H152.6ZM161.275 128H157.45V134H161.275V128ZM167.878 134.95V127.05L170.928 124H180.878V131.95H172.728V134H180.378V138H170.928L167.878 134.95ZM172.728 129.8L176.853 129.55V127.6H172.728V129.8ZM182.85 138V124H188.1L190.625 129.7L193.15 124H198.4V138H193.975V129.4L191.575 135.3H189.675L187.3 129.4V138H182.85ZM200.374 134.95V127.05L203.424 124H210.574L213.624 127.05V134.95L210.574 138H203.424L200.374 134.95ZM205.224 134.2H208.774V127.8H205.224V134.2ZM215.589 124H226.389L228.589 126.2V129.475L227.189 130.625L229.089 132.25V135.8L226.889 138H215.589V124ZM220.339 129.475H223.939V127.4H220.339V129.475ZM220.339 134.6H224.239V132.475H220.339V134.6ZM230.848 138V124H235.698V127.1H241.323L244.373 130.15V134.95L241.323 138H230.848ZM235.698 134.2H239.523V130.9H235.698V134.2ZM246.348 138V124H251.198V138H246.348ZM253.181 134.95V127.05L256.231 124H266.181V131.95H258.031V134H265.681V138H256.231L253.181 134.95ZM258.031 129.8L262.156 129.55V127.6H258.031V129.8ZM140.369 157H151.169L153.369 159.2V162.475L151.969 163.625L153.869 165.25V168.8L151.669 171H140.369V157ZM145.119 162.475H148.719V160.4H145.119V162.475ZM145.119 167.6H149.019V165.475H145.119V167.6ZM155.403 167.95V160.05L158.453 157H168.403V164.95H160.253V167H167.903V171H158.453L155.403 167.95ZM160.253 162.8L164.378 162.55V160.6H160.253V162.8ZM170.374 174.5V157H180.449L183.899 160.45V167.55L180.449 171H175.224V174.5H170.374ZM179.049 161H175.224V167H179.049V161ZM198.827 157V166.8H202.077V157H206.927V171H185.877V157H190.727V166.8H193.977V157H198.827ZM223.369 171H218.619V163.175L213.719 171H209.119V157H213.869V165.025L218.769 157H223.369V171ZM225.574 171V157H230.424V161.875H234.224V157H239.074V171H234.224V166.05H230.424V171H225.574ZM241.272 171V157H246.122V160.1H251.747L254.797 163.15V167.95L251.747 171H241.272ZM246.122 167.2H249.947V163.9H246.122V167.2ZM256.772 171V157H261.622V171H256.772Z" fill="white"/>
<path id="island__3" class="island-stroke_3" d="M26.1889 292.195C32.0892 287.382 38.2738 286.374 45.3567 287.332C51.3288 288.14 57.7636 290.313 65.0977 292.79C66.6641 293.318 68.2716 293.861 69.9243 294.408C88.5695 300.571 111.828 306.723 142.236 295.496C171.871 284.555 186.53 283.59 198.984 286.75C205.114 288.305 210.786 290.876 217.6 293.964L218.217 294.243C225.278 297.442 233.467 301.107 244.305 304.519C255.686 308.102 268.445 305.563 280.983 300.31C293.555 295.043 306.206 286.919 317.527 278.905C322.887 275.11 327.972 271.323 332.619 267.863L333.411 267.273C338.283 263.645 342.632 260.42 346.328 257.922C350.076 255.389 352.956 253.743 354.926 253.122C355.928 252.806 356.379 252.86 356.5 252.899C356.5 252.899 356.5 252.899 356.5 252.899C356.506 252.909 356.516 252.924 356.527 252.947C356.55 252.993 356.58 253.067 356.61 253.18C357.309 255.837 358.731 260.01 360.47 265.12C361.157 267.135 361.893 269.296 362.653 271.566C365.367 279.667 368.452 289.318 370.927 299.233C373.405 309.16 375.253 319.276 375.525 328.314C375.798 337.4 374.468 345.108 370.882 350.464C366.879 356.443 364.855 361.114 364.3 365.025C363.728 369.05 364.733 372.11 366.398 374.733C367.207 376.007 368.163 377.166 369.115 378.256C369.484 378.677 369.842 379.078 370.194 379.472C370.79 380.139 371.371 380.789 371.964 381.497C373.782 383.671 375.335 385.975 376.105 389.025C379.544 402.65 380.706 415.971 376.12 432.126C372.077 446.367 362.52 456.357 351.749 464.663C347.015 468.313 342.096 471.602 337.329 474.79C336.666 475.234 336.005 475.675 335.349 476.115C330.011 479.695 324.903 483.207 320.737 486.934C313.295 493.589 302.299 494.766 288.843 493.945C283.095 493.594 277.027 492.89 270.723 492.16C269.699 492.041 268.668 491.922 267.632 491.803C260.247 490.957 252.594 490.149 244.965 489.922C229.344 489.457 217.107 487.298 204.895 485.144C204.297 485.039 203.7 484.933 203.102 484.828C190.282 482.572 177.336 480.419 160.595 480.431C145.171 480.441 133.867 480.841 123.702 481.201C105.967 481.828 91.698 482.332 65.0651 480.436C54.8564 479.708 49.1725 477.631 44.4068 473.885C40.3924 470.73 36.9756 466.379 32.1709 460.26C31.0574 458.841 29.8694 457.328 28.5821 455.713C23.3655 449.168 21.454 445.208 20.7032 440.902C20.3179 438.692 20.2266 436.32 20.2288 433.341C20.2295 432.289 20.2423 431.147 20.256 429.914C20.2804 427.727 20.3081 425.252 20.2777 422.476C20.1968 415.07 22.2026 411.098 24.0279 407.483C24.3734 406.799 24.7124 406.127 25.0295 405.448C26.056 403.249 26.8692 400.902 26.6367 397.925C26.4086 395.005 25.1935 391.708 22.6594 387.504C17.4008 378.779 15.7788 375.07 15.1238 371.048C14.7867 368.978 14.6991 366.784 14.5836 363.67L14.5794 363.558C14.4656 360.488 14.3227 356.636 13.863 351.402C13.4824 347.069 12.7245 342.806 11.9934 338.694C11.8213 337.727 11.6507 336.767 11.4869 335.817C10.6176 330.776 9.92707 325.949 10.0605 321.167C10.3218 311.799 13.7477 302.342 26.1889 292.195Z" fill="#90C2FC" stroke="white" stroke-width="4"/>
<path id="island__2" class="island-stroke_2" d="M471.414 89.0822C479.547 92.8118 482.906 99.2877 486.301 106.745C486.513 107.212 486.725 107.683 486.939 108.157C490.103 115.163 493.591 122.89 501.614 128.412C509.335 133.727 517.348 134.422 524.651 135.057C525.099 135.095 525.544 135.134 525.987 135.174C533.722 135.864 540.654 136.791 546.975 142.63C566.43 160.601 573.361 188.141 557.663 208.545C552.71 214.982 547.178 218.11 540.813 220.297C537.59 221.404 534.174 222.264 530.463 223.195L530.4 223.211C526.73 224.132 522.798 225.118 518.652 226.465C513.072 228.279 509.221 232.069 506.067 235.887C505.062 237.104 504.08 238.386 503.143 239.609C502.636 240.272 502.141 240.917 501.663 241.526C500.258 243.316 498.92 244.891 497.501 246.15C496.093 247.398 494.654 248.29 493.063 248.759C491.486 249.225 489.637 249.312 487.347 248.77C482.671 247.665 476.268 243.967 467.079 235.772C462.394 231.593 458.639 228.967 455.583 227.58C452.532 226.195 449.859 225.911 447.641 226.988C445.475 228.039 444.312 230.122 443.61 232.091C442.899 234.084 442.516 236.383 442.192 238.341C441.846 240.431 441.575 242.038 441.149 243.089C441.052 243.328 440.963 243.494 440.89 243.604C440.877 243.624 440.865 243.641 440.854 243.656C440.636 243.597 440.185 243.4 439.453 242.83C438.688 242.236 437.732 241.328 436.546 240.012C434.176 237.381 431.04 233.285 426.872 227.233C410.023 202.77 399.91 197.801 393.039 196.42C391.912 196.194 390.824 196.06 389.941 195.952C389.579 195.907 389.252 195.867 388.97 195.826C387.902 195.672 387.303 195.497 386.842 195.201C385.955 194.631 384.862 193.12 383.709 187.371C381.951 178.604 383.885 171.925 387.102 165.087C388.164 162.828 389.334 160.615 390.562 158.291C391.234 157.02 391.924 155.715 392.622 154.353C394.569 150.557 396.508 146.45 398.061 141.793C399.976 136.048 400.957 130.572 401.853 125.573C402.273 123.225 402.675 120.983 403.146 118.868C404.643 112.139 406.901 106.099 412.681 100.159C429.004 83.3865 450.156 79.3336 471.414 89.0822Z" fill="#FAD233" stroke="white" stroke-width="4"/>
<path id="island__4" class="island-stroke_4" d="M812.529 390.034C804.901 400.329 794.815 403.1 783.636 405.593C782.945 405.747 782.249 405.9 781.55 406.054C771.041 408.366 759.68 410.865 749.988 420.081C744.295 425.494 745.501 433.407 747.994 440.772C749.231 444.426 750.88 448.215 752.472 451.873L752.636 452.25C754.295 456.064 755.873 459.722 756.96 463.112C758.053 466.526 758.573 469.45 758.285 471.824C758.013 474.071 757.018 475.868 754.833 477.227C752.529 478.66 748.771 479.682 742.855 479.871C736.972 480.059 729.15 479.418 718.888 477.71C709.108 476.083 696.961 478.034 683.566 481.232C676.879 482.829 669.803 484.757 662.478 486.754L662.331 486.794C654.943 488.807 647.293 490.891 639.465 492.794C608.075 500.424 574.305 505.014 544.521 490.712C538.688 487.91 530.541 487.002 521.886 486.725C516.67 486.558 511.059 486.621 505.504 486.684C501.852 486.725 498.224 486.766 494.748 486.741C485.823 486.677 477.77 486.184 471.831 484.319C468.882 483.392 466.589 482.167 464.982 480.604C463.412 479.078 462.414 477.156 462.144 474.628C461.301 466.735 456.704 458.516 451.328 450.588C448.849 446.933 446.153 443.269 443.508 439.674C443.262 439.34 443.016 439.006 442.771 438.673C439.881 434.743 437.081 430.902 434.652 427.172C429.72 419.599 426.648 412.946 427.113 407.367C427.548 402.147 431.205 397.143 441.866 393.094C453.19 388.794 462.844 381.782 472.04 373.469C478.386 367.732 484.595 361.296 490.992 354.665C493.823 351.73 496.691 348.757 499.624 345.789C518.818 326.371 541.318 306.626 576.881 296.313C595.803 290.825 604.781 277.06 608.629 260.238C612.446 243.554 611.295 223.6 609.913 205.168C609.794 203.58 609.673 202.004 609.553 200.442C608.974 192.88 608.419 185.64 608.208 178.984C607.953 170.938 608.21 163.914 609.477 158.355C610.745 152.794 612.95 149.015 616.335 146.994C619.73 144.967 624.802 144.414 632.48 146.446C640.664 148.612 651.334 149.98 662.788 151.447C666.079 151.869 669.435 152.299 672.815 152.758C688.086 154.835 704.01 157.528 717.535 162.736C731.054 167.942 741.906 175.558 747.414 187.311C752.919 199.058 753.299 215.399 744.846 238.537C744.469 239.568 744.08 240.582 743.709 241.545C743.245 242.753 742.811 243.882 742.472 244.864C741.837 246.706 741.358 248.496 741.371 250.301C741.397 254.143 743.617 257.274 748.265 261.135C752.926 265.007 760.527 270.008 772.259 277.514C774.905 279.207 777.766 281.03 780.858 283C791.528 289.8 804.945 298.35 821.753 309.333C828.473 313.725 832.431 319.194 834.371 325.309C836.324 331.463 836.275 338.411 834.722 345.773C831.608 360.537 822.539 376.525 812.529 390.034Z" fill="#C0E973" stroke="white" stroke-width="4"/>
<path pointer-events="none" d="M86.2986 383V360.6H92.5066V368.952H95.0026L98.7466 360.6H105.563L100.379 371.16L106.043 383H99.1626L95.2266 374.328H92.5066V383H86.2986ZM107.166 378.84V372.76L117.662 372.44V370.2H107.806V365.08H119.71L123.87 369.24V383H111.326L107.166 378.84ZM113.374 375.832V378.136H117.662V375.192L113.374 375.832ZM126.674 387.48V365.08H139.57L143.986 369.496V378.584L139.57 383H132.882V387.48H126.674ZM137.778 370.2H132.882V377.88H137.778V370.2ZM146.197 378.84V372.76L156.693 372.44V370.2H146.837V365.08H158.741L162.901 369.24V383H150.357L146.197 378.84ZM152.405 375.832V378.136H156.693V375.192L152.405 375.832ZM165.705 383V365.08H172.425L175.657 372.376L178.889 365.08H185.609V383H179.945V371.992L176.873 379.544H174.441L171.401 371.992V383H165.705ZM188.136 379.096V368.984L192.04 365.08H204.776V375.256H194.344V377.88H204.136V383H192.04L188.136 379.096ZM194.344 372.504L199.624 372.184V369.688H194.344V372.504ZM224.323 365.08V383H218.115V370.04H215.235L213.315 383H206.371V377.624H208.099L209.987 365.08H224.323ZM227.142 383V365.08H233.35V369.048H240.55L244.454 372.952V379.096L240.55 383H227.142ZM233.35 378.136H238.246V373.912H233.35V378.136ZM246.674 383V365.08H252.882V371.32H257.746V365.08H263.954V383H257.746V376.664H252.882V383H246.674ZM266.767 383V365.08H272.975V369.048H280.175L284.079 372.952V379.096L280.175 383H266.767ZM272.975 378.136H277.871V373.912H272.975V378.136ZM286.607 383V365.08H292.815V383H286.607ZM295.354 379.096V368.984L299.258 365.08H311.994V375.256H301.562V377.88H311.354V383H299.258L295.354 379.096ZM301.562 372.504L306.842 372.184V369.688H301.562V372.504ZM117.939 407.08H131.763L134.579 409.896V414.088L132.787 415.56L135.219 417.64V422.184L132.403 425H117.939V407.08ZM124.019 414.088H128.627V411.432H124.019V414.088ZM124.019 420.648H129.011V417.928H124.019V420.648ZM137.183 421.096V410.984L141.087 407.08H150.239L154.142 410.984V421.096L150.239 425H141.087L137.183 421.096ZM143.391 420.136H147.935V411.944H143.391V420.136ZM157.362 429.48V424.36H167.154V422.44H160.274L156.37 418.536V410.984L160.338 407.08H173.362V424.68L168.562 429.48H157.362ZM162.578 412.2V417.576H167.154V412.2H162.578ZM175.901 421.096V410.984L179.805 407.08H188.957L192.861 410.984V421.096L188.957 425H179.805L175.901 421.096ZM182.109 420.136H186.653V411.944H182.109V420.136ZM195.409 425V407.08H212.433V425H206.225V412.456H201.617V425H195.409ZM214.963 420.84V414.76L225.459 414.44V412.2H215.603V407.08H227.507L231.667 411.24V425H219.123L214.963 420.84ZM221.171 417.832V420.136H225.459V417.192L221.171 417.832ZM235.174 429.48V424.36H244.967V422.44H238.087L234.183 418.536V410.984L238.151 407.08H251.175V424.68L246.375 429.48H235.174ZM240.391 412.2V417.576H244.967V412.2H240.391ZM254.002 425V407.08H260.21V411.048H267.41L271.314 414.952V421.096L267.41 425H254.002ZM260.21 420.136H265.106V415.912H260.21V420.136ZM273.842 425V407.08H280.05V425H273.842Z" fill="white"/>
<path pointer-events="none" d="M417.833 152.6V168H413.565V156.362H410.683L408.681 168H404.149L407.141 152.6H417.833ZM419.567 165.316V158.364L422.251 155.68H431.007V162.676H423.835V164.48H430.567V168H422.251L419.567 165.316ZM423.835 160.784L427.465 160.564V158.848H423.835V160.784ZM433.225 171.08V167.56H439.957V166.24H435.227L432.543 163.556V158.364L435.271 155.68H444.225V167.78L440.925 171.08H433.225ZM436.811 159.2V162.896H439.957V159.2H436.811ZM445.971 165.316V158.364L448.655 155.68H457.411V162.676H450.239V164.48H456.971V168H448.655L445.971 165.316ZM450.239 160.784L453.869 160.564V158.848H450.239V160.784ZM459.146 168V155.68H463.414V159.97H466.758V155.68H471.026V168H466.758V163.644H463.414V168H459.146ZM484.664 155.68V164.304H486.358V171.08H483.146V168H472.96V155.68H477.228V164.304H480.396V155.68H484.664ZM487.35 165.316V158.364L490.034 155.68H496.326L499.01 158.364V165.316L496.326 168H490.034L487.35 165.316ZM491.618 164.656H494.742V159.024H491.618V164.656ZM500.739 155.68H510.243L512.179 157.616V160.498L510.947 161.51L512.619 162.94V166.064L510.683 168H500.739V155.68ZM504.919 160.498H508.087V158.672H504.919V160.498ZM504.919 165.008H508.351V163.138H504.919V165.008ZM514.167 168V155.68H518.435V158.408H523.385L526.069 161.092V165.316L523.385 168H514.167ZM518.435 164.656H521.801V161.752H518.435V164.656ZM527.807 168V155.68H532.075V168H527.807ZM533.821 165.316V158.364L536.505 155.68H545.261V162.676H538.089V164.48H544.821V168H536.505L533.821 165.316ZM538.089 160.784L541.719 160.564V158.848H538.089V160.784ZM462.492 184.68V197H458.224V188.09H456.244L454.924 197H450.15V193.304H451.338L452.636 184.68H462.492ZM464.343 200.08V196.56H469.755L470.063 195.24H466.235L463.595 184.68H467.951L469.447 191.896H470.745L472.197 184.68H476.531L472.769 200.08H464.343ZM477.622 197V184.68H486.554V188.552H481.89V197H477.622ZM487.736 194.14V189.96L494.952 189.74V188.2H488.176V184.68H496.36L499.22 187.54V197H490.596L487.736 194.14ZM492.004 192.072V193.656H494.952V191.632L492.004 192.072Z" fill="white"/>
<path pointer-events="none" d="M595.777 349.48V339.624H597.761L601.633 322.6H615.937V339.624H617.857V349.48H613.185V345H600.449V349.48H595.777ZM604.065 340.136H609.729V327.464H606.369L604.065 340.136ZM619.448 341.096V330.984L623.352 327.08H632.504L636.408 330.984V341.096L632.504 345H623.352L619.448 341.096ZM625.656 340.136H630.2V331.944H625.656V340.136ZM655.948 327.08V345H649.74V332.04H646.86L644.94 345H637.996V339.624H639.724L641.612 327.08H655.948ZM677.007 345H670.927V334.984L664.655 345H658.767V327.08H664.847V337.352L671.119 327.08H677.007V345ZM679.83 345V327.08H686.038V333.32H690.902V327.08H697.11V345H690.902V338.664H686.038V345H679.83ZM699.604 340.84V334.76L710.1 334.44V332.2H700.244V327.08H712.148L716.308 331.24V345H703.764L699.604 340.84ZM705.812 337.832V340.136H710.1V337.192L705.812 337.832ZM583.331 391.48V386.36H593.123V384.44H586.243L582.339 380.536V372.984L586.307 369.08H599.331V386.68L594.531 391.48H583.331ZM588.547 374.2V379.576H593.123V374.2H588.547ZM601.87 383.096V372.984L605.774 369.08H618.51V379.256H608.078V381.88H617.87V387H605.774L601.87 383.096ZM608.078 376.504L613.358 376.184V373.688H608.078V376.504ZM620.745 383.096V372.984L624.649 369.08H635.721V374.712H626.953V381.368H635.721V387H624.649L620.745 383.096ZM637.558 383.096V372.984L641.462 369.08H654.198V379.256H643.766V381.88H653.558V387H641.462L637.558 383.096ZM643.766 376.504L649.046 376.184V373.688H643.766V376.504ZM656.721 391.48V369.08H669.617L674.033 373.496V382.584L669.617 387H662.929V391.48H656.721ZM667.825 374.2H662.929V381.88H667.825V374.2ZM687.22 387H681.012V374.456H675.796V369.08H692.436V374.456H687.22V387ZM694.183 383.096V372.984L698.087 369.08H707.239L711.142 372.984V383.096L707.239 387H698.087L694.183 383.096ZM700.391 382.136H704.935V373.944H700.391V382.136ZM713.658 369.08H727.482L730.298 371.896V376.088L728.506 377.56L730.938 379.64V384.184L728.122 387H713.658V369.08ZM719.738 376.088H724.346V373.432H719.738V376.088ZM719.738 382.648H724.73V379.928H719.738V382.648Z" fill="white"/>
</svg>