<svg width="630" height="624" viewBox="0 0 630 624" fill="none" xmlns="http://www.w3.org/2000/svg">
<path opacity="0.78" d="M322.7 314.2C323.915 314.2 324.9 313.215 324.9 312C324.9 310.785 323.915 309.8 322.7 309.8C321.485 309.8 320.5 310.785 320.5 312C320.5 313.215 321.485 314.2 322.7 314.2Z" fill="#532189"/>
<path opacity="0.8" d="M322.7 317.5C323.915 317.5 324.9 316.515 324.9 315.3C324.9 314.085 323.915 313.1 322.7 313.1C321.485 313.1 320.5 314.085 320.5 315.3C320.5 316.515 321.485 317.5 322.7 317.5Z" fill="#FCD303"/>
<path opacity="0.41" d="M319.4 320.8C320.615 320.8 321.6 319.815 321.6 318.6C321.6 317.385 320.615 316.4 319.4 316.4C318.185 316.4 317.2 317.385 317.2 318.6C317.2 319.815 318.185 320.8 319.4 320.8Z" fill="#E12326"/>
<path opacity="0.21" d="M315 321.9C316.215 321.9 317.2 320.915 317.2 319.7C317.2 318.485 316.215 317.5 315 317.5C313.785 317.5 312.8 318.485 312.8 319.7C312.8 320.915 313.785 321.9 315 321.9Z" fill="#FCD303"/>
<path opacity="0.38" d="M310.6 319.7C311.815 319.7 312.8 318.715 312.8 317.5C312.8 316.285 311.815 315.3 310.6 315.3C309.385 315.3 308.4 316.285 308.4 317.5C308.4 318.715 309.385 319.7 310.6 319.7Z" fill="#03FCB6"/>
<path opacity="0.2" d="M308.4 314.2C309.615 314.2 310.6 313.215 310.6 312C310.6 310.785 309.615 309.8 308.4 309.8C307.185 309.8 306.2 310.785 306.2 312C306.2 313.215 307.185 314.2 308.4 314.2Z" fill="#FCD303"/>
<path opacity="0.39" d="M309.5 309.25C311.019 309.25 312.25 308.019 312.25 306.5C312.25 304.981 311.019 303.75 309.5 303.75C307.981 303.75 306.75 304.981 306.75 306.5C306.75 308.019 307.981 309.25 309.5 309.25Z" fill="#FB00FF"/>
<path opacity="0.84" d="M313.9 304.85C315.419 304.85 316.65 303.619 316.65 302.1C316.65 300.581 315.419 299.35 313.9 299.35C312.381 299.35 311.15 300.581 311.15 302.1C311.15 303.619 312.381 304.85 313.9 304.85Z" fill="#FCD303"/>
<path opacity="0.66" d="M319.4 303.75C320.919 303.75 322.15 302.519 322.15 301C322.15 299.481 320.919 298.25 319.4 298.25C317.881 298.25 316.65 299.481 316.65 301C316.65 302.519 317.881 303.75 319.4 303.75Z" fill="#FCD303"/>
<path opacity="0.11" d="M326 307.05C327.519 307.05 328.75 305.819 328.75 304.3C328.75 302.781 327.519 301.55 326 301.55C324.481 301.55 323.25 302.781 323.25 304.3C323.25 305.819 324.481 307.05 326 307.05Z" fill="#FCD303"/>
<path opacity="0.48" d="M329.3 313.65C330.819 313.65 332.05 312.419 332.05 310.9C332.05 309.381 330.819 308.15 329.3 308.15C327.781 308.15 326.55 309.381 326.55 310.9C326.55 312.419 327.781 313.65 329.3 313.65Z" fill="#FCD303"/>
<path opacity="0.29" d="M328.2 321.35C329.719 321.35 330.95 320.119 330.95 318.6C330.95 317.081 329.719 315.85 328.2 315.85C326.681 315.85 325.45 317.081 325.45 318.6C325.45 320.119 326.681 321.35 328.2 321.35Z" fill="#FCD303"/>
<path opacity="0.6" d="M322.7 326.85C324.219 326.85 325.45 325.619 325.45 324.1C325.45 322.581 324.219 321.35 322.7 321.35C321.181 321.35 319.95 322.581 319.95 324.1C319.95 325.619 321.181 326.85 322.7 326.85Z" fill="#FCD303"/>
<path opacity="0.19" d="M313.9 329.05C315.419 329.05 316.65 327.819 316.65 326.3C316.65 324.781 315.419 323.55 313.9 323.55C312.381 323.55 311.15 324.781 311.15 326.3C311.15 327.819 312.381 329.05 313.9 329.05Z" fill="#FCD303"/>
<path opacity="0.92" d="M306.2 324.65C307.719 324.65 308.95 323.419 308.95 321.9C308.95 320.381 307.719 319.15 306.2 319.15C304.681 319.15 303.45 320.381 303.45 321.9C303.45 323.419 304.681 324.65 306.2 324.65Z" fill="#FCD303"/>
<path opacity="0.98" d="M301.8 316.95C303.319 316.95 304.55 315.719 304.55 314.2C304.55 312.681 303.319 311.45 301.8 311.45C300.281 311.45 299.05 312.681 299.05 314.2C299.05 315.719 300.281 316.95 301.8 316.95Z" fill="#FCD303"/>
<path opacity="0.67" d="M302.9 307.05C304.419 307.05 305.65 305.819 305.65 304.3C305.65 302.781 304.419 301.55 302.9 301.55C301.381 301.55 300.15 302.781 300.15 304.3C300.15 305.819 301.381 307.05 302.9 307.05Z" fill="#FCD303"/>
<path opacity="0.27" d="M309.5 299.35C311.019 299.35 312.25 298.119 312.25 296.6C312.25 295.081 311.019 293.85 309.5 293.85C307.981 293.85 306.75 295.081 306.75 296.6C306.75 298.119 307.981 299.35 309.5 299.35Z" fill="#FCD303"/>
<path opacity="0.79" d="M320.5 297.15C322.019 297.15 323.25 295.919 323.25 294.4C323.25 292.881 322.019 291.65 320.5 291.65C318.981 291.65 317.75 292.881 317.75 294.4C317.75 295.919 318.981 297.15 320.5 297.15Z" fill="#FCD303"/>
<path opacity="0.68" d="M330.4 301.55C331.919 301.55 333.15 300.319 333.15 298.8C333.15 297.281 331.919 296.05 330.4 296.05C328.881 296.05 327.65 297.281 327.65 298.8C327.65 300.319 328.881 301.55 330.4 301.55Z" fill="#FCD303"/>
<path opacity="0.53" d="M335.9 311.45C337.419 311.45 338.65 310.219 338.65 308.7C338.65 307.181 337.419 305.95 335.9 305.95C334.381 305.95 333.15 307.181 333.15 308.7C333.15 310.219 334.381 311.45 335.9 311.45Z" fill="#FCD303"/>
<path opacity="0.84" d="M334.8 323.55C336.319 323.55 337.55 322.319 337.55 320.8C337.55 319.281 336.319 318.05 334.8 318.05C333.281 318.05 332.05 319.281 332.05 320.8C332.05 322.319 333.281 323.55 334.8 323.55Z" fill="#FCD303"/>
<path opacity="0.71" d="M327.1 332.35C328.619 332.35 329.85 331.119 329.85 329.6C329.85 328.081 328.619 326.85 327.1 326.85C325.581 326.85 324.35 328.081 324.35 329.6C324.35 331.119 325.581 332.35 327.1 332.35Z" fill="#FCD303"/>
<path opacity="0.13" d="M315 335.65C316.519 335.65 317.75 334.419 317.75 332.9C317.75 331.381 316.519 330.15 315 330.15C313.481 330.15 312.25 331.381 312.25 332.9C312.25 334.419 313.481 335.65 315 335.65Z" fill="#FCD303"/>
<path opacity="0.43" d="M302.9 331.25C304.419 331.25 305.65 330.019 305.65 328.5C305.65 326.981 304.419 325.75 302.9 325.75C301.381 325.75 300.15 326.981 300.15 328.5C300.15 330.019 301.381 331.25 302.9 331.25Z" fill="#FCD303"/>
<path opacity="0.27" d="M295.2 319.15C296.719 319.15 297.95 317.919 297.95 316.4C297.95 314.881 296.719 313.65 295.2 313.65C293.681 313.65 292.45 314.881 292.45 316.4C292.45 317.919 293.681 319.15 295.2 319.15Z" fill="#FCD303"/>
<path opacity="0.48" d="M296.3 305.95C297.819 305.95 299.05 304.719 299.05 303.2C299.05 301.681 297.819 300.45 296.3 300.45C294.781 300.45 293.55 301.681 293.55 303.2C293.55 304.719 294.781 305.95 296.3 305.95Z" fill="#FCD303"/>
<path opacity="0.77" d="M305.1 293.85C306.619 293.85 307.85 292.619 307.85 291.1C307.85 289.581 306.619 288.35 305.1 288.35C303.581 288.35 302.35 289.581 302.35 291.1C302.35 292.619 303.581 293.85 305.1 293.85Z" fill="#FCD303"/>
<path opacity="0.14" d="M319.4 290.55C320.919 290.55 322.15 289.319 322.15 287.8C322.15 286.281 320.919 285.05 319.4 285.05C317.881 285.05 316.65 286.281 316.65 287.8C316.65 289.319 317.881 290.55 319.4 290.55Z" fill="#FCD303"/>
<path opacity="0.83" d="M333.7 294.95C335.219 294.95 336.45 293.719 336.45 292.2C336.45 290.681 335.219 289.45 333.7 289.45C332.181 289.45 330.95 290.681 330.95 292.2C330.95 293.719 332.181 294.95 333.7 294.95Z" fill="#FCD303"/>
<path opacity="0.54" d="M342.5 308.15C344.019 308.15 345.25 306.919 345.25 305.4C345.25 303.881 344.019 302.65 342.5 302.65C340.981 302.65 339.75 303.881 339.75 305.4C339.75 306.919 340.981 308.15 342.5 308.15Z" fill="#FCD303"/>
<path opacity="0.3" d="M342.5 325.2C344.322 325.2 345.8 323.723 345.8 321.9C345.8 320.077 344.322 318.6 342.5 318.6C340.677 318.6 339.2 320.077 339.2 321.9C339.2 323.723 340.677 325.2 342.5 325.2Z" fill="#FCD303"/>
<path opacity="0.76" d="M332.6 338.4C334.422 338.4 335.9 336.922 335.9 335.1C335.9 333.277 334.422 331.8 332.6 331.8C330.777 331.8 329.3 333.277 329.3 335.1C329.3 336.922 330.777 338.4 332.6 338.4Z" fill="#FCD303"/>
<path opacity="0.88" d="M316.1 342.8C317.922 342.8 319.4 341.322 319.4 339.5C319.4 337.677 317.922 336.2 316.1 336.2C314.277 336.2 312.8 337.677 312.8 339.5C312.8 341.322 314.277 342.8 316.1 342.8Z" fill="#FCD303"/>
<path opacity="0.89" d="M299.6 338.4C301.422 338.4 302.9 336.922 302.9 335.1C302.9 333.277 301.422 331.8 299.6 331.8C297.777 331.8 296.3 333.277 296.3 335.1C296.3 336.922 297.777 338.4 299.6 338.4Z" fill="#FCD303"/>
<path opacity="0.44" d="M288.6 324.1C290.422 324.1 291.9 322.622 291.9 320.8C291.9 318.977 290.422 317.5 288.6 317.5C286.777 317.5 285.3 318.977 285.3 320.8C285.3 322.622 286.777 324.1 288.6 324.1Z" fill="#FCD303"/>
<path opacity="0.21" d="M288.6 305.4C290.422 305.4 291.9 303.922 291.9 302.1C291.9 300.277 290.422 298.8 288.6 298.8C286.777 298.8 285.3 300.277 285.3 302.1C285.3 303.922 286.777 305.4 288.6 305.4Z" fill="#FCD303"/>
<path opacity="0.12" d="M299.6 290C301.422 290 302.9 288.523 302.9 286.7C302.9 284.877 301.422 283.4 299.6 283.4C297.777 283.4 296.3 284.877 296.3 286.7C296.3 288.523 297.777 290 299.6 290Z" fill="#FCD303"/>
<path opacity="0.17" d="M317.2 283.4C319.022 283.4 320.5 281.922 320.5 280.1C320.5 278.277 319.022 276.8 317.2 276.8C315.377 276.8 313.9 278.277 313.9 280.1C313.9 281.922 315.377 283.4 317.2 283.4Z" fill="#FCD303"/>
<path opacity="0.19" d="M335.9 288.9C337.722 288.9 339.2 287.422 339.2 285.6C339.2 283.777 337.722 282.3 335.9 282.3C334.077 282.3 332.6 283.777 332.6 285.6C332.6 287.422 334.077 288.9 335.9 288.9Z" fill="#FCD303"/>
<path opacity="0.51" d="M348 304.3C349.822 304.3 351.3 302.822 351.3 301C351.3 299.177 349.822 297.7 348 297.7C346.177 297.7 344.7 299.177 344.7 301C344.7 302.822 346.177 304.3 348 304.3Z" fill="#FCD303"/>
<path opacity="0.23" d="M349.1 325.2C350.922 325.2 352.4 323.723 352.4 321.9C352.4 320.077 350.922 318.6 349.1 318.6C347.277 318.6 345.8 320.077 345.8 321.9C345.8 323.723 347.277 325.2 349.1 325.2Z" fill="#FCD303"/>
<path opacity="0.3" d="M338.1 341.7C339.922 341.7 341.4 340.223 341.4 338.4C341.4 336.577 339.922 335.1 338.1 335.1C336.277 335.1 334.8 336.577 334.8 338.4C334.8 340.223 336.277 341.7 338.1 341.7Z" fill="#FCD303"/>
<path opacity="0.97" d="M318.3 350.5C320.123 350.5 321.6 349.023 321.6 347.2C321.6 345.377 320.123 343.9 318.3 343.9C316.477 343.9 315 345.377 315 347.2C315 349.023 316.477 350.5 318.3 350.5Z" fill="#FCD303"/>
<path opacity="0.99" d="M297.4 345C299.222 345 300.7 343.523 300.7 341.7C300.7 339.877 299.222 338.4 297.4 338.4C295.577 338.4 294.1 339.877 294.1 341.7C294.1 343.523 295.577 345 297.4 345Z" fill="#FCD303"/>
<path opacity="0.48" d="M283.1 328.5C284.922 328.5 286.4 327.023 286.4 325.2C286.4 323.377 284.922 321.9 283.1 321.9C281.277 321.9 279.8 323.377 279.8 325.2C279.8 327.023 281.277 328.5 283.1 328.5Z" fill="#FCD303"/>
<path opacity="0.64" d="M280.9 306.5C282.722 306.5 284.2 305.023 284.2 303.2C284.2 301.377 282.722 299.9 280.9 299.9C279.077 299.9 277.6 301.377 277.6 303.2C277.6 305.023 279.077 306.5 280.9 306.5Z" fill="#FCD303"/>
<path opacity="0.45" d="M293 286.7C294.822 286.7 296.3 285.223 296.3 283.4C296.3 281.577 294.822 280.1 293 280.1C291.177 280.1 289.7 281.577 289.7 283.4C289.7 285.223 291.177 286.7 293 286.7Z" fill="#FCD303"/>
<path opacity="0.72" d="M313.9 276.8C315.722 276.8 317.2 275.322 317.2 273.5C317.2 271.677 315.722 270.2 313.9 270.2C312.077 270.2 310.6 271.677 310.6 273.5C310.6 275.322 312.077 276.8 313.9 276.8Z" fill="#FCD303"/>
<path opacity="0.44" d="M337 282.3C338.822 282.3 340.3 280.822 340.3 279C340.3 277.177 338.822 275.7 337 275.7C335.177 275.7 333.7 277.177 333.7 279C333.7 280.822 335.177 282.3 337 282.3Z" fill="#FCD303"/>
<path opacity="0.87" d="M353.5 298.8C355.322 298.8 356.8 297.322 356.8 295.5C356.8 293.677 355.322 292.2 353.5 292.2C351.677 292.2 350.2 293.677 350.2 295.5C350.2 297.322 351.677 298.8 353.5 298.8Z" fill="#FCD303"/>
<path opacity="0.13" d="M356.8 323C358.623 323 360.1 321.523 360.1 319.7C360.1 317.877 358.623 316.4 356.8 316.4C354.977 316.4 353.5 317.877 353.5 319.7C353.5 321.523 354.977 323 356.8 323Z" fill="#FCD303"/>
<path opacity="0.25" d="M344.7 345C346.522 345 348 343.523 348 341.7C348 339.877 346.522 338.4 344.7 338.4C342.877 338.4 341.4 339.877 341.4 341.7C341.4 343.523 342.877 345 344.7 345Z" fill="#FCD303"/>
<path opacity="0.51" d="M322.7 357.1C324.522 357.1 326 355.622 326 353.8C326 351.977 324.522 350.5 322.7 350.5C320.877 350.5 319.4 351.977 319.4 353.8C319.4 355.622 320.877 357.1 322.7 357.1Z" fill="#FCD303"/>
<path opacity="0.89" d="M297.4 352.7C299.222 352.7 300.7 351.223 300.7 349.4C300.7 347.577 299.222 346.1 297.4 346.1C295.577 346.1 294.1 347.577 294.1 349.4C294.1 351.223 295.577 352.7 297.4 352.7Z" fill="#FCD303"/>
<path opacity="0.59" d="M278.7 334C280.522 334 282 332.523 282 330.7C282 328.877 280.522 327.4 278.7 327.4C276.877 327.4 275.4 328.877 275.4 330.7C275.4 332.523 276.877 334 278.7 334Z" fill="#FCD303"/>
<path opacity="0.62" d="M274.3 309.25C276.426 309.25 278.15 307.526 278.15 305.4C278.15 303.274 276.426 301.55 274.3 301.55C272.174 301.55 270.45 303.274 270.45 305.4C270.45 307.526 272.174 309.25 274.3 309.25Z" fill="#FCD303"/>
<path opacity="0.24" d="M285.3 285.05C287.426 285.05 289.15 283.326 289.15 281.2C289.15 279.074 287.426 277.35 285.3 277.35C283.174 277.35 281.45 279.074 281.45 281.2C281.45 283.326 283.174 285.05 285.3 285.05Z" fill="#FCD303"/>
<path opacity="0.13" d="M309.5 271.85C311.626 271.85 313.35 270.126 313.35 268C313.35 265.874 311.626 264.15 309.5 264.15C307.374 264.15 305.65 265.874 305.65 268C305.65 270.126 307.374 271.85 309.5 271.85Z" fill="#FCD303"/>
<path opacity="0.55" d="M337 275.15C339.126 275.15 340.85 273.426 340.85 271.3C340.85 269.174 339.126 267.45 337 267.45C334.874 267.45 333.15 269.174 333.15 271.3C333.15 273.426 334.874 275.15 337 275.15Z" fill="#FCD303"/>
<path opacity="0.99" d="M357.9 293.85C360.026 293.85 361.75 292.126 361.75 290C361.75 287.874 360.026 286.15 357.9 286.15C355.774 286.15 354.05 287.874 354.05 290C354.05 292.126 355.774 293.85 357.9 293.85Z" fill="#FCD303"/>
<path opacity="0.63" d="M364.5 321.35C366.626 321.35 368.35 319.626 368.35 317.5C368.35 315.374 366.626 313.65 364.5 313.65C362.374 313.65 360.65 315.374 360.65 317.5C360.65 319.626 362.374 321.35 364.5 321.35Z" fill="#FCD303"/>
<path opacity="0.36" d="M352.4 347.75C354.526 347.75 356.25 346.026 356.25 343.9C356.25 341.774 354.526 340.05 352.4 340.05C350.274 340.05 348.55 341.774 348.55 343.9C348.55 346.026 350.274 347.75 352.4 347.75Z" fill="#FCD303"/>
<path opacity="0.69" d="M327.1 363.15C329.226 363.15 330.95 361.426 330.95 359.3C330.95 357.174 329.226 355.45 327.1 355.45C324.974 355.45 323.25 357.174 323.25 359.3C323.25 361.426 324.974 363.15 327.1 363.15Z" fill="#FCD303"/>
<path opacity="0.4" d="M297.4 360.95C299.526 360.95 301.25 359.226 301.25 357.1C301.25 354.974 299.526 353.25 297.4 353.25C295.274 353.25 293.55 354.974 293.55 357.1C293.55 359.226 295.274 360.95 297.4 360.95Z" fill="#FCD303"/>
<path opacity="0.94" d="M274.3 341.15C276.426 341.15 278.15 339.426 278.15 337.3C278.15 335.174 276.426 333.45 274.3 333.45C272.174 333.45 270.45 335.174 270.45 337.3C270.45 339.426 272.174 341.15 274.3 341.15Z" fill="#FCD303"/>
<path opacity="0.74" d="M266.6 311.45C268.726 311.45 270.45 309.726 270.45 307.6C270.45 305.474 268.726 303.75 266.6 303.75C264.474 303.75 262.75 305.474 262.75 307.6C262.75 309.726 264.474 311.45 266.6 311.45Z" fill="#FCD303"/>
<path opacity="0.64" d="M277.6 282.85C279.726 282.85 281.45 281.126 281.45 279C281.45 276.874 279.726 275.15 277.6 275.15C275.474 275.15 273.75 276.874 273.75 279C273.75 281.126 275.474 282.85 277.6 282.85Z" fill="#FCD303"/>
<path opacity="0.73" d="M304 265.25C306.126 265.25 307.85 263.526 307.85 261.4C307.85 259.274 306.126 257.55 304 257.55C301.874 257.55 300.15 259.274 300.15 261.4C300.15 263.526 301.874 265.25 304 265.25Z" fill="#FCD303"/>
<path opacity="0.91" d="M335.9 266.35C338.026 266.35 339.75 264.626 339.75 262.5C339.75 260.374 338.026 258.65 335.9 258.65C333.774 258.65 332.05 260.374 332.05 262.5C332.05 264.626 333.774 266.35 335.9 266.35Z" fill="#FCD303"/>
<path opacity="0.44" d="M361.2 286.15C363.326 286.15 365.05 284.426 365.05 282.3C365.05 280.174 363.326 278.45 361.2 278.45C359.074 278.45 357.35 280.174 357.35 282.3C357.35 284.426 359.074 286.15 361.2 286.15Z" fill="#FCD303"/>
<path opacity="0.21" d="M371.1 318.05C373.226 318.05 374.95 316.326 374.95 314.2C374.95 312.074 373.226 310.35 371.1 310.35C368.974 310.35 367.25 312.074 367.25 314.2C367.25 316.326 368.974 318.05 371.1 318.05Z" fill="#FCD303"/>
<path opacity="0.6" d="M360.1 348.85C362.226 348.85 363.95 347.126 363.95 345C363.95 342.874 362.226 341.15 360.1 341.15C357.974 341.15 356.25 342.874 356.25 345C356.25 347.126 357.974 348.85 360.1 348.85Z" fill="#FCD303"/>
<path opacity="0.23" d="M333.7 368.65C335.826 368.65 337.55 366.926 337.55 364.8C337.55 362.674 335.826 360.95 333.7 360.95C331.574 360.95 329.85 362.674 329.85 364.8C329.85 366.926 331.574 368.65 333.7 368.65Z" fill="#FCD303"/>
<path opacity="0.92" d="M299.6 368.65C301.726 368.65 303.45 366.926 303.45 364.8C303.45 362.674 301.726 360.95 299.6 360.95C297.474 360.95 295.75 362.674 295.75 364.8C295.75 366.926 297.474 368.65 299.6 368.65Z" fill="#FCD303"/>
<path opacity="0.32" d="M271 348.85C273.126 348.85 274.85 347.126 274.85 345C274.85 342.874 273.126 341.15 271 341.15C268.874 341.15 267.15 342.874 267.15 345C267.15 347.126 268.874 348.85 271 348.85Z" fill="#FCD303"/>
<path opacity="0.26" d="M260 315.85C262.126 315.85 263.85 314.126 263.85 312C263.85 309.874 262.126 308.15 260 308.15C257.874 308.15 256.15 309.874 256.15 312C256.15 314.126 257.874 315.85 260 315.85Z" fill="#FCD303"/>
<path opacity="0.52" d="M269.9 282.85C272.026 282.85 273.75 281.126 273.75 279C273.75 276.874 272.026 275.15 269.9 275.15C267.774 275.15 266.05 276.874 266.05 279C266.05 281.126 267.774 282.85 269.9 282.85Z" fill="#FCD303"/>
<path opacity="0.59" d="M297.4 260.85C299.526 260.85 301.25 259.126 301.25 257C301.25 254.874 299.526 253.15 297.4 253.15C295.274 253.15 293.55 254.874 293.55 257C293.55 259.126 295.274 260.85 297.4 260.85Z" fill="#FCD303"/>
<path opacity="0.41" d="M333.7 258.65C335.826 258.65 337.55 256.926 337.55 254.8C337.55 252.674 335.826 250.95 333.7 250.95C331.574 250.95 329.85 252.674 329.85 254.8C329.85 256.926 331.574 258.65 333.7 258.65Z" fill="#FCD303"/>
<path opacity="0.81" d="M364.5 278.45C366.626 278.45 368.35 276.726 368.35 274.6C368.35 272.474 366.626 270.75 364.5 270.75C362.374 270.75 360.65 272.474 360.65 274.6C360.65 276.726 362.374 278.45 364.5 278.45Z" fill="#FCD303"/>
<path opacity="0.43" d="M377.7 313.1C380.13 313.1 382.1 311.13 382.1 308.7C382.1 306.27 380.13 304.3 377.7 304.3C375.27 304.3 373.3 306.27 373.3 308.7C373.3 311.13 375.27 313.1 377.7 313.1Z" fill="#FCD303"/>
<path opacity="0.87" d="M368.9 349.4C371.33 349.4 373.3 347.43 373.3 345C373.3 342.57 371.33 340.6 368.9 340.6C366.47 340.6 364.5 342.57 364.5 345C364.5 347.43 366.47 349.4 368.9 349.4Z" fill="#FCD303"/>
<path opacity="0.87" d="M368.9 349.4C371.33 349.4 373.3 347.43 373.3 345C373.3 342.57 371.33 340.6 368.9 340.6C366.47 340.6 364.5 342.57 364.5 345C364.5 347.43 366.47 349.4 368.9 349.4Z" fill="#FCD303"/>
<path opacity="0.54" d="M340.3 374.7C342.73 374.7 344.7 372.73 344.7 370.3C344.7 367.87 342.73 365.9 340.3 365.9C337.87 365.9 335.9 367.87 335.9 370.3C335.9 372.73 337.87 374.7 340.3 374.7Z" fill="#FCD303"/>
<path opacity="0.75" d="M301.8 376.9C304.23 376.9 306.2 374.93 306.2 372.5C306.2 370.07 304.23 368.1 301.8 368.1C299.37 368.1 297.4 370.07 297.4 372.5C297.4 374.93 299.37 376.9 301.8 376.9Z" fill="#FCD303"/>
<path opacity="0.93" d="M268.8 357.1C271.23 357.1 273.2 355.13 273.2 352.7C273.2 350.27 271.23 348.3 268.8 348.3C266.37 348.3 264.4 350.27 264.4 352.7C264.4 355.13 266.37 357.1 268.8 357.1Z" fill="#FCD303"/>
<path opacity="0.22" d="M253.4 321.9C255.83 321.9 257.8 319.93 257.8 317.5C257.8 315.07 255.83 313.1 253.4 313.1C250.97 313.1 249 315.07 249 317.5C249 319.93 250.97 321.9 253.4 321.9Z" fill="#FCD303"/>
<path opacity="0.61" d="M261.1 283.4C263.53 283.4 265.5 281.43 265.5 279C265.5 276.57 263.53 274.6 261.1 274.6C258.67 274.6 256.7 276.57 256.7 279C256.7 281.43 258.67 283.4 261.1 283.4Z" fill="#FCD303"/>
<path opacity="0.88" d="M290.8 257C293.23 257 295.2 255.03 295.2 252.6C295.2 250.17 293.23 248.2 290.8 248.2C288.37 248.2 286.4 250.17 286.4 252.6C286.4 255.03 288.37 257 290.8 257Z" fill="#FCD303"/>
<path opacity="0.43" d="M330.4 251.5C332.83 251.5 334.8 249.53 334.8 247.1C334.8 244.67 332.83 242.7 330.4 242.7C327.97 242.7 326 244.67 326 247.1C326 249.53 327.97 251.5 330.4 251.5Z" fill="#FCD303"/>
<path opacity="0.19" d="M366.7 271.3C369.13 271.3 371.1 269.33 371.1 266.9C371.1 264.47 369.13 262.5 366.7 262.5C364.27 262.5 362.3 264.47 362.3 266.9C362.3 269.33 364.27 271.3 366.7 271.3Z" fill="#FCD303"/>
<path opacity="0.35" d="M384.3 307.6C386.73 307.6 388.7 305.63 388.7 303.2C388.7 300.77 386.73 298.8 384.3 298.8C381.87 298.8 379.9 300.77 379.9 303.2C379.9 305.63 381.87 307.6 384.3 307.6Z" fill="#FCD303"/>
<path opacity="0.93" d="M377.7 348.3C380.13 348.3 382.1 346.33 382.1 343.9C382.1 341.47 380.13 339.5 377.7 339.5C375.27 339.5 373.3 341.47 373.3 343.9C373.3 346.33 375.27 348.3 377.7 348.3Z" fill="#FCD303"/>
<path opacity="0.25" d="M348 378C350.43 378 352.4 376.03 352.4 373.6C352.4 371.17 350.43 369.2 348 369.2C345.57 369.2 343.6 371.17 343.6 373.6C343.6 376.03 345.57 378 348 378Z" fill="#FCD303"/>
<path opacity="0.81" d="M306.2 384.6C308.63 384.6 310.6 382.63 310.6 380.2C310.6 377.77 308.63 375.8 306.2 375.8C303.77 375.8 301.8 377.77 301.8 380.2C301.8 382.63 303.77 384.6 306.2 384.6Z" fill="#FCD303"/>
<path opacity="0.88" d="M267.7 365.9C270.13 365.9 272.1 363.93 272.1 361.5C272.1 359.07 270.13 357.1 267.7 357.1C265.27 357.1 263.3 359.07 263.3 361.5C263.3 363.93 265.27 365.9 267.7 365.9Z" fill="#FCD303"/>
<path opacity="0.76" d="M246.8 328.5C249.23 328.5 251.2 326.53 251.2 324.1C251.2 321.67 249.23 319.7 246.8 319.7C244.37 319.7 242.4 321.67 242.4 324.1C242.4 326.53 244.37 328.5 246.8 328.5Z" fill="#FCD303"/>
<path opacity="0.46" d="M252.3 285.6C254.73 285.6 256.7 283.63 256.7 281.2C256.7 278.77 254.73 276.8 252.3 276.8C249.87 276.8 247.9 278.77 247.9 281.2C247.9 283.63 249.87 285.6 252.3 285.6Z" fill="#FCD303"/>
<path opacity="0.58" d="M282 252.6C284.43 252.6 286.4 250.63 286.4 248.2C286.4 245.77 284.43 243.8 282 243.8C279.57 243.8 277.6 245.77 277.6 248.2C277.6 250.63 279.57 252.6 282 252.6Z" fill="#FCD303"/>
<path opacity="0.8" d="M326 243.8C328.43 243.8 330.4 241.83 330.4 239.4C330.4 236.97 328.43 235 326 235C323.57 235 321.6 236.97 321.6 239.4C321.6 241.83 323.57 243.8 326 243.8Z" fill="#FCD303"/>
<path opacity="0.96" d="M366.7 261.4C369.13 261.4 371.1 259.43 371.1 257C371.1 254.57 369.13 252.6 366.7 252.6C364.27 252.6 362.3 254.57 362.3 257C362.3 259.43 364.27 261.4 366.7 261.4Z" fill="#FCD303"/>
<path opacity="0.11" d="M389.8 301C392.23 301 394.2 299.03 394.2 296.6C394.2 294.17 392.23 292.2 389.8 292.2C387.37 292.2 385.4 294.17 385.4 296.6C385.4 299.03 387.37 301 389.8 301Z" fill="#6005C1"/>
<path opacity="0.29" d="M386.5 346.1C388.93 346.1 390.9 344.13 390.9 341.7C390.9 339.27 388.93 337.3 386.5 337.3C384.07 337.3 382.1 339.27 382.1 341.7C382.1 344.13 384.07 346.1 386.5 346.1Z" fill="#FCD303"/>
<path opacity="0.16" d="M356.8 381.3C359.23 381.3 361.2 379.33 361.2 376.9C361.2 374.47 359.23 372.5 356.8 372.5C354.37 372.5 352.4 374.47 352.4 376.9C352.4 379.33 354.37 381.3 356.8 381.3Z" fill="#FCD303"/>
<path opacity="0.93" d="M311.7 392.3C314.13 392.3 316.1 390.33 316.1 387.9C316.1 385.47 314.13 383.5 311.7 383.5C309.27 383.5 307.3 385.47 307.3 387.9C307.3 390.33 309.27 392.3 311.7 392.3Z" fill="#FCD303"/>
<path opacity="0.37" d="M267.7 375.8C270.13 375.8 272.1 373.83 272.1 371.4C272.1 368.97 270.13 367 267.7 367C265.27 367 263.3 368.97 263.3 371.4C263.3 373.83 265.27 375.8 267.7 375.8Z" fill="#FCD303"/>
<path opacity="0.16" d="M242.4 336.75C245.134 336.75 247.35 334.534 247.35 331.8C247.35 329.066 245.134 326.85 242.4 326.85C239.666 326.85 237.45 329.066 237.45 331.8C237.45 334.534 239.666 336.75 242.4 336.75Z" fill="#FCD303"/>
<path opacity="0.32" d="M243.5 288.35C246.234 288.35 248.45 286.134 248.45 283.4C248.45 280.666 246.234 278.45 243.5 278.45C240.766 278.45 238.55 280.666 238.55 283.4C238.55 286.134 240.766 288.35 243.5 288.35Z" fill="#FCD303"/>
<path opacity="0.95" d="M273.2 250.95C275.934 250.95 278.15 248.734 278.15 246C278.15 243.266 275.934 241.05 273.2 241.05C270.466 241.05 268.25 243.266 268.25 246C268.25 248.734 270.466 250.95 273.2 250.95Z" fill="#FCD303"/>
<path opacity="0.59" d="M320.5 236.65C323.234 236.65 325.45 234.434 325.45 231.7C325.45 228.966 323.234 226.75 320.5 226.75C317.766 226.75 315.55 228.966 315.55 231.7C315.55 234.434 317.766 236.65 320.5 236.65Z" fill="#FCD303"/>
<path opacity="0.21" d="M366.7 253.15C369.434 253.15 371.65 250.934 371.65 248.2C371.65 245.466 369.434 243.25 366.7 243.25C363.966 243.25 361.75 245.466 361.75 248.2C361.75 250.934 363.966 253.15 366.7 253.15Z" fill="#FCD303"/>
<path opacity="0.27" d="M395.3 293.85C398.034 293.85 400.25 291.634 400.25 288.9C400.25 286.166 398.034 283.95 395.3 283.95C392.566 283.95 390.35 286.166 390.35 288.9C390.35 291.634 392.566 293.85 395.3 293.85Z" fill="#FCD303"/>
<path opacity="0.87" d="M395.3 343.35C398.034 343.35 400.25 341.134 400.25 338.4C400.25 335.666 398.034 333.45 395.3 333.45C392.566 333.45 390.35 335.666 390.35 338.4C390.35 341.134 392.566 343.35 395.3 343.35Z" fill="#FCD303"/>
<path d="M365.6 384.05C368.334 384.05 370.55 381.834 370.55 379.1C370.55 376.366 368.334 374.15 365.6 374.15C362.866 374.15 360.65 376.366 360.65 379.1C360.65 381.834 362.866 384.05 365.6 384.05Z" fill="#FCD303"/>
<path opacity="0.77" d="M317.2 400.55C319.934 400.55 322.15 398.334 322.15 395.6C322.15 392.866 319.934 390.65 317.2 390.65C314.466 390.65 312.25 392.866 312.25 395.6C312.25 398.334 314.466 400.55 317.2 400.55Z" fill="#3CEB42"/>
<path opacity="0.69" d="M268.8 385.15C271.534 385.15 273.75 382.934 273.75 380.2C273.75 377.466 271.534 375.25 268.8 375.25C266.066 375.25 263.85 377.466 263.85 380.2C263.85 382.934 266.066 385.15 268.8 385.15Z" fill="#FCD303"/>
<path opacity="0.63" d="M236.9 344.45C239.634 344.45 241.85 342.234 241.85 339.5C241.85 336.766 239.634 334.55 236.9 334.55C234.166 334.55 231.95 336.766 231.95 339.5C231.95 342.234 234.166 344.45 236.9 344.45Z" fill="#FCD303"/>
<path opacity="0.83" d="M235.8 292.75C238.534 292.75 240.75 290.534 240.75 287.8C240.75 285.066 238.534 282.85 235.8 282.85C233.066 282.85 230.85 285.066 230.85 287.8C230.85 290.534 233.066 292.75 235.8 292.75Z" fill="#FCD303"/>
<path opacity="0.6" d="M264.4 249.85C267.134 249.85 269.35 247.634 269.35 244.9C269.35 242.166 267.134 239.95 264.4 239.95C261.666 239.95 259.45 242.166 259.45 244.9C259.45 247.634 261.666 249.85 264.4 249.85Z" fill="#FCD303"/>
<path opacity="0.93" d="M312.8 230.05C315.534 230.05 317.75 227.834 317.75 225.1C317.75 222.366 315.534 220.15 312.8 220.15C310.066 220.15 307.85 222.366 307.85 225.1C307.85 227.834 310.066 230.05 312.8 230.05Z" fill="#FCD303"/>
<path opacity="0.74" d="M364.5 243.25C367.234 243.25 369.45 241.034 369.45 238.3C369.45 235.566 367.234 233.35 364.5 233.35C361.766 233.35 359.55 235.566 359.55 238.3C359.55 241.034 361.766 243.25 364.5 243.25Z" fill="#FCD303"/>
<path opacity="0.57" d="M398.6 283.95C401.334 283.95 403.55 281.734 403.55 279C403.55 276.266 401.334 274.05 398.6 274.05C395.866 274.05 393.65 276.266 393.65 279C393.65 281.734 395.866 283.95 398.6 283.95Z" fill="#FCD303"/>
<path opacity="0.59" d="M403 337.85C405.734 337.85 407.95 335.634 407.95 332.9C407.95 330.166 405.734 327.95 403 327.95C400.266 327.95 398.05 330.166 398.05 332.9C398.05 335.634 400.266 337.85 403 337.85Z" fill="#FCD303"/>
<path opacity="0.39" d="M375.5 385.15C378.234 385.15 380.45 382.934 380.45 380.2C380.45 377.466 378.234 375.25 375.5 375.25C372.766 375.25 370.55 377.466 370.55 380.2C370.55 382.934 372.766 385.15 375.5 385.15Z" fill="#FCD303"/>
<path opacity="0.12" d="M324.9 407.15C327.634 407.15 329.85 404.934 329.85 402.2C329.85 399.466 327.634 397.25 324.9 397.25C322.166 397.25 319.95 399.466 319.95 402.2C319.95 404.934 322.166 407.15 324.9 407.15Z" fill="#FCD303"/>
<path opacity="0.61" d="M271 395.05C273.734 395.05 275.95 392.834 275.95 390.1C275.95 387.366 273.734 385.15 271 385.15C268.266 385.15 266.05 387.366 266.05 390.1C266.05 392.834 268.266 395.05 271 395.05Z" fill="#FCD303"/>
<path opacity="0.91" d="M233.6 354.35C236.334 354.35 238.55 352.134 238.55 349.4C238.55 346.666 236.334 344.45 233.6 344.45C230.866 344.45 228.65 346.666 228.65 349.4C228.65 352.134 230.866 354.35 233.6 354.35Z" fill="#FCD303"/>
<path opacity="0.18" d="M227 298.25C229.734 298.25 231.95 296.034 231.95 293.3C231.95 290.566 229.734 288.35 227 288.35C224.266 288.35 222.05 290.566 222.05 293.3C222.05 296.034 224.266 298.25 227 298.25Z" fill="#FCD303"/>
<path opacity="0.15" d="M253.4 248.75C256.134 248.75 258.35 246.534 258.35 243.8C258.35 241.066 256.134 238.85 253.4 238.85C250.666 238.85 248.45 241.066 248.45 243.8C248.45 246.534 250.666 248.75 253.4 248.75Z" fill="#FCD303"/>
<path opacity="0.36" d="M305.1 224.55C307.834 224.55 310.05 222.334 310.05 219.6C310.05 216.866 307.834 214.65 305.1 214.65C302.366 214.65 300.15 216.866 300.15 219.6C300.15 222.334 302.366 224.55 305.1 224.55Z" fill="#FCD303"/>
<path opacity="0.68" d="M361.2 233.35C363.934 233.35 366.15 231.134 366.15 228.4C366.15 225.666 363.934 223.45 361.2 223.45C358.466 223.45 356.25 225.666 356.25 228.4C356.25 231.134 358.466 233.35 361.2 233.35Z" fill="#FCD303"/>
<path opacity="0.77" d="M401.9 275.7C404.937 275.7 407.4 273.238 407.4 270.2C407.4 267.162 404.937 264.7 401.9 264.7C398.862 264.7 396.4 267.162 396.4 270.2C396.4 273.238 398.862 275.7 401.9 275.7Z" fill="#FCD303"/>
<path opacity="0.72" d="M411.8 332.9C414.837 332.9 417.3 330.438 417.3 327.4C417.3 324.362 414.837 321.9 411.8 321.9C408.762 321.9 406.3 324.362 406.3 327.4C406.3 330.438 408.762 332.9 411.8 332.9Z" fill="#FCD303"/>
<path opacity="0.12" d="M385.4 384.6C388.437 384.6 390.9 382.138 390.9 379.1C390.9 376.062 388.437 373.6 385.4 373.6C382.362 373.6 379.9 376.062 379.9 379.1C379.9 382.138 382.362 384.6 385.4 384.6Z" fill="#FCD303"/>
<path opacity="0.41" d="M333.7 413.2C336.738 413.2 339.2 410.738 339.2 407.7C339.2 404.662 336.738 402.2 333.7 402.2C330.662 402.2 328.2 404.662 328.2 407.7C328.2 410.738 330.662 413.2 333.7 413.2Z" fill="#FCD303"/>
<path opacity="0.32" d="M275.4 405.5C278.437 405.5 280.9 403.038 280.9 400C280.9 396.962 278.437 394.5 275.4 394.5C272.362 394.5 269.9 396.962 269.9 400C269.9 403.038 272.362 405.5 275.4 405.5Z" fill="#FCD303"/>
<path opacity="0.21" d="M231.4 364.8C234.437 364.8 236.9 362.337 236.9 359.3C236.9 356.262 234.437 353.8 231.4 353.8C228.362 353.8 225.9 356.262 225.9 359.3C225.9 362.337 228.362 364.8 231.4 364.8Z" fill="#FCD303"/>
<path opacity="0.56" d="M219.3 306.5C222.337 306.5 224.8 304.038 224.8 301C224.8 297.962 222.337 295.5 219.3 295.5C216.262 295.5 213.8 297.962 213.8 301C213.8 304.038 216.262 306.5 219.3 306.5Z" fill="#FCD303"/>
<path opacity="0.5" d="M243.5 250.4C246.538 250.4 249 247.938 249 244.9C249 241.862 246.538 239.4 243.5 239.4C240.462 239.4 238 241.862 238 244.9C238 247.938 240.462 250.4 243.5 250.4Z" fill="#FCD303"/>
<path opacity="0.5" d="M296.3 219.6C299.337 219.6 301.8 217.138 301.8 214.1C301.8 211.062 299.337 208.6 296.3 208.6C293.262 208.6 290.8 211.062 290.8 214.1C290.8 217.138 293.262 219.6 296.3 219.6Z" fill="#FCD303"/>
<path opacity="0.83" d="M356.8 225.1C359.837 225.1 362.3 222.638 362.3 219.6C362.3 216.562 359.837 214.1 356.8 214.1C353.762 214.1 351.3 216.562 351.3 219.6C351.3 222.638 353.762 225.1 356.8 225.1Z" fill="#FCD303"/>
<path opacity="0.18" d="M404.1 264.7C407.137 264.7 409.6 262.238 409.6 259.2C409.6 256.162 407.137 253.7 404.1 253.7C401.062 253.7 398.6 256.162 398.6 259.2C398.6 262.238 401.062 264.7 404.1 264.7Z" fill="#FCD303"/>
<path opacity="0.99" d="M419.5 325.2C422.538 325.2 425 322.738 425 319.7C425 316.662 422.538 314.2 419.5 314.2C416.462 314.2 414 316.662 414 319.7C414 322.738 416.462 325.2 419.5 325.2Z" fill="#FCD303"/>
<path opacity="0.43" d="M396.4 383.5C399.437 383.5 401.9 381.038 401.9 378C401.9 374.962 399.437 372.5 396.4 372.5C393.362 372.5 390.9 374.962 390.9 378C390.9 381.038 393.362 383.5 396.4 383.5Z" fill="#FCD303"/>
<path opacity="0.27" d="M343.6 417.6C346.637 417.6 349.1 415.137 349.1 412.1C349.1 409.062 346.637 406.6 343.6 406.6C340.562 406.6 338.1 409.062 338.1 412.1C338.1 415.137 340.562 417.6 343.6 417.6Z" fill="#FCD303"/>
<path opacity="0.25" d="M279.8 415.4C282.837 415.4 285.3 412.938 285.3 409.9C285.3 406.862 282.837 404.4 279.8 404.4C276.762 404.4 274.3 406.862 274.3 409.9C274.3 412.938 276.762 415.4 279.8 415.4Z" fill="#FCD303"/>
<path opacity="0.79" d="M229.2 375.8C232.238 375.8 234.7 373.337 234.7 370.3C234.7 367.262 232.238 364.8 229.2 364.8C226.162 364.8 223.7 367.262 223.7 370.3C223.7 373.337 226.162 375.8 229.2 375.8Z" fill="#FCD303"/>
<path opacity="0.6" d="M211.6 314.2C214.637 314.2 217.1 311.738 217.1 308.7C217.1 305.662 214.637 303.2 211.6 303.2C208.562 303.2 206.1 305.662 206.1 308.7C206.1 311.738 208.562 314.2 211.6 314.2Z" fill="#FCD303"/>
<path opacity="0.69" d="M232.5 252.6C235.538 252.6 238 250.138 238 247.1C238 244.062 235.538 241.6 232.5 241.6C229.462 241.6 227 244.062 227 247.1C227 250.138 229.462 252.6 232.5 252.6Z" fill="#FCD303"/>
<path opacity="0.42" d="M286.4 215.2C289.437 215.2 291.9 212.738 291.9 209.7C291.9 206.662 289.437 204.2 286.4 204.2C283.362 204.2 280.9 206.662 280.9 209.7C280.9 212.738 283.362 215.2 286.4 215.2Z" fill="#FCD303"/>
<path opacity="0.27" d="M351.3 215.2C354.337 215.2 356.8 212.738 356.8 209.7C356.8 206.662 354.337 204.2 351.3 204.2C348.262 204.2 345.8 206.662 345.8 209.7C345.8 212.738 348.262 215.2 351.3 215.2Z" fill="#FCD303"/>
<path opacity="0.32" d="M405.2 253.7C408.238 253.7 410.7 251.238 410.7 248.2C410.7 245.162 408.238 242.7 405.2 242.7C402.162 242.7 399.7 245.162 399.7 248.2C399.7 251.238 402.162 253.7 405.2 253.7Z" fill="#FCD303"/>
<path opacity="0.83" d="M426.1 316.4C429.137 316.4 431.6 313.938 431.6 310.9C431.6 307.862 429.137 305.4 426.1 305.4C423.062 305.4 420.6 307.862 420.6 310.9C420.6 313.938 423.062 316.4 426.1 316.4Z" fill="#FCD303"/>
<path opacity="0.3" d="M407.4 380.2C410.437 380.2 412.9 377.738 412.9 374.7C412.9 371.662 410.437 369.2 407.4 369.2C404.362 369.2 401.9 371.662 401.9 374.7C401.9 377.738 404.362 380.2 407.4 380.2Z" fill="#FCD303"/>
<path opacity="0.55" d="M353.5 422C356.538 422 359 419.538 359 416.5C359 413.462 356.538 411 353.5 411C350.462 411 348 413.462 348 416.5C348 419.538 350.462 422 353.5 422Z" fill="#FCD303"/>
<path opacity="0.97" d="M286.4 424.2C289.437 424.2 291.9 421.738 291.9 418.7C291.9 415.662 289.437 413.2 286.4 413.2C283.362 413.2 280.9 415.662 280.9 418.7C280.9 421.738 283.362 424.2 286.4 424.2Z" fill="#FCD303"/>
<path opacity="0.37" d="M229.2 387.35C232.541 387.35 235.25 384.641 235.25 381.3C235.25 377.959 232.541 375.25 229.2 375.25C225.859 375.25 223.15 377.959 223.15 381.3C223.15 384.641 225.859 387.35 229.2 387.35Z" fill="#FCD303"/>
<path opacity="0.54" d="M205 323.55C208.341 323.55 211.05 320.841 211.05 317.5C211.05 314.159 208.341 311.45 205 311.45C201.659 311.45 198.95 314.159 198.95 317.5C198.95 320.841 201.659 323.55 205 323.55Z" fill="#FCD303"/>
<path opacity="0.75" d="M221.5 256.45C224.841 256.45 227.55 253.741 227.55 250.4C227.55 247.059 224.841 244.35 221.5 244.35C218.159 244.35 215.45 247.059 215.45 250.4C215.45 253.741 218.159 256.45 221.5 256.45Z" fill="#FCD303"/>
<path opacity="0.16" d="M275.4 212.45C278.741 212.45 281.45 209.741 281.45 206.4C281.45 203.059 278.741 200.35 275.4 200.35C272.059 200.35 269.35 203.059 269.35 206.4C269.35 209.741 272.059 212.45 275.4 212.45Z" fill="#FCD303"/>
<path opacity="0.17" d="M344.7 206.95C348.041 206.95 350.75 204.241 350.75 200.9C350.75 197.559 348.041 194.85 344.7 194.85C341.359 194.85 338.65 197.559 338.65 200.9C338.65 204.241 341.359 206.95 344.7 206.95Z" fill="#FCD303"/>
<path opacity="0.68" d="M404.1 243.25C407.441 243.25 410.15 240.541 410.15 237.2C410.15 233.859 407.441 231.15 404.1 231.15C400.758 231.15 398.05 233.859 398.05 237.2C398.05 240.541 400.758 243.25 404.1 243.25Z" fill="#FCD303"/>
<path opacity="0.72" d="M432.7 307.05C436.041 307.05 438.75 304.341 438.75 301C438.75 297.659 436.041 294.95 432.7 294.95C429.359 294.95 426.65 297.659 426.65 301C426.65 304.341 429.359 307.05 432.7 307.05Z" fill="#FCD303"/>
<path opacity="0.27" d="M418.4 377.45C421.741 377.45 424.45 374.741 424.45 371.4C424.45 368.059 421.741 365.35 418.4 365.35C415.059 365.35 412.35 368.059 412.35 371.4C412.35 374.741 415.059 377.45 418.4 377.45Z" fill="#FCD303"/>
<path opacity="0.86" d="M365.6 424.75C368.941 424.75 371.65 422.041 371.65 418.7C371.65 415.359 368.941 412.65 365.6 412.65C362.258 412.65 359.55 415.359 359.55 418.7C359.55 422.041 362.258 424.75 365.6 424.75Z" fill="#FCD303"/>
<path opacity="0.33" d="M294.1 433.55C297.441 433.55 300.15 430.841 300.15 427.5C300.15 424.159 297.441 421.45 294.1 421.45C290.758 421.45 288.05 424.159 288.05 427.5C288.05 430.841 290.758 433.55 294.1 433.55Z" fill="#FCD303"/>
<path opacity="0.22" d="M230.3 399.45C233.641 399.45 236.35 396.741 236.35 393.4C236.35 390.059 233.641 387.35 230.3 387.35C226.959 387.35 224.25 390.059 224.25 393.4C224.25 396.741 226.959 399.45 230.3 399.45Z" fill="#FCD303"/>
<path opacity="0.94" d="M198.4 333.45C201.741 333.45 204.45 330.741 204.45 327.4C204.45 324.059 201.741 321.35 198.4 321.35C195.059 321.35 192.35 324.059 192.35 327.4C192.35 330.741 195.059 333.45 198.4 333.45Z" fill="#FCD303"/>
<path opacity="0.38" d="M211.6 261.95C214.941 261.95 217.65 259.241 217.65 255.9C217.65 252.559 214.941 249.85 211.6 249.85C208.258 249.85 205.55 252.559 205.55 255.9C205.55 259.241 208.258 261.95 211.6 261.95Z" fill="#FCD303"/>
<path opacity="0.85" d="M263.3 210.25C266.641 210.25 269.35 207.541 269.35 204.2C269.35 200.859 266.641 198.15 263.3 198.15C259.959 198.15 257.25 200.859 257.25 204.2C257.25 207.541 259.959 210.25 263.3 210.25Z" fill="#FCD303"/>
<path opacity="0.72" d="M335.9 198.15C339.241 198.15 341.95 195.441 341.95 192.1C341.95 188.759 339.241 186.05 335.9 186.05C332.559 186.05 329.85 188.759 329.85 192.1C329.85 195.441 332.559 198.15 335.9 198.15Z" fill="#FCD303"/>
<path opacity="0.89" d="M403 231.15C406.341 231.15 409.05 228.441 409.05 225.1C409.05 221.759 406.341 219.05 403 219.05C399.659 219.05 396.95 221.759 396.95 225.1C396.95 228.441 399.659 231.15 403 231.15Z" fill="#FCD303"/>
<path opacity="0.57" d="M438.2 297.15C441.541 297.15 444.25 294.441 444.25 291.1C444.25 287.759 441.541 285.05 438.2 285.05C434.859 285.05 432.15 287.759 432.15 291.1C432.15 294.441 434.859 297.15 438.2 297.15Z" fill="#FCD303"/>
<path opacity="0.22" d="M428.3 370.85C431.641 370.85 434.35 368.141 434.35 364.8C434.35 361.459 431.641 358.75 428.3 358.75C424.959 358.75 422.25 361.459 422.25 364.8C422.25 368.141 424.959 370.85 428.3 370.85Z" fill="#FCD303"/>
<path opacity="0.58" d="M377.7 426.95C381.041 426.95 383.75 424.241 383.75 420.9C383.75 417.559 381.041 414.85 377.7 414.85C374.359 414.85 371.65 417.559 371.65 420.9C371.65 424.241 374.359 426.95 377.7 426.95Z" fill="#FCD303"/>
<path opacity="0.94" d="M302.9 442.35C306.241 442.35 308.95 439.641 308.95 436.3C308.95 432.959 306.241 430.25 302.9 430.25C299.559 430.25 296.85 432.959 296.85 436.3C296.85 439.641 299.559 442.35 302.9 442.35Z" fill="#F83707"/>
<path opacity="0.53" d="M232.5 411.55C235.841 411.55 238.55 408.841 238.55 405.5C238.55 402.159 235.841 399.45 232.5 399.45C229.159 399.45 226.45 402.159 226.45 405.5C226.45 408.841 229.159 411.55 232.5 411.55Z" fill="#FCD303"/>
<path opacity="0.19" d="M194 345.55C197.341 345.55 200.05 342.841 200.05 339.5C200.05 336.159 197.341 333.45 194 333.45C190.659 333.45 187.95 336.159 187.95 339.5C187.95 342.841 190.659 345.55 194 345.55Z" fill="#FCD303"/>
<path opacity="0.71" d="M200.6 268.55C203.941 268.55 206.65 265.841 206.65 262.5C206.65 259.159 203.941 256.45 200.6 256.45C197.258 256.45 194.55 259.159 194.55 262.5C194.55 265.841 197.258 268.55 200.6 268.55Z" fill="#FCD303"/>
<path opacity="0.59" d="M251.2 209.15C254.541 209.15 257.25 206.441 257.25 203.1C257.25 199.759 254.541 197.05 251.2 197.05C247.859 197.05 245.15 199.759 245.15 203.1C245.15 206.441 247.859 209.15 251.2 209.15Z" fill="#FCD303"/>
<path opacity="0.24" d="M327.1 190.45C330.441 190.45 333.15 187.741 333.15 184.4C333.15 181.059 330.441 178.35 327.1 178.35C323.758 178.35 321.05 181.059 321.05 184.4C321.05 187.741 323.758 190.45 327.1 190.45Z" fill="#FCD303"/>
<path opacity="0.76" d="M399.7 219.6C403.345 219.6 406.3 216.645 406.3 213C406.3 209.355 403.345 206.4 399.7 206.4C396.055 206.4 393.1 209.355 393.1 213C393.1 216.645 396.055 219.6 399.7 219.6Z" fill="#FCD303"/>
<path opacity="0.94" d="M442.6 285.6C446.245 285.6 449.2 282.645 449.2 279C449.2 275.355 446.245 272.4 442.6 272.4C438.955 272.4 436 275.355 436 279C436 282.645 438.955 285.6 442.6 285.6Z" fill="#FCD303"/>
<path opacity="0.46" d="M439.3 364.8C442.945 364.8 445.9 361.845 445.9 358.2C445.9 354.555 442.945 351.6 439.3 351.6C435.655 351.6 432.7 354.555 432.7 358.2C432.7 361.845 435.655 364.8 439.3 364.8Z" fill="#FCD303"/>
<path opacity="0.59" d="M389.8 427.5C393.445 427.5 396.4 424.545 396.4 420.9C396.4 417.255 393.445 414.3 389.8 414.3C386.155 414.3 383.2 417.255 383.2 420.9C383.2 424.545 386.155 427.5 389.8 427.5Z" fill="#FCD303"/>
<path opacity="0.18" d="M312.8 450.6C316.445 450.6 319.4 447.645 319.4 444C319.4 440.355 316.445 437.4 312.8 437.4C309.155 437.4 306.2 440.355 306.2 444C306.2 447.645 309.155 450.6 312.8 450.6Z" fill="#FCD303"/>
<path opacity="0.26" d="M236.9 424.2C240.545 424.2 243.5 421.245 243.5 417.6C243.5 413.955 240.545 411 236.9 411C233.255 411 230.3 413.955 230.3 417.6C230.3 421.245 233.255 424.2 236.9 424.2Z" fill="#FCD303"/>
<path opacity="0.24" d="M189.6 358.2C193.245 358.2 196.2 355.245 196.2 351.6C196.2 347.955 193.245 345 189.6 345C185.955 345 183 347.955 183 351.6C183 355.245 185.955 358.2 189.6 358.2Z" fill="#50CEF1"/>
<path opacity="0.11" d="M190.7 276.8C194.345 276.8 197.3 273.845 197.3 270.2C197.3 266.555 194.345 263.6 190.7 263.6C187.055 263.6 184.1 266.555 184.1 270.2C184.1 273.845 187.055 276.8 190.7 276.8Z" fill="#FCD303"/>
<path opacity="0.78" d="M238 209.7C241.645 209.7 244.6 206.745 244.6 203.1C244.6 199.455 241.645 196.5 238 196.5C234.355 196.5 231.4 199.455 231.4 203.1C231.4 206.745 234.355 209.7 238 209.7Z" fill="#FCD303"/>
<path opacity="0.84" d="M316.1 183.3C319.745 183.3 322.7 180.345 322.7 176.7C322.7 173.055 319.745 170.1 316.1 170.1C312.455 170.1 309.5 173.055 309.5 176.7C309.5 180.345 312.455 183.3 316.1 183.3Z" fill="#FCD303"/>
<path opacity="0.11" d="M395.3 207.5C398.945 207.5 401.9 204.545 401.9 200.9C401.9 197.255 398.945 194.3 395.3 194.3C391.655 194.3 388.7 197.255 388.7 200.9C388.7 204.545 391.655 207.5 395.3 207.5Z" fill="#FCD303"/>
<path opacity="0.6" d="M445.9 273.5C449.545 273.5 452.5 270.545 452.5 266.9C452.5 263.255 449.545 260.3 445.9 260.3C442.255 260.3 439.3 263.255 439.3 266.9C439.3 270.545 442.255 273.5 445.9 273.5Z" fill="#F47048"/>
<path opacity="0.89" d="M449.2 356C452.845 356 455.8 353.045 455.8 349.4C455.8 345.755 452.845 342.8 449.2 342.8C445.555 342.8 442.6 345.755 442.6 349.4C442.6 353.045 445.555 356 449.2 356Z" fill="#FCD303"/>
<path opacity="0.53" d="M403 426.4C406.645 426.4 409.6 423.445 409.6 419.8C409.6 416.155 406.645 413.2 403 413.2C399.355 413.2 396.4 416.155 396.4 419.8C396.4 423.445 399.355 426.4 403 426.4Z" fill="#FCD303"/>
<path opacity="0.88" d="M323.8 457.2C327.445 457.2 330.4 454.245 330.4 450.6C330.4 446.955 327.445 444 323.8 444C320.155 444 317.2 446.955 317.2 450.6C317.2 454.245 320.155 457.2 323.8 457.2Z" fill="#FCD303"/>
<path opacity="0.82" d="M242.4 436.3C246.045 436.3 249 433.345 249 429.7C249 426.055 246.045 423.1 242.4 423.1C238.755 423.1 235.8 426.055 235.8 429.7C235.8 433.345 238.755 436.3 242.4 436.3Z" fill="#FCD303"/>
<path opacity="0.61" d="M187.4 370.3C191.045 370.3 194 367.345 194 363.7C194 360.055 191.045 357.1 187.4 357.1C183.755 357.1 180.8 360.055 180.8 363.7C180.8 367.345 183.755 370.3 187.4 370.3Z" fill="#FCD303"/>
<path opacity="0.61" d="M180.8 285.6C184.445 285.6 187.4 282.645 187.4 279C187.4 275.355 184.445 272.4 180.8 272.4C177.155 272.4 174.2 275.355 174.2 279C174.2 282.645 177.155 285.6 180.8 285.6Z" fill="#FCD303"/>
<path opacity="0.82" d="M224.8 211.9C228.445 211.9 231.4 208.945 231.4 205.3C231.4 201.655 228.445 198.7 224.8 198.7C221.155 198.7 218.2 201.655 218.2 205.3C218.2 208.945 221.155 211.9 224.8 211.9Z" fill="#FCD303"/>
<path opacity="0.58" d="M304 177.8C307.645 177.8 310.6 174.845 310.6 171.2C310.6 167.555 307.645 164.6 304 164.6C300.355 164.6 297.4 167.555 297.4 171.2C297.4 174.845 300.355 177.8 304 177.8Z" fill="#43FA1E"/>
<path opacity="0.58" d="M388.7 195.4C392.345 195.4 395.3 192.445 395.3 188.8C395.3 185.155 392.345 182.2 388.7 182.2C385.055 182.2 382.1 185.155 382.1 188.8C382.1 192.445 385.055 195.4 388.7 195.4Z" fill="#FCD303"/>
<path opacity="0.89" d="M448.1 259.2C451.745 259.2 454.7 256.245 454.7 252.6C454.7 248.955 451.745 246 448.1 246C444.455 246 441.5 248.955 441.5 252.6C441.5 256.245 444.455 259.2 448.1 259.2Z" fill="#FCD303"/>
<path opacity="0.23" d="M458 347.2C461.645 347.2 464.6 344.245 464.6 340.6C464.6 336.955 461.645 334 458 334C454.355 334 451.4 336.955 451.4 340.6C451.4 344.245 454.355 347.2 458 347.2Z" fill="#FCD303"/>
<path opacity="0.39" d="M416.2 424.2C419.845 424.2 422.8 421.245 422.8 417.6C422.8 413.955 419.845 411 416.2 411C412.555 411 409.6 413.955 409.6 417.6C409.6 421.245 412.555 424.2 416.2 424.2Z" fill="#FCD303"/>
<path opacity="0.63" d="M337 462.7C340.645 462.7 343.6 459.745 343.6 456.1C343.6 452.455 340.645 449.5 337 449.5C333.355 449.5 330.4 452.455 330.4 456.1C330.4 459.745 333.355 462.7 337 462.7Z" fill="#FCD303"/>
<path opacity="0.22" d="M249 447.85C252.949 447.85 256.15 444.649 256.15 440.7C256.15 436.751 252.949 433.55 249 433.55C245.051 433.55 241.85 436.751 241.85 440.7C241.85 444.649 245.051 447.85 249 447.85Z" fill="#FCD303"/>
<path opacity="0.82" d="M186.3 385.15C190.249 385.15 193.45 381.949 193.45 378C193.45 374.051 190.249 370.85 186.3 370.85C182.351 370.85 179.15 374.051 179.15 378C179.15 381.949 182.351 385.15 186.3 385.15Z" fill="#FCD303"/>
<path opacity="0.72" d="M172 296.05C175.949 296.05 179.15 292.849 179.15 288.9C179.15 284.951 175.949 281.75 172 281.75C168.051 281.75 164.85 284.951 164.85 288.9C164.85 292.849 168.051 296.05 172 296.05Z" fill="#FCD303"/>
<path opacity="0.72" d="M211.6 215.75C215.549 215.75 218.75 212.549 218.75 208.6C218.75 204.651 215.549 201.45 211.6 201.45C207.651 201.45 204.45 204.651 204.45 208.6C204.45 212.549 207.651 215.75 211.6 215.75Z" fill="#FCD303"/>
<path opacity="0.52" d="M290.8 172.85C294.749 172.85 297.95 169.649 297.95 165.7C297.95 161.751 294.749 158.55 290.8 158.55C286.851 158.55 283.65 161.751 283.65 165.7C283.65 169.649 286.851 172.85 290.8 172.85Z" fill="#FCD303"/>
<path opacity="0.15" d="M381 183.85C384.949 183.85 388.15 180.649 388.15 176.7C388.15 172.751 384.949 169.55 381 169.55C377.051 169.55 373.85 172.751 373.85 176.7C373.85 180.649 377.051 183.85 381 183.85Z" fill="#FCD303"/>
<path opacity="0.51" d="M448.1 246.55C452.049 246.55 455.25 243.349 455.25 239.4C455.25 235.451 452.049 232.25 448.1 232.25C444.151 232.25 440.95 235.451 440.95 239.4C440.95 243.349 444.151 246.55 448.1 246.55Z" fill="#FCD303"/>
<path opacity="0.61" d="M466.8 335.65C470.749 335.65 473.95 332.449 473.95 328.5C473.95 324.551 470.749 321.35 466.8 321.35C462.851 321.35 459.65 324.551 459.65 328.5C459.65 332.449 462.851 335.65 466.8 335.65Z" fill="#FCD303"/>
<path opacity="0.64" d="M429.4 420.35C433.349 420.35 436.55 417.149 436.55 413.2C436.55 409.251 433.349 406.05 429.4 406.05C425.451 406.05 422.25 409.251 422.25 413.2C422.25 417.149 425.451 420.35 429.4 420.35Z" fill="#FCD303"/>
<path opacity="0.18" d="M350.2 467.65C354.149 467.65 357.35 464.449 357.35 460.5C357.35 456.551 354.149 453.35 350.2 453.35C346.251 453.35 343.05 456.551 343.05 460.5C343.05 464.449 346.251 467.65 350.2 467.65Z" fill="#FCD303"/>
<path opacity="0.16" d="M257.8 459.95C261.749 459.95 264.95 456.749 264.95 452.8C264.95 448.851 261.749 445.65 257.8 445.65C253.851 445.65 250.65 448.851 250.65 452.8C250.65 456.749 253.851 459.95 257.8 459.95Z" fill="#FCD303"/>
<path opacity="0.37" d="M186.3 399.45C190.249 399.45 193.45 396.249 193.45 392.3C193.45 388.351 190.249 385.15 186.3 385.15C182.351 385.15 179.15 388.351 179.15 392.3C179.15 396.249 182.351 399.45 186.3 399.45Z" fill="#FCD303"/>
<path opacity="0.69" d="M163.2 308.15C167.149 308.15 170.35 304.949 170.35 301C170.35 297.051 167.149 293.85 163.2 293.85C159.251 293.85 156.05 297.051 156.05 301C156.05 304.949 159.251 308.15 163.2 308.15Z" fill="#FCD303"/>
<path opacity="0.59" d="M198.4 220.15C202.349 220.15 205.55 216.949 205.55 213C205.55 209.051 202.349 205.85 198.4 205.85C194.451 205.85 191.25 209.051 191.25 213C191.25 216.949 194.451 220.15 198.4 220.15Z" fill="#FCD303"/>
<path opacity="0.27" d="M277.6 168.45C281.549 168.45 284.75 165.249 284.75 161.3C284.75 157.351 281.549 154.15 277.6 154.15C273.651 154.15 270.45 157.351 270.45 161.3C270.45 165.249 273.651 168.45 277.6 168.45Z" fill="#FCD303"/>
<path opacity="0.3" d="M372.2 172.85C376.149 172.85 379.35 169.649 379.35 165.7C379.35 161.751 376.149 158.55 372.2 158.55C368.251 158.55 365.05 161.751 365.05 165.7C365.05 169.649 368.251 172.85 372.2 172.85Z" fill="#FCD303"/>
<path opacity="0.18" d="M448.1 232.25C452.049 232.25 455.25 229.049 455.25 225.1C455.25 221.151 452.049 217.95 448.1 217.95C444.151 217.95 440.95 221.151 440.95 225.1C440.95 229.049 444.151 232.25 448.1 232.25Z" fill="#FCD303"/>
<path opacity="0.86" d="M474.5 323.55C478.449 323.55 481.65 320.349 481.65 316.4C481.65 312.451 478.449 309.25 474.5 309.25C470.551 309.25 467.35 312.451 467.35 316.4C467.35 320.349 470.551 323.55 474.5 323.55Z" fill="#FCD303"/>
<path opacity="0.21" d="M443.7 414.85C447.649 414.85 450.85 411.649 450.85 407.7C450.85 403.751 447.649 400.55 443.7 400.55C439.751 400.55 436.55 403.751 436.55 407.7C436.55 411.649 439.751 414.85 443.7 414.85Z" fill="#FCD303"/>
<path opacity="0.43" d="M364.5 470.95C368.449 470.95 371.65 467.749 371.65 463.8C371.65 459.851 368.449 456.65 364.5 456.65C360.551 456.65 357.35 459.851 357.35 463.8C357.35 467.749 360.551 470.95 364.5 470.95Z" fill="#FCD303"/>
<path opacity="0.18" d="M266.6 470.95C270.549 470.95 273.75 467.749 273.75 463.8C273.75 459.851 270.549 456.65 266.6 456.65C262.651 456.65 259.45 459.851 259.45 463.8C259.45 467.749 262.651 470.95 266.6 470.95Z" fill="#FCD303"/>
<path opacity="0.57" d="M187.4 413.75C191.349 413.75 194.55 410.549 194.55 406.6C194.55 402.651 191.349 399.45 187.4 399.45C183.451 399.45 180.25 402.651 180.25 406.6C180.25 410.549 183.451 413.75 187.4 413.75Z" fill="#FCD303"/>
<path opacity="0.16" d="M156.6 321.35C160.549 321.35 163.75 318.149 163.75 314.2C163.75 310.251 160.549 307.05 156.6 307.05C152.651 307.05 149.45 310.251 149.45 314.2C149.45 318.149 152.651 321.35 156.6 321.35Z" fill="#FCD303"/>
<path opacity="0.85" d="M184.1 226.75C188.049 226.75 191.25 223.549 191.25 219.6C191.25 215.651 188.049 212.45 184.1 212.45C180.151 212.45 176.95 215.651 176.95 219.6C176.95 223.549 180.151 226.75 184.1 226.75Z" fill="#EC2626"/>
<path opacity="0.84" d="M262.2 166.25C266.149 166.25 269.35 163.049 269.35 159.1C269.35 155.151 266.149 151.95 262.2 151.95C258.251 151.95 255.05 155.151 255.05 159.1C255.05 163.049 258.251 166.25 262.2 166.25Z" fill="#FCD303"/>
<path opacity="0.82" d="M362.3 161.85C366.249 161.85 369.45 158.649 369.45 154.7C369.45 150.751 366.249 147.55 362.3 147.55C358.351 147.55 355.15 150.751 355.15 154.7C355.15 158.649 358.351 161.85 362.3 161.85Z" fill="#FCD303"/>
<path opacity="0.9" d="M444.8 217.4C449.052 217.4 452.5 213.953 452.5 209.7C452.5 205.447 449.052 202 444.8 202C440.547 202 437.1 205.447 437.1 209.7C437.1 213.953 440.547 217.4 444.8 217.4Z" fill="#0C8EEA"/>
<path opacity="0.69" d="M481.1 310.9C485.352 310.9 488.8 307.453 488.8 303.2C488.8 298.947 485.352 295.5 481.1 295.5C476.847 295.5 473.4 298.947 473.4 303.2C473.4 307.453 476.847 310.9 481.1 310.9Z" fill="#FCD303"/>
<path opacity="0.21" d="M456.9 408.8C461.153 408.8 464.6 405.353 464.6 401.1C464.6 396.847 461.153 393.4 456.9 393.4C452.647 393.4 449.2 396.847 449.2 401.1C449.2 405.353 452.647 408.8 456.9 408.8Z" fill="#FCD303"/>
<path opacity="0.84" d="M378.8 473.7C383.052 473.7 386.5 470.253 386.5 466C386.5 461.747 383.052 458.3 378.8 458.3C374.547 458.3 371.1 461.747 371.1 466C371.1 470.253 374.547 473.7 378.8 473.7Z" fill="#FCD303"/>
<path opacity="0.11" d="M278.7 481.4C282.953 481.4 286.4 477.953 286.4 473.7C286.4 469.447 282.953 466 278.7 466C274.447 466 271 469.447 271 473.7C271 477.953 274.447 481.4 278.7 481.4Z" fill="#FCD303"/>
<path opacity="0.25" d="M190.7 429.7C194.953 429.7 198.4 426.253 198.4 422C198.4 417.747 194.953 414.3 190.7 414.3C186.447 414.3 183 417.747 183 422C183 426.253 186.447 429.7 190.7 429.7Z" fill="#FCD303"/>
<path opacity="0.6" d="M150 335.1C154.252 335.1 157.7 331.653 157.7 327.4C157.7 323.147 154.252 319.7 150 319.7C145.747 319.7 142.3 323.147 142.3 327.4C142.3 331.653 145.747 335.1 150 335.1Z" fill="#FCD303"/>
<path opacity="0.47" d="M170.9 235C175.153 235 178.6 231.553 178.6 227.3C178.6 223.047 175.153 219.6 170.9 219.6C166.647 219.6 163.2 223.047 163.2 227.3C163.2 231.553 166.647 235 170.9 235Z" fill="#FCD303"/>
<path opacity="0.81" d="M246.8 165.7C251.052 165.7 254.5 162.253 254.5 158C254.5 153.747 251.052 150.3 246.8 150.3C242.547 150.3 239.1 153.747 239.1 158C239.1 162.253 242.547 165.7 246.8 165.7Z" fill="#FCD303"/>
<path opacity="0.44" d="M350.2 152.5C354.453 152.5 357.9 149.053 357.9 144.8C357.9 140.547 354.453 137.1 350.2 137.1C345.947 137.1 342.5 140.547 342.5 144.8C342.5 149.053 345.947 152.5 350.2 152.5Z" fill="#FCD303"/>
<path opacity="0.33" d="M441.5 203.1C445.752 203.1 449.2 199.653 449.2 195.4C449.2 191.147 445.752 187.7 441.5 187.7C437.247 187.7 433.8 191.147 433.8 195.4C433.8 199.653 437.247 203.1 441.5 203.1Z" fill="#FCD303"/>
<path opacity="0.8" d="M486.6 296.6C490.852 296.6 494.3 293.153 494.3 288.9C494.3 284.647 490.852 281.2 486.6 281.2C482.347 281.2 478.9 284.647 478.9 288.9C478.9 293.153 482.347 296.6 486.6 296.6Z" fill="#FCD303"/>
<path opacity="0.88" d="M469 400C473.252 400 476.7 396.553 476.7 392.3C476.7 388.047 473.252 384.6 469 384.6C464.747 384.6 461.3 388.047 461.3 392.3C461.3 396.553 464.747 400 469 400Z" fill="#FCD303"/>
<path opacity="0.85" d="M395.3 473.7C399.552 473.7 403 470.253 403 466C403 461.747 399.552 458.3 395.3 458.3C391.047 458.3 387.6 461.747 387.6 466C387.6 470.253 391.047 473.7 395.3 473.7Z" fill="#FCD303"/>
<path opacity="0.57" d="M290.8 491.3C295.052 491.3 298.5 487.853 298.5 483.6C298.5 479.347 295.052 475.9 290.8 475.9C286.547 475.9 283.1 479.347 283.1 483.6C283.1 487.853 286.547 491.3 290.8 491.3Z" fill="#FCD303"/>
<path opacity="0.31" d="M196.2 444C200.453 444 203.9 440.553 203.9 436.3C203.9 432.047 200.453 428.6 196.2 428.6C191.947 428.6 188.5 432.047 188.5 436.3C188.5 440.553 191.947 444 196.2 444Z" fill="#FCD303"/>
<path opacity="0.56" d="M145.6 350.5C149.852 350.5 153.3 347.053 153.3 342.8C153.3 338.547 149.852 335.1 145.6 335.1C141.347 335.1 137.9 338.547 137.9 342.8C137.9 347.053 141.347 350.5 145.6 350.5Z" fill="#FCD303"/>
<path opacity="0.71" d="M158.8 244.9C163.052 244.9 166.5 241.453 166.5 237.2C166.5 232.947 163.052 229.5 158.8 229.5C154.547 229.5 151.1 232.947 151.1 237.2C151.1 241.453 154.547 244.9 158.8 244.9Z" fill="#FCD303"/>
<path opacity="0.34" d="M231.4 165.7C235.653 165.7 239.1 162.253 239.1 158C239.1 153.747 235.653 150.3 231.4 150.3C227.147 150.3 223.7 153.747 223.7 158C223.7 162.253 227.147 165.7 231.4 165.7Z" fill="#FCD303"/>
<path opacity="0.15" d="M337 143.7C341.252 143.7 344.7 140.253 344.7 136C344.7 131.747 341.252 128.3 337 128.3C332.747 128.3 329.3 131.747 329.3 136C329.3 140.253 332.747 143.7 337 143.7Z" fill="#FCD303"/>
<path opacity="0.38" d="M436 187.7C440.252 187.7 443.7 184.253 443.7 180C443.7 175.747 440.252 172.3 436 172.3C431.747 172.3 428.3 175.747 428.3 180C428.3 184.253 431.747 187.7 436 187.7Z" fill="#FCD303"/>
<path opacity="0.72" d="M491 281.2C495.252 281.2 498.7 277.753 498.7 273.5C498.7 269.247 495.252 265.8 491 265.8C486.747 265.8 483.3 269.247 483.3 273.5C483.3 277.753 486.747 281.2 491 281.2Z" fill="#FCD303"/>
<path opacity="0.28" d="M482.2 389C486.453 389 489.9 385.553 489.9 381.3C489.9 377.047 486.453 373.6 482.2 373.6C477.947 373.6 474.5 377.047 474.5 381.3C474.5 385.553 477.947 389 482.2 389Z" fill="#FCD303"/>
<path opacity="0.26" d="M410.7 472.6C414.953 472.6 418.4 469.153 418.4 464.9C418.4 460.647 414.953 457.2 410.7 457.2C406.447 457.2 403 460.647 403 464.9C403 469.153 406.447 472.6 410.7 472.6Z" fill="#FCD303"/>
<path opacity="0.32" d="M305.1 499C309.352 499 312.8 495.553 312.8 491.3C312.8 487.047 309.352 483.6 305.1 483.6C300.847 483.6 297.4 487.047 297.4 491.3C297.4 495.553 300.847 499 305.1 499Z" fill="#FCD303"/>
<path opacity="0.13" d="M201.7 459.95C206.256 459.95 209.95 456.256 209.95 451.7C209.95 447.144 206.256 443.45 201.7 443.45C197.144 443.45 193.45 447.144 193.45 451.7C193.45 456.256 197.144 459.95 201.7 459.95Z" fill="#FCD303"/>
<path opacity="0.84" d="M142.3 367.55C146.856 367.55 150.55 363.856 150.55 359.3C150.55 354.744 146.856 351.05 142.3 351.05C137.743 351.05 134.05 354.744 134.05 359.3C134.05 363.856 137.743 367.55 142.3 367.55Z" fill="#FCD303"/>
<path opacity="0.27" d="M146.7 256.45C151.256 256.45 154.95 252.756 154.95 248.2C154.95 243.644 151.256 239.95 146.7 239.95C142.144 239.95 138.45 243.644 138.45 248.2C138.45 252.756 142.144 256.45 146.7 256.45Z" fill="#FCD303"/>
<path opacity="0.81" d="M214.9 168.45C219.456 168.45 223.15 164.756 223.15 160.2C223.15 155.644 219.456 151.95 214.9 151.95C210.344 151.95 206.65 155.644 206.65 160.2C206.65 164.756 210.344 168.45 214.9 168.45Z" fill="#FCD303"/>
<path opacity="0.84" d="M322.7 136.55C327.256 136.55 330.95 132.856 330.95 128.3C330.95 123.744 327.256 120.05 322.7 120.05C318.144 120.05 314.45 123.744 314.45 128.3C314.45 132.856 318.144 136.55 322.7 136.55Z" fill="#FCD303"/>
<path opacity="0.39" d="M428.3 172.85C432.856 172.85 436.55 169.156 436.55 164.6C436.55 160.044 432.856 156.35 428.3 156.35C423.743 156.35 420.05 160.044 420.05 164.6C420.05 169.156 423.743 172.85 428.3 172.85Z" fill="#FCD303"/>
<path opacity="0.92" d="M493.2 265.25C497.756 265.25 501.45 261.556 501.45 257C501.45 252.444 497.756 248.75 493.2 248.75C488.644 248.75 484.95 252.444 484.95 257C484.95 261.556 488.644 265.25 493.2 265.25Z" fill="#FCD303"/>
<path opacity="0.53" d="M493.2 378.55C497.756 378.55 501.45 374.856 501.45 370.3C501.45 365.744 497.756 362.05 493.2 362.05C488.644 362.05 484.95 365.744 484.95 370.3C484.95 374.856 488.644 378.55 493.2 378.55Z" fill="#3003FC"/>
<path opacity="0.73" d="M427.2 469.85C431.756 469.85 435.45 466.156 435.45 461.6C435.45 457.044 431.756 453.35 427.2 453.35C422.644 453.35 418.95 457.044 418.95 461.6C418.95 466.156 422.644 469.85 427.2 469.85Z" fill="#FCD303"/>
<path opacity="0.27" d="M319.4 507.25C323.956 507.25 327.65 503.556 327.65 499C327.65 494.444 323.956 490.75 319.4 490.75C314.844 490.75 311.15 494.444 311.15 499C311.15 503.556 314.844 507.25 319.4 507.25Z" fill="#FCD303"/>
<path opacity="0.88" d="M210.5 474.25C215.056 474.25 218.75 470.556 218.75 466C218.75 461.444 215.056 457.75 210.5 457.75C205.944 457.75 202.25 461.444 202.25 466C202.25 470.556 205.944 474.25 210.5 474.25Z" fill="#FCD303"/>
<path opacity="0.69" d="M140.1 384.05C144.656 384.05 148.35 380.356 148.35 375.8C148.35 371.244 144.656 367.55 140.1 367.55C135.544 367.55 131.85 371.244 131.85 375.8C131.85 380.356 135.544 384.05 140.1 384.05Z" fill="#FCD303"/>
<path opacity="0.69" d="M135.7 268.55C140.256 268.55 143.95 264.856 143.95 260.3C143.95 255.744 140.256 252.05 135.7 252.05C131.144 252.05 127.45 255.744 127.45 260.3C127.45 264.856 131.144 268.55 135.7 268.55Z" fill="#FCD303"/>
<path opacity="0.24" d="M198.4 171.75C202.956 171.75 206.65 168.056 206.65 163.5C206.65 158.944 202.956 155.25 198.4 155.25C193.844 155.25 190.15 158.944 190.15 163.5C190.15 168.056 193.844 171.75 198.4 171.75Z" fill="#FCD303"/>
<path opacity="0.8" d="M306.2 129.95C310.756 129.95 314.45 126.256 314.45 121.7C314.45 117.144 310.756 113.45 306.2 113.45C301.644 113.45 297.95 117.144 297.95 121.7C297.95 126.256 301.644 129.95 306.2 129.95Z" fill="#FCD303"/>
<path opacity="0.61" d="M419.5 158.55C424.056 158.55 427.75 154.856 427.75 150.3C427.75 145.744 424.056 142.05 419.5 142.05C414.944 142.05 411.25 145.744 411.25 150.3C411.25 154.856 414.944 158.55 419.5 158.55Z" fill="#FCD303"/>
<path opacity="0.98" d="M494.3 247.65C498.856 247.65 502.55 243.956 502.55 239.4C502.55 234.844 498.856 231.15 494.3 231.15C489.743 231.15 486.05 234.844 486.05 239.4C486.05 243.956 489.743 247.65 494.3 247.65Z" fill="#FCD303"/>
<path opacity="0.36" d="M504.2 365.35C508.756 365.35 512.45 361.656 512.45 357.1C512.45 352.544 508.756 348.85 504.2 348.85C499.644 348.85 495.95 352.544 495.95 357.1C495.95 361.656 499.644 365.35 504.2 365.35Z" fill="#FCD303"/>
<path opacity="0.98" d="M443.7 465.45C448.256 465.45 451.95 461.756 451.95 457.2C451.95 452.644 448.256 448.95 443.7 448.95C439.144 448.95 435.45 452.644 435.45 457.2C435.45 461.756 439.144 465.45 443.7 465.45Z" fill="#FCD303"/>
<path opacity="0.33" d="M335.9 512.75C340.456 512.75 344.15 509.056 344.15 504.5C344.15 499.944 340.456 496.25 335.9 496.25C331.344 496.25 327.65 499.944 327.65 504.5C327.65 509.056 331.344 512.75 335.9 512.75Z" fill="#FCD303"/>
<path opacity="0.61" d="M220.4 488.55C224.956 488.55 228.65 484.856 228.65 480.3C228.65 475.744 224.956 472.05 220.4 472.05C215.844 472.05 212.15 475.744 212.15 480.3C212.15 484.856 215.844 488.55 220.4 488.55Z" fill="#FCD303"/>
<path opacity="0.88" d="M140.1 401.65C144.656 401.65 148.35 397.956 148.35 393.4C148.35 388.844 144.656 385.15 140.1 385.15C135.544 385.15 131.85 388.844 131.85 393.4C131.85 397.956 135.544 401.65 140.1 401.65Z" fill="#FCD303"/>
<path opacity="0.14" d="M124.7 282.85C129.256 282.85 132.95 279.156 132.95 274.6C132.95 270.044 129.256 266.35 124.7 266.35C120.144 266.35 116.45 270.044 116.45 274.6C116.45 279.156 120.144 282.85 124.7 282.85Z" fill="#FCD303"/>
<path opacity="0.82" d="M181.9 177.25C186.456 177.25 190.15 173.556 190.15 169C190.15 164.444 186.456 160.75 181.9 160.75C177.344 160.75 173.65 164.444 173.65 169C173.65 173.556 177.344 177.25 181.9 177.25Z" fill="#FCD303"/>
<path opacity="0.97" d="M289.7 124.45C294.256 124.45 297.95 120.756 297.95 116.2C297.95 111.644 294.256 107.95 289.7 107.95C285.144 107.95 281.45 111.644 281.45 116.2C281.45 120.756 285.144 124.45 289.7 124.45Z" fill="#FCD303"/>
<path opacity="0.67" d="M408.5 145.9C413.36 145.9 417.3 141.96 417.3 137.1C417.3 132.24 413.36 128.3 408.5 128.3C403.64 128.3 399.7 132.24 399.7 137.1C399.7 141.96 403.64 145.9 408.5 145.9Z" fill="#FCD303"/>
<path opacity="0.22" d="M494.3 230.6C499.16 230.6 503.1 226.66 503.1 221.8C503.1 216.94 499.16 213 494.3 213C489.44 213 485.5 216.94 485.5 221.8C485.5 226.66 489.44 230.6 494.3 230.6Z" fill="#FCD303"/>
<path opacity="0.73" d="M514.1 350.5C518.96 350.5 522.9 346.56 522.9 341.7C522.9 336.84 518.96 332.9 514.1 332.9C509.24 332.9 505.3 336.84 505.3 341.7C505.3 346.56 509.24 350.5 514.1 350.5Z" fill="#FCD303"/>
<path opacity="0.66" d="M460.2 460.5C465.06 460.5 469 456.56 469 451.7C469 446.84 465.06 442.9 460.2 442.9C455.34 442.9 451.4 446.84 451.4 451.7C451.4 456.56 455.34 460.5 460.2 460.5Z" fill="#FCD303"/>
<path opacity="0.76" d="M353.5 517.7C358.36 517.7 362.3 513.76 362.3 508.9C362.3 504.04 358.36 500.1 353.5 500.1C348.64 500.1 344.7 504.04 344.7 508.9C344.7 513.76 348.64 517.7 353.5 517.7Z" fill="#FCD303"/>
<path opacity="0.77" d="M231.4 503.4C236.26 503.4 240.2 499.46 240.2 494.6C240.2 489.74 236.26 485.8 231.4 485.8C226.54 485.8 222.6 489.74 222.6 494.6C222.6 499.46 226.54 503.4 231.4 503.4Z" fill="#FCD303"/>
<path opacity="0.43" d="M141.2 419.8C146.06 419.8 150 415.86 150 411C150 406.14 146.06 402.2 141.2 402.2C136.34 402.2 132.4 406.14 132.4 411C132.4 415.86 136.34 419.8 141.2 419.8Z" fill="#FCD303"/>
<path opacity="0.89" d="M115.9 298.8C120.76 298.8 124.7 294.86 124.7 290C124.7 285.14 120.76 281.2 115.9 281.2C111.04 281.2 107.1 285.14 107.1 290C107.1 294.86 111.04 298.8 115.9 298.8Z" fill="#FCD303"/>
<path opacity="0.91" d="M165.4 185.5C170.26 185.5 174.2 181.56 174.2 176.7C174.2 171.84 170.26 167.9 165.4 167.9C160.54 167.9 156.6 171.84 156.6 176.7C156.6 181.56 160.54 185.5 165.4 185.5Z" fill="#FCD303"/>
<path opacity="0.42" d="M272.1 121.7C276.96 121.7 280.9 117.76 280.9 112.9C280.9 108.04 276.96 104.1 272.1 104.1C267.24 104.1 263.3 108.04 263.3 112.9C263.3 117.76 267.24 121.7 272.1 121.7Z" fill="#FCD303"/>
<path opacity="0.47" d="M396.4 132.7C401.26 132.7 405.2 128.76 405.2 123.9C405.2 119.04 401.26 115.1 396.4 115.1C391.54 115.1 387.6 119.04 387.6 123.9C387.6 128.76 391.54 132.7 396.4 132.7Z" fill="#FCD303"/>
<path opacity="0.94" d="M492.1 213C496.96 213 500.9 209.06 500.9 204.2C500.9 199.34 496.96 195.4 492.1 195.4C487.24 195.4 483.3 199.34 483.3 204.2C483.3 209.06 487.24 213 492.1 213Z" fill="#FCD303"/>
<path opacity="0.14" d="M522.9 335.1C527.76 335.1 531.7 331.16 531.7 326.3C531.7 321.44 527.76 317.5 522.9 317.5C518.04 317.5 514.1 321.44 514.1 326.3C514.1 331.16 518.04 335.1 522.9 335.1Z" fill="#FCD303"/>
<path opacity="0.75" d="M476.7 451.7C481.56 451.7 485.5 447.76 485.5 442.9C485.5 438.04 481.56 434.1 476.7 434.1C471.84 434.1 467.9 438.04 467.9 442.9C467.9 447.76 471.84 451.7 476.7 451.7Z" fill="#FCD303"/>
<path opacity="0.43" d="M371.1 521C375.96 521 379.9 517.06 379.9 512.2C379.9 507.34 375.96 503.4 371.1 503.4C366.24 503.4 362.3 507.34 362.3 512.2C362.3 517.06 366.24 521 371.1 521Z" fill="#FCD303"/>
<path opacity="0.14" d="M244.6 515.5C249.46 515.5 253.4 511.56 253.4 506.7C253.4 501.84 249.46 497.9 244.6 497.9C239.74 497.9 235.8 501.84 235.8 506.7C235.8 511.56 239.74 515.5 244.6 515.5Z" fill="#FCD303"/>
<path opacity="0.36" d="M144.5 437.4C149.36 437.4 153.3 433.46 153.3 428.6C153.3 423.74 149.36 419.8 144.5 419.8C139.64 419.8 135.7 423.74 135.7 428.6C135.7 433.46 139.64 437.4 144.5 437.4Z" fill="#FCD303"/>
<path opacity="0.19" d="M108.2 315.3C113.06 315.3 117 311.36 117 306.5C117 301.64 113.06 297.7 108.2 297.7C103.34 297.7 99.3999 301.64 99.3999 306.5C99.3999 311.36 103.34 315.3 108.2 315.3Z" fill="#59F499"/>
<path opacity="0.45" d="M148.9 194.3C153.76 194.3 157.7 190.36 157.7 185.5C157.7 180.64 153.76 176.7 148.9 176.7C144.04 176.7 140.1 180.64 140.1 185.5C140.1 190.36 144.04 194.3 148.9 194.3Z" fill="#FCD303"/>
<path opacity="0.42" d="M254.5 119.5C259.36 119.5 263.3 115.56 263.3 110.7C263.3 105.84 259.36 101.9 254.5 101.9C249.64 101.9 245.7 105.84 245.7 110.7C245.7 115.56 249.64 119.5 254.5 119.5Z" fill="#FCD303"/>
<path opacity="0.9" d="M383.2 119.5C388.06 119.5 392 115.56 392 110.7C392 105.84 388.06 101.9 383.2 101.9C378.34 101.9 374.4 105.84 374.4 110.7C374.4 115.56 378.34 119.5 383.2 119.5Z" fill="#FCD303"/>
<path opacity="0.88" d="M487.7 195.4C492.56 195.4 496.5 191.46 496.5 186.6C496.5 181.74 492.56 177.8 487.7 177.8C482.84 177.8 478.9 181.74 478.9 186.6C478.9 191.46 482.84 195.4 487.7 195.4Z" fill="#FCD303"/>
<path opacity="0.37" d="M529.5 317.5C534.36 317.5 538.3 313.56 538.3 308.7C538.3 303.84 534.36 299.9 529.5 299.9C524.64 299.9 520.7 303.84 520.7 308.7C520.7 313.56 524.64 317.5 529.5 317.5Z" fill="#FCD303"/>
<path opacity="0.71" d="M493.2 441.8C498.06 441.8 502 437.86 502 433C502 428.14 498.06 424.2 493.2 424.2C488.34 424.2 484.4 428.14 484.4 433C484.4 437.86 488.34 441.8 493.2 441.8Z" fill="#FCD303"/>
<path opacity="0.29" d="M389.8 522.1C394.66 522.1 398.6 518.16 398.6 513.3C398.6 508.44 394.66 504.5 389.8 504.5C384.94 504.5 381 508.44 381 513.3C381 518.16 384.94 522.1 389.8 522.1Z" fill="#FCD303"/>
<path opacity="0.98" d="M258.9 528.15C264.064 528.15 268.25 523.964 268.25 518.8C268.25 513.636 264.064 509.45 258.9 509.45C253.736 509.45 249.55 513.636 249.55 518.8C249.55 523.964 253.736 528.15 258.9 528.15Z" fill="#FCD303"/>
<path opacity="0.74" d="M148.9 456.65C154.064 456.65 158.25 452.464 158.25 447.3C158.25 442.136 154.064 437.95 148.9 437.95C143.736 437.95 139.55 442.136 139.55 447.3C139.55 452.464 143.736 456.65 148.9 456.65Z" fill="#FCD303"/>
<path d="M101.6 333.45C106.764 333.45 110.95 329.264 110.95 324.1C110.95 318.936 106.764 314.75 101.6 314.75C96.4361 314.75 92.25 318.936 92.25 324.1C92.25 329.264 96.4361 333.45 101.6 333.45Z" fill="#FCD303"/>
<path opacity="0.93" d="M133.5 205.85C138.664 205.85 142.85 201.664 142.85 196.5C142.85 191.336 138.664 187.15 133.5 187.15C128.336 187.15 124.15 191.336 124.15 196.5C124.15 201.664 128.336 205.85 133.5 205.85Z" fill="#FCD303"/>
<path opacity="0.66" d="M234.7 120.05C239.864 120.05 244.05 115.864 244.05 110.7C244.05 105.536 239.864 101.35 234.7 101.35C229.536 101.35 225.35 105.536 225.35 110.7C225.35 115.864 229.536 120.05 234.7 120.05Z" fill="#FCD303"/>
<path opacity="0.23" d="M367.8 109.05C372.964 109.05 377.15 104.864 377.15 99.7C377.15 94.5361 372.964 90.35 367.8 90.35C362.636 90.35 358.45 94.5361 358.45 99.7C358.45 104.864 362.636 109.05 367.8 109.05Z" fill="#FCD303"/>
<path opacity="0.64" d="M482.2 177.25C487.364 177.25 491.55 173.064 491.55 167.9C491.55 162.736 487.364 158.55 482.2 158.55C477.036 158.55 472.85 162.736 472.85 167.9C472.85 173.064 477.036 177.25 482.2 177.25Z" fill="#FCD303"/>
<path d="M536.1 299.35C541.264 299.35 545.45 295.164 545.45 290C545.45 284.836 541.264 280.65 536.1 280.65C530.936 280.65 526.75 284.836 526.75 290C526.75 295.164 530.936 299.35 536.1 299.35Z" fill="#FCD303"/>
<path opacity="0.7" d="M508.6 431.35C513.764 431.35 517.95 427.164 517.95 422C517.95 416.836 513.764 412.65 508.6 412.65C503.436 412.65 499.25 416.836 499.25 422C499.25 427.164 503.436 431.35 508.6 431.35Z" fill="#FCD303"/>
<path opacity="0.93" d="M409.6 522.65C414.764 522.65 418.95 518.464 418.95 513.3C418.95 508.136 414.764 503.95 409.6 503.95C404.436 503.95 400.25 508.136 400.25 513.3C400.25 518.464 404.436 522.65 409.6 522.65Z" fill="#FCD303"/>
<path opacity="0.87" d="M275.4 539.15C280.564 539.15 284.75 534.964 284.75 529.8C284.75 524.636 280.564 520.45 275.4 520.45C270.236 520.45 266.05 524.636 266.05 529.8C266.05 534.964 270.236 539.15 275.4 539.15Z" fill="#FCD303"/>
<path opacity="0.95" d="M156.6 474.25C161.764 474.25 165.95 470.064 165.95 464.9C165.95 459.736 161.764 455.55 156.6 455.55C151.436 455.55 147.25 459.736 147.25 464.9C147.25 470.064 151.436 474.25 156.6 474.25Z" fill="#FCD303"/>
<path opacity="0.71" d="M96.1 352.15C101.264 352.15 105.45 347.964 105.45 342.8C105.45 337.636 101.264 333.45 96.1 333.45C90.9361 333.45 86.75 337.636 86.75 342.8C86.75 347.964 90.9361 352.15 96.1 352.15Z" fill="#FCD303"/>
<path opacity="0.78" d="M119.2 217.95C124.364 217.95 128.55 213.764 128.55 208.6C128.55 203.436 124.364 199.25 119.2 199.25C114.036 199.25 109.85 203.436 109.85 208.6C109.85 213.764 114.036 217.95 119.2 217.95Z" fill="#FCD303"/>
<path opacity="0.66" d="M214.9 121.15C220.064 121.15 224.25 116.964 224.25 111.8C224.25 106.636 220.064 102.45 214.9 102.45C209.736 102.45 205.55 106.636 205.55 111.8C205.55 116.964 209.736 121.15 214.9 121.15Z" fill="#FCD303"/>
<path opacity="0.29" d="M350.2 99.15C355.364 99.15 359.55 94.9638 359.55 89.8C359.55 84.6361 355.364 80.45 350.2 80.45C345.036 80.45 340.85 84.6361 340.85 89.8C340.85 94.9638 345.036 99.15 350.2 99.15Z" fill="#FCD303"/>
<path opacity="0.18" d="M474.5 158.55C479.664 158.55 483.85 154.364 483.85 149.2C483.85 144.036 479.664 139.85 474.5 139.85C469.336 139.85 465.15 144.036 465.15 149.2C465.15 154.364 469.336 158.55 474.5 158.55Z" fill="#FCD303"/>
<path opacity="0.74" d="M539.4 280.65C544.564 280.65 548.75 276.464 548.75 271.3C548.75 266.136 544.564 261.95 539.4 261.95C534.236 261.95 530.05 266.136 530.05 271.3C530.05 276.464 534.236 280.65 539.4 280.65Z" fill="#FCD303"/>
<path opacity="0.31" d="M522.9 418.15C528.064 418.15 532.25 413.964 532.25 408.8C532.25 403.636 528.064 399.45 522.9 399.45C517.736 399.45 513.55 403.636 513.55 408.8C513.55 413.964 517.736 418.15 522.9 418.15Z" fill="#FCD303"/>
<path opacity="0.87" d="M429.4 519.35C434.564 519.35 438.75 515.164 438.75 510C438.75 504.836 434.564 500.65 429.4 500.65C424.236 500.65 420.05 504.836 420.05 510C420.05 515.164 424.236 519.35 429.4 519.35Z" fill="#FCD303"/>
<path opacity="0.94" d="M293 549.05C298.164 549.05 302.35 544.864 302.35 539.7C302.35 534.536 298.164 530.35 293 530.35C287.836 530.35 283.65 534.536 283.65 539.7C283.65 544.864 287.836 549.05 293 549.05Z" fill="#FCD303"/>
<path opacity="0.89" d="M164.3 492.95C169.464 492.95 173.65 488.764 173.65 483.6C173.65 478.436 169.464 474.25 164.3 474.25C159.136 474.25 154.95 478.436 154.95 483.6C154.95 488.764 159.136 492.95 164.3 492.95Z" fill="#FCD303"/>
<path opacity="0.98" d="M92.8 371.95C97.9638 371.95 102.15 367.764 102.15 362.6C102.15 357.436 97.9638 353.25 92.8 353.25C87.6361 353.25 83.45 357.436 83.45 362.6C83.45 367.764 87.6361 371.95 92.8 371.95Z" fill="#FCD303"/>
<path opacity="0.69" d="M104.9 232.25C110.064 232.25 114.25 228.064 114.25 222.9C114.25 217.736 110.064 213.55 104.9 213.55C99.7359 213.55 95.5498 217.736 95.5498 222.9C95.5498 228.064 99.7359 232.25 104.9 232.25Z" fill="#FCD303"/>
<path opacity="0.72" d="M195.1 124.45C200.264 124.45 204.45 120.264 204.45 115.1C204.45 109.936 200.264 105.75 195.1 105.75C189.936 105.75 185.75 109.936 185.75 115.1C185.75 120.264 189.936 124.45 195.1 124.45Z" fill="#C7A5F7"/>
<path opacity="0.25" d="M332.6 90.9C338.068 90.9 342.5 86.4676 342.5 81C342.5 75.5324 338.068 71.1 332.6 71.1C327.132 71.1 322.7 75.5324 322.7 81C322.7 86.4676 327.132 90.9 332.6 90.9Z" fill="#FCD303"/>
<path opacity="0.54" d="M464.6 141.5C470.068 141.5 474.5 137.068 474.5 131.6C474.5 126.132 470.068 121.7 464.6 121.7C459.132 121.7 454.7 126.132 454.7 131.6C454.7 137.068 459.132 141.5 464.6 141.5Z" fill="#FCD303"/>
<path opacity="0.43" d="M542.7 260.3C548.167 260.3 552.6 255.868 552.6 250.4C552.6 244.932 548.167 240.5 542.7 240.5C537.232 240.5 532.8 244.932 532.8 250.4C532.8 255.868 537.232 260.3 542.7 260.3Z" fill="#FCD303"/>
<path opacity="0.89" d="M536.1 403.3C541.568 403.3 546 398.868 546 393.4C546 387.932 541.568 383.5 536.1 383.5C530.632 383.5 526.2 387.932 526.2 393.4C526.2 398.868 530.632 403.3 536.1 403.3Z" fill="#FCD303"/>
<path opacity="0.48" d="M449.2 516.6C454.667 516.6 459.1 512.168 459.1 506.7C459.1 501.232 454.667 496.8 449.2 496.8C443.732 496.8 439.3 501.232 439.3 506.7C439.3 512.168 443.732 516.6 449.2 516.6Z" fill="#FCD303"/>
<path opacity="0.61" d="M311.7 557.3C317.167 557.3 321.6 552.868 321.6 547.4C321.6 541.932 317.167 537.5 311.7 537.5C306.232 537.5 301.8 541.932 301.8 547.4C301.8 552.868 306.232 557.3 311.7 557.3Z" fill="#FCD303"/>
<path opacity="0.79" d="M175.3 511.1C180.768 511.1 185.2 506.668 185.2 501.2C185.2 495.732 180.768 491.3 175.3 491.3C169.832 491.3 165.4 495.732 165.4 501.2C165.4 506.668 169.832 511.1 175.3 511.1Z" fill="#FCD303"/>
<path opacity="0.8" d="M91.6998 393.4C97.1674 393.4 101.6 388.968 101.6 383.5C101.6 378.032 97.1674 373.6 91.6998 373.6C86.2322 373.6 81.7998 378.032 81.7998 383.5C81.7998 388.968 86.2322 393.4 91.6998 393.4Z" fill="#FCD303"/>
<path opacity="0.21" d="M91.6998 248.2C97.1674 248.2 101.6 243.768 101.6 238.3C101.6 232.832 97.1674 228.4 91.6998 228.4C86.2322 228.4 81.7998 232.832 81.7998 238.3C81.7998 243.768 86.2322 248.2 91.6998 248.2Z" fill="#FCD303"/>
<path opacity="0.23" d="M175.3 130.5C180.768 130.5 185.2 126.068 185.2 120.6C185.2 115.132 180.768 110.7 175.3 110.7C169.832 110.7 165.4 115.132 165.4 120.6C165.4 126.068 169.832 130.5 175.3 130.5Z" fill="#FCD303"/>
<path opacity="0.28" d="M312.8 83.1999C318.268 83.1999 322.7 78.7675 322.7 73.2999C322.7 67.8323 318.268 63.3999 312.8 63.3999C307.332 63.3999 302.9 67.8323 302.9 73.2999C302.9 78.7675 307.332 83.1999 312.8 83.1999Z" fill="#FCD303"/>
<path opacity="0.96" d="M452.5 125C457.967 125 462.4 120.568 462.4 115.1C462.4 109.632 457.967 105.2 452.5 105.2C447.032 105.2 442.6 109.632 442.6 115.1C442.6 120.568 447.032 125 452.5 125Z" fill="#FCD303"/>
<path opacity="0.9" d="M542.7 240.5C548.167 240.5 552.6 236.068 552.6 230.6C552.6 225.132 548.167 220.7 542.7 220.7C537.232 220.7 532.8 225.132 532.8 230.6C532.8 236.068 537.232 240.5 542.7 240.5Z" fill="#FCD303"/>
<path opacity="0.5" d="M549.3 386.8C554.768 386.8 559.2 382.368 559.2 376.9C559.2 371.432 554.768 367 549.3 367C543.832 367 539.4 371.432 539.4 376.9C539.4 382.368 543.832 386.8 549.3 386.8Z" fill="#FCD303"/>
<path opacity="0.83" d="M469 510C474.467 510 478.9 505.568 478.9 500.1C478.9 494.632 474.467 490.2 469 490.2C463.532 490.2 459.1 494.632 459.1 500.1C459.1 505.568 463.532 510 469 510Z" fill="#FCD303"/>
<path opacity="0.34" d="M331.5 563.9C336.967 563.9 341.4 559.468 341.4 554C341.4 548.532 336.967 544.1 331.5 544.1C326.032 544.1 321.6 548.532 321.6 554C321.6 559.468 326.032 563.9 331.5 563.9Z" fill="#FCD303"/>
<path opacity="0.42" d="M188.5 527.6C193.967 527.6 198.4 523.168 198.4 517.7C198.4 512.232 193.967 507.8 188.5 507.8C183.032 507.8 178.6 512.232 178.6 517.7C178.6 523.168 183.032 527.6 188.5 527.6Z" fill="#FCD303"/>
<path opacity="0.73" d="M91.6998 414.3C97.1674 414.3 101.6 409.868 101.6 404.4C101.6 398.932 97.1674 394.5 91.6998 394.5C86.2322 394.5 81.7998 398.932 81.7998 404.4C81.7998 409.868 86.2322 414.3 91.6998 414.3Z" fill="#FCD303"/>
<path opacity="0.36" d="M79.6 265.8C85.0676 265.8 89.5 261.368 89.5 255.9C89.5 250.432 85.0676 246 79.6 246C74.1323 246 69.7 250.432 69.7 255.9C69.7 261.368 74.1323 265.8 79.6 265.8Z" fill="#FCD303"/>
<path opacity="0.7" d="M155.5 138.2C160.967 138.2 165.4 133.768 165.4 128.3C165.4 122.832 160.967 118.4 155.5 118.4C150.032 118.4 145.6 122.832 145.6 128.3C145.6 133.768 150.032 138.2 155.5 138.2Z" fill="#FCD303"/>
<path opacity="0.99" d="M293 77.6999C298.467 77.6999 302.9 73.2675 302.9 67.7999C302.9 62.3323 298.467 57.8999 293 57.8999C287.532 57.8999 283.1 62.3323 283.1 67.7999C283.1 73.2675 287.532 77.6999 293 77.6999Z" fill="#FCD303"/>
<path opacity="0.92" d="M439.3 108.5C444.768 108.5 449.2 104.068 449.2 98.6C449.2 93.1323 444.768 88.7 439.3 88.7C433.832 88.7 429.4 93.1323 429.4 98.6C429.4 104.068 433.832 108.5 439.3 108.5Z" fill="#FCD303"/>
<path opacity="0.46" d="M541.6 218.5C547.068 218.5 551.5 214.068 551.5 208.6C551.5 203.132 547.068 198.7 541.6 198.7C536.132 198.7 531.7 203.132 531.7 208.6C531.7 214.068 536.132 218.5 541.6 218.5Z" fill="#FCD303"/>
<path opacity="0.77" d="M560.3 368.1C565.768 368.1 570.2 363.668 570.2 358.2C570.2 352.732 565.768 348.3 560.3 348.3C554.832 348.3 550.4 352.732 550.4 358.2C550.4 363.668 554.832 368.1 560.3 368.1Z" fill="#FCD303"/>
<path opacity="0.39" d="M488.8 501.2C494.268 501.2 498.7 496.768 498.7 491.3C498.7 485.832 494.268 481.4 488.8 481.4C483.332 481.4 478.9 485.832 478.9 491.3C478.9 496.768 483.332 501.2 488.8 501.2Z" fill="#3DFF0D" fill-opacity="0.99"/>
<path opacity="0.43" d="M352.4 568.85C358.171 568.85 362.85 564.171 362.85 558.4C362.85 552.629 358.171 547.95 352.4 547.95C346.629 547.95 341.95 552.629 341.95 558.4C341.95 564.171 346.629 568.85 352.4 568.85Z" fill="#FCD303"/>
<path opacity="0.56" d="M202.8 544.65C208.571 544.65 213.25 539.971 213.25 534.2C213.25 528.429 208.571 523.75 202.8 523.75C197.028 523.75 192.35 528.429 192.35 534.2C192.35 539.971 197.028 544.65 202.8 544.65Z" fill="#FCD303"/>
<path opacity="0.88" d="M93.9 436.85C99.6713 436.85 104.35 432.171 104.35 426.4C104.35 420.629 99.6713 415.95 93.9 415.95C88.1286 415.95 83.45 420.629 83.45 426.4C83.45 432.171 88.1286 436.85 93.9 436.85Z" fill="#FCD303"/>
<path opacity="0.87" d="M68.5999 286.15C74.3713 286.15 79.0499 281.471 79.0499 275.7C79.0499 269.929 74.3713 265.25 68.5999 265.25C62.8285 265.25 58.1499 269.929 58.1499 275.7C58.1499 281.471 62.8285 286.15 68.5999 286.15Z" fill="#FCD303"/>
<path opacity="0.77" d="M135.7 147.55C141.471 147.55 146.15 142.871 146.15 137.1C146.15 131.329 141.471 126.65 135.7 126.65C129.929 126.65 125.25 131.329 125.25 137.1C125.25 142.871 129.929 147.55 135.7 147.55Z" fill="#FCD303"/>
<path opacity="0.98" d="M271 73.85C276.771 73.85 281.45 69.1713 281.45 63.4C281.45 57.6286 276.771 52.95 271 52.95C265.228 52.95 260.55 57.6286 260.55 63.4C260.55 69.1713 265.228 73.85 271 73.85Z" fill="#FCD303"/>
<path opacity="0.45" d="M423.9 92.5499C429.671 92.5499 434.35 87.8713 434.35 82.0999C434.35 76.3285 429.671 71.6499 423.9 71.6499C418.129 71.6499 413.45 76.3285 413.45 82.0999C413.45 87.8713 418.129 92.5499 423.9 92.5499Z" fill="#FCD303"/>
<path opacity="0.79" d="M538.3 197.05C544.071 197.05 548.75 192.371 548.75 186.6C548.75 180.829 544.071 176.15 538.3 176.15C532.528 176.15 527.85 180.829 527.85 186.6C527.85 192.371 532.528 197.05 538.3 197.05Z" fill="#FCD303"/>
<path opacity="0.17" d="M570.2 348.85C575.971 348.85 580.65 344.171 580.65 338.4C580.65 332.629 575.971 327.95 570.2 327.95C564.429 327.95 559.75 332.629 559.75 338.4C559.75 344.171 564.429 348.85 570.2 348.85Z" fill="#FCD303"/>
<path opacity="0.53" d="M508.6 491.85C514.371 491.85 519.05 487.171 519.05 481.4C519.05 475.629 514.371 470.95 508.6 470.95C502.829 470.95 498.15 475.629 498.15 481.4C498.15 487.171 502.829 491.85 508.6 491.85Z" fill="#FCD303"/>
<path opacity="0.9" d="M374.4 572.15C380.171 572.15 384.85 567.471 384.85 561.7C384.85 555.929 380.171 551.25 374.4 551.25C368.629 551.25 363.95 555.929 363.95 561.7C363.95 567.471 368.629 572.15 374.4 572.15Z" fill="#FCD303"/>
<path opacity="0.75" d="M218.2 558.95C223.971 558.95 228.65 554.271 228.65 548.5C228.65 542.729 223.971 538.05 218.2 538.05C212.429 538.05 207.75 542.729 207.75 548.5C207.75 554.271 212.429 558.95 218.2 558.95Z" fill="#FCD303"/>
<path opacity="0.72" d="M98.2999 457.75C104.071 457.75 108.75 453.071 108.75 447.3C108.75 441.529 104.071 436.85 98.2999 436.85C92.5285 436.85 87.8499 441.529 87.8499 447.3C87.8499 453.071 92.5285 457.75 98.2999 457.75Z" fill="#FCD303"/>
<path opacity="0.67" d="M59.7999 305.95C65.5712 305.95 70.2499 301.271 70.2499 295.5C70.2499 289.729 65.5712 285.05 59.7999 285.05C54.0285 285.05 49.3499 289.729 49.3499 295.5C49.3499 301.271 54.0285 305.95 59.7999 305.95Z" fill="#FCD303"/>
<path opacity="0.41" d="M117 159.65C122.771 159.65 127.45 154.971 127.45 149.2C127.45 143.429 122.771 138.75 117 138.75C111.228 138.75 106.55 143.429 106.55 149.2C106.55 154.971 111.228 159.65 117 159.65Z" fill="#FCD303"/>
<path opacity="0.56" d="M249 72.75C254.771 72.75 259.45 68.0714 259.45 62.3C259.45 56.5286 254.771 51.85 249 51.85C243.228 51.85 238.55 56.5286 238.55 62.3C238.55 68.0714 243.228 72.75 249 72.75Z" fill="#FCD303"/>
<path opacity="0.42" d="M407.4 78.25C413.171 78.25 417.85 73.5714 417.85 67.8C417.85 62.0286 413.171 57.35 407.4 57.35C401.629 57.35 396.95 62.0286 396.95 67.8C396.95 73.5714 401.629 78.25 407.4 78.25Z" fill="#FCD303"/>
<path opacity="0.93" d="M532.8 176.15C538.571 176.15 543.25 171.471 543.25 165.7C543.25 159.929 538.571 155.25 532.8 155.25C527.028 155.25 522.35 159.929 522.35 165.7C522.35 171.471 527.028 176.15 532.8 176.15Z" fill="#FCD303"/>
<path opacity="0.37" d="M577.9 327.95C583.671 327.95 588.35 323.271 588.35 317.5C588.35 311.729 583.671 307.05 577.9 307.05C572.129 307.05 567.45 311.729 567.45 317.5C567.45 323.271 572.129 327.95 577.9 327.95Z" fill="#FCD303"/>
<path opacity="0.14" d="M527.3 479.75C533.071 479.75 537.75 475.071 537.75 469.3C537.75 463.529 533.071 458.85 527.3 458.85C521.528 458.85 516.85 463.529 516.85 469.3C516.85 475.071 521.528 479.75 527.3 479.75Z" fill="#FCD303"/>
<path opacity="0.56" d="M397.5 572.15C403.271 572.15 407.95 567.471 407.95 561.7C407.95 555.929 403.271 551.25 397.5 551.25C391.728 551.25 387.05 555.929 387.05 561.7C387.05 567.471 391.728 572.15 397.5 572.15Z" fill="#FCD303"/>
<path opacity="0.79" d="M236.9 573.25C242.671 573.25 247.35 568.571 247.35 562.8C247.35 557.029 242.671 552.35 236.9 552.35C231.129 552.35 226.45 557.029 226.45 562.8C226.45 568.571 231.129 573.25 236.9 573.25Z" fill="#FCD303"/>
<path opacity="0.9" d="M104.9 479.75C110.671 479.75 115.35 475.071 115.35 469.3C115.35 463.529 110.671 458.85 104.9 458.85C99.1286 458.85 94.45 463.529 94.45 469.3C94.45 475.071 99.1286 479.75 104.9 479.75Z" fill="#FCD303"/>
<path opacity="0.27" d="M52.0999 327.95C57.8713 327.95 62.5499 323.271 62.5499 317.5C62.5499 311.729 57.8713 307.05 52.0999 307.05C46.3285 307.05 41.6499 311.729 41.6499 317.5C41.6499 323.271 46.3285 327.95 52.0999 327.95Z" fill="#FCD303"/>
<path opacity="0.42" d="M98.2999 172.85C104.071 172.85 108.75 168.171 108.75 162.4C108.75 156.629 104.071 151.95 98.2999 151.95C92.5285 151.95 87.8499 156.629 87.8499 162.4C87.8499 168.171 92.5285 172.85 98.2999 172.85Z" fill="#FCD303"/>
<path opacity="0.72" d="M225.9 73.2999C231.975 73.2999 236.9 68.3751 236.9 62.2999C236.9 56.2248 231.975 51.2999 225.9 51.2999C219.825 51.2999 214.9 56.2248 214.9 62.2999C214.9 68.3751 219.825 73.2999 225.9 73.2999Z" fill="#FCD303"/>
<path opacity="0.37" d="M388.7 65.6C394.775 65.6 399.7 60.6751 399.7 54.6C399.7 48.5248 394.775 43.6 388.7 43.6C382.625 43.6 377.7 48.5248 377.7 54.6C377.7 60.6751 382.625 65.6 388.7 65.6Z" fill="#FCD303"/>
<path opacity="0.62" d="M525.1 154.7C531.175 154.7 536.1 149.775 536.1 143.7C536.1 137.625 531.175 132.7 525.1 132.7C519.025 132.7 514.1 137.625 514.1 143.7C514.1 149.775 519.025 154.7 525.1 154.7Z" fill="#FCD303"/>
<path opacity="0.86" d="M584.5 306.5C590.575 306.5 595.5 301.575 595.5 295.5C595.5 289.425 590.575 284.5 584.5 284.5C578.425 284.5 573.5 289.425 573.5 295.5C573.5 301.575 578.425 306.5 584.5 306.5Z" fill="#FCD303"/>
<path opacity="0.54" d="M544.9 466C550.975 466 555.9 461.075 555.9 455C555.9 448.925 550.975 444 544.9 444C538.825 444 533.9 448.925 533.9 455C533.9 461.075 538.825 466 544.9 466Z" fill="#FCD303"/>
<path opacity="0.84" d="M420.6 571.6C426.675 571.6 431.6 566.675 431.6 560.6C431.6 554.525 426.675 549.6 420.6 549.6C414.525 549.6 409.6 554.525 409.6 560.6C409.6 566.675 414.525 571.6 420.6 571.6Z" fill="#FCD303"/>
<path opacity="0.85" d="M255.6 585.9C261.675 585.9 266.6 580.975 266.6 574.9C266.6 568.825 261.675 563.9 255.6 563.9C249.525 563.9 244.6 568.825 244.6 574.9C244.6 580.975 249.525 585.9 255.6 585.9Z" fill="#FCD303"/>
<path opacity="0.74" d="M113.7 502.3C119.775 502.3 124.7 497.375 124.7 491.3C124.7 485.225 119.775 480.3 113.7 480.3C107.625 480.3 102.7 485.225 102.7 491.3C102.7 497.375 107.625 502.3 113.7 502.3Z" fill="#FCD303"/>
<path opacity="0.38" d="M46.5999 350.5C52.675 350.5 57.5999 345.575 57.5999 339.5C57.5999 333.425 52.675 328.5 46.5999 328.5C40.5247 328.5 35.5999 333.425 35.5999 339.5C35.5999 345.575 40.5247 350.5 46.5999 350.5Z" fill="#FCD303"/>
<path opacity="0.9" d="M80.7 188.8C86.7751 188.8 91.7 183.875 91.7 177.8C91.7 171.725 86.7751 166.8 80.7 166.8C74.6248 166.8 69.7 171.725 69.7 177.8C69.7 183.875 74.6248 188.8 80.7 188.8Z" fill="#FCD303"/>
<path opacity="0.93" d="M202.8 75.5C208.875 75.5 213.8 70.5751 213.8 64.5C213.8 58.4249 208.875 53.5 202.8 53.5C196.725 53.5 191.8 58.4249 191.8 64.5C191.8 70.5751 196.725 75.5 202.8 75.5Z" fill="#FCD303"/>
<path opacity="0.81" d="M367.8 54.6C373.875 54.6 378.8 49.6751 378.8 43.6C378.8 37.5248 373.875 32.6 367.8 32.6C361.725 32.6 356.8 37.5248 356.8 43.6C356.8 49.6751 361.725 54.6 367.8 54.6Z" fill="#FCD303"/>
<path opacity="0.61" d="M515.2 133.8C521.275 133.8 526.2 128.875 526.2 122.8C526.2 116.725 521.275 111.8 515.2 111.8C509.125 111.8 504.2 116.725 504.2 122.8C504.2 128.875 509.125 133.8 515.2 133.8Z" fill="#FCD303"/>
<path opacity="0.33" d="M588.9 283.4C594.975 283.4 599.9 278.475 599.9 272.4C599.9 266.325 594.975 261.4 588.9 261.4C582.825 261.4 577.9 266.325 577.9 272.4C577.9 278.475 582.825 283.4 588.9 283.4Z" fill="#FCD303"/>
<path opacity="0.85" d="M562.5 449.5C568.575 449.5 573.5 444.575 573.5 438.5C573.5 432.425 568.575 427.5 562.5 427.5C556.425 427.5 551.5 432.425 551.5 438.5C551.5 444.575 556.425 449.5 562.5 449.5Z" fill="#FCD303"/>
<path opacity="0.25" d="M443.7 568.3C449.775 568.3 454.7 563.375 454.7 557.3C454.7 551.225 449.775 546.3 443.7 546.3C437.625 546.3 432.7 551.225 432.7 557.3C432.7 563.375 437.625 568.3 443.7 568.3Z" fill="#FCD303"/>
<path opacity="0.92" d="M277.6 596.9C283.675 596.9 288.6 591.975 288.6 585.9C288.6 579.825 283.675 574.9 277.6 574.9C271.525 574.9 266.6 579.825 266.6 585.9C266.6 591.975 271.525 596.9 277.6 596.9Z" fill="#FCD303"/>
<path opacity="0.69" d="M124.7 523.2C130.775 523.2 135.7 518.275 135.7 512.2C135.7 506.125 130.775 501.2 124.7 501.2C118.625 501.2 113.7 506.125 113.7 512.2C113.7 518.275 118.625 523.2 124.7 523.2Z" fill="#FCD303"/>
<path opacity="0.59" d="M43.2998 374.7C49.3749 374.7 54.2998 369.775 54.2998 363.7C54.2998 357.625 49.3749 352.7 43.2998 352.7C37.2247 352.7 32.2998 357.625 32.2998 363.7C32.2998 369.775 37.2247 374.7 43.2998 374.7Z" fill="#FCD303"/>
<path opacity="0.4" d="M64.2 205.3C70.2751 205.3 75.2 200.375 75.2 194.3C75.2 188.225 70.2751 183.3 64.2 183.3C58.1248 183.3 53.2 188.225 53.2 194.3C53.2 200.375 58.1248 205.3 64.2 205.3Z" fill="#FCD303"/>
<path opacity="0.67" d="M178.6 79.8999C184.675 79.8999 189.6 74.975 189.6 68.8999C189.6 62.8248 184.675 57.8999 178.6 57.8999C172.525 57.8999 167.6 62.8248 167.6 68.8999C167.6 74.975 172.525 79.8999 178.6 79.8999Z" fill="#FCD303"/>
<path opacity="0.51" d="M345.8 44.7C351.875 44.7 356.8 39.7751 356.8 33.7C356.8 27.6248 351.875 22.7 345.8 22.7C339.725 22.7 334.8 27.6248 334.8 33.7C334.8 39.7751 339.725 44.7 345.8 44.7Z" fill="#FCD303"/>
<path opacity="0.33" d="M503.1 111.8C509.175 111.8 514.1 106.875 514.1 100.8C514.1 94.7248 509.175 89.7999 503.1 89.7999C497.025 89.7999 492.1 94.7248 492.1 100.8C492.1 106.875 497.025 111.8 503.1 111.8Z" fill="#FCD303"/>
<path opacity="0.44" d="M592.2 259.2C598.275 259.2 603.2 254.275 603.2 248.2C603.2 242.125 598.275 237.2 592.2 237.2C586.125 237.2 581.2 242.125 581.2 248.2C581.2 254.275 586.125 259.2 592.2 259.2Z" fill="#FCD303"/>
<path opacity="0.88" d="M577.9 430.8C583.975 430.8 588.9 425.875 588.9 419.8C588.9 413.725 583.975 408.8 577.9 408.8C571.825 408.8 566.9 413.725 566.9 419.8C566.9 425.875 571.825 430.8 577.9 430.8Z" fill="#FCD303"/>
<path opacity="0.31" d="M466.8 563.35C473.179 563.35 478.35 558.179 478.35 551.8C478.35 545.421 473.179 540.25 466.8 540.25C460.421 540.25 455.25 545.421 455.25 551.8C455.25 558.179 460.421 563.35 466.8 563.35Z" fill="#FCD303"/>
<path opacity="0.19" d="M299.6 606.25C305.979 606.25 311.15 601.079 311.15 594.7C311.15 588.321 305.979 583.15 299.6 583.15C293.221 583.15 288.05 588.321 288.05 594.7C288.05 601.079 293.221 606.25 299.6 606.25Z" fill="#FCD303"/>
<path opacity="0.18" d="M137.9 544.65C144.279 544.65 149.45 539.479 149.45 533.1C149.45 526.721 144.279 521.55 137.9 521.55C131.521 521.55 126.35 526.721 126.35 533.1C126.35 539.479 131.521 544.65 137.9 544.65Z" fill="#FCD303"/>
<path opacity="0.34" d="M42.1999 399.45C48.5788 399.45 53.7499 394.279 53.7499 387.9C53.7499 381.521 48.5788 376.35 42.1999 376.35C35.821 376.35 30.6499 381.521 30.6499 387.9C30.6499 394.279 35.821 399.45 42.1999 399.45Z" fill="#FCD303"/>
<path opacity="0.63" d="M48.8 225.65C55.1789 225.65 60.35 220.479 60.35 214.1C60.35 207.721 55.1789 202.55 48.8 202.55C42.4211 202.55 37.25 207.721 37.25 214.1C37.25 220.479 42.4211 225.65 48.8 225.65Z" fill="#FCD303"/>
<path opacity="0.2" d="M155.5 87.05C161.879 87.05 167.05 81.8788 167.05 75.5C167.05 69.1211 161.879 63.95 155.5 63.95C149.121 63.95 143.95 69.1211 143.95 75.5C143.95 81.8788 149.121 87.05 155.5 87.05Z" fill="#FCD303"/>
<path opacity="0.87" d="M322.7 36.45C329.079 36.45 334.25 31.2789 334.25 24.9C334.25 18.5211 329.079 13.35 322.7 13.35C316.321 13.35 311.15 18.5211 311.15 24.9C311.15 31.2789 316.321 36.45 322.7 36.45Z" fill="#FCD303"/>
<path opacity="0.46" d="M488.8 92.55C495.179 92.55 500.35 87.3788 500.35 81C500.35 74.6211 495.179 69.45 488.8 69.45C482.421 69.45 477.25 74.6211 477.25 81C477.25 87.3788 482.421 92.55 488.8 92.55Z" fill="#FCD303"/>
<path opacity="0.2" d="M592.2 235.55C598.579 235.55 603.75 230.379 603.75 224C603.75 217.621 598.579 212.45 592.2 212.45C585.821 212.45 580.65 217.621 580.65 224C580.65 230.379 585.821 235.55 592.2 235.55Z" fill="#FCD303"/>
<path opacity="0.8" d="M592.2 411.55C598.579 411.55 603.75 406.379 603.75 400C603.75 393.621 598.579 388.45 592.2 388.45C585.821 388.45 580.65 393.621 580.65 400C580.65 406.379 585.821 411.55 592.2 411.55Z" fill="#FCD303"/>
<path opacity="0.88" d="M491 555.65C497.379 555.65 502.55 550.479 502.55 544.1C502.55 537.721 497.379 532.55 491 532.55C484.621 532.55 479.45 537.721 479.45 544.1C479.45 550.479 484.621 555.65 491 555.65Z" fill="#FCD303"/>
<path opacity="0.31" d="M323.8 613.95C330.179 613.95 335.35 608.779 335.35 602.4C335.35 596.021 330.179 590.85 323.8 590.85C317.421 590.85 312.25 596.021 312.25 602.4C312.25 608.779 317.421 613.95 323.8 613.95Z" fill="#FCD303"/>
<path opacity="0.82" d="M153.3 564.45C159.679 564.45 164.85 559.279 164.85 552.9C164.85 546.521 159.679 541.35 153.3 541.35C146.921 541.35 141.75 546.521 141.75 552.9C141.75 559.279 146.921 564.45 153.3 564.45Z" fill="#FCD303"/>
<path opacity="0.14" d="M43.3 424.75C49.6789 424.75 54.85 419.579 54.85 413.2C54.85 406.821 49.6789 401.65 43.3 401.65C36.9211 401.65 31.75 406.821 31.75 413.2C31.75 419.579 36.9211 424.75 43.3 424.75Z" fill="#FCD303"/>
<path opacity="0.91" d="M34.5 246.55C40.8788 246.55 46.05 241.379 46.05 235C46.05 228.621 40.8788 223.45 34.5 223.45C28.1211 223.45 22.95 228.621 22.95 235C22.95 241.379 28.1211 246.55 34.5 246.55Z" fill="#FFE043"/>
<path opacity="0.15" d="M132.4 95.85C138.779 95.85 143.95 90.6789 143.95 84.3C143.95 77.9211 138.779 72.75 132.4 72.75C126.021 72.75 120.85 77.9211 120.85 84.3C120.85 90.6789 126.021 95.85 132.4 95.85Z" fill="#FCD303"/>
<path opacity="0.6" d="M298.5 29.85C304.879 29.85 310.05 24.6789 310.05 18.3C310.05 11.9211 304.879 6.75 298.5 6.75C292.121 6.75 286.95 11.9211 286.95 18.3C286.95 24.6789 292.121 29.85 298.5 29.85Z" fill="#FCD303"/>
<path opacity="0.88" d="M473.4 73.85C479.779 73.85 484.95 68.6789 484.95 62.3C484.95 55.9211 479.779 50.75 473.4 50.75C467.021 50.75 461.85 55.9211 461.85 62.3C461.85 68.6789 467.021 73.85 473.4 73.85Z" fill="#FCD303"/>
<path opacity="0.24" d="M590 210.25C596.379 210.25 601.55 205.079 601.55 198.7C601.55 192.321 596.379 187.15 590 187.15C583.621 187.15 578.45 192.321 578.45 198.7C578.45 205.079 583.621 210.25 590 210.25Z" fill="#FCD303"/>
<path opacity="0.82" d="M605.4 389.55C611.779 389.55 616.95 384.379 616.95 378C616.95 371.621 611.779 366.45 605.4 366.45C599.021 366.45 593.85 371.621 593.85 378C593.85 384.379 599.021 389.55 605.4 389.55Z" fill="#FCD303"/>
<path opacity="0.27" d="M514.1 545.75C520.479 545.75 525.65 540.579 525.65 534.2C525.65 527.821 520.479 522.65 514.1 522.65C507.721 522.65 502.55 527.821 502.55 534.2C502.55 540.579 507.721 545.75 514.1 545.75Z" fill="#FCD303"/>
<path opacity="0.29" d="M348 619.45C354.379 619.45 359.55 614.279 359.55 607.9C359.55 601.521 354.379 596.35 348 596.35C341.621 596.35 336.45 601.521 336.45 607.9C336.45 614.279 341.621 619.45 348 619.45Z" fill="#FCD303"/>
<path opacity="0.13" d="M169.8 583.15C176.179 583.15 181.35 577.979 181.35 571.6C181.35 565.221 176.179 560.05 169.8 560.05C163.421 560.05 158.25 565.221 158.25 571.6C158.25 577.979 163.421 583.15 169.8 583.15Z" fill="#FCD303"/>
<path opacity="0.93" d="M46.5998 450.05C52.9787 450.05 58.1498 444.879 58.1498 438.5C58.1498 432.121 52.9787 426.95 46.5998 426.95C40.2209 426.95 35.0498 432.121 35.0498 438.5C35.0498 444.879 40.2209 450.05 46.5998 450.05Z" fill="#FCD303"/>
<path opacity="0.47" d="M22.3999 268.55C28.7787 268.55 33.9499 263.379 33.9499 257C33.9499 250.621 28.7787 245.45 22.3999 245.45C16.021 245.45 10.8499 250.621 10.8499 257C10.8499 263.379 16.021 268.55 22.3999 268.55Z" fill="#FCD303"/>
<path opacity="0.82" d="M109.3 107.4C115.983 107.4 121.4 101.983 121.4 95.3C121.4 88.6173 115.983 83.2 109.3 83.2C102.617 83.2 97.2 88.6173 97.2 95.3C97.2 101.983 102.617 107.4 109.3 107.4Z" fill="#FCD303"/>
<path opacity="0.2" d="M273.2 25.9999C279.882 25.9999 285.3 20.5826 285.3 13.8999C285.3 7.21728 279.882 1.79993 273.2 1.79993C266.517 1.79993 261.1 7.21728 261.1 13.8999C261.1 20.5826 266.517 25.9999 273.2 25.9999Z" fill="#FCD303"/>
<path opacity="0.7" d="M454.7 55.7C461.382 55.7 466.8 50.2826 466.8 43.6C466.8 36.9174 461.382 31.5 454.7 31.5C448.017 31.5 442.6 36.9174 442.6 43.6C442.6 50.2826 448.017 55.7 454.7 55.7Z" fill="#FCD303"/>
<path opacity="0.12" d="M585.6 185.5C592.283 185.5 597.7 180.083 597.7 173.4C597.7 166.717 592.283 161.3 585.6 161.3C578.917 161.3 573.5 166.717 573.5 173.4C573.5 180.083 578.917 185.5 585.6 185.5Z" fill="#FCD303"/>
<path opacity="0.36" d="M617.5 367C624.183 367 629.6 361.583 629.6 354.9C629.6 348.217 624.183 342.8 617.5 342.8C610.817 342.8 605.4 348.217 605.4 354.9C605.4 361.583 610.817 367 617.5 367Z" fill="#FCD303"/>
<path opacity="0.46" d="M536.1 534.2C542.783 534.2 548.2 528.783 548.2 522.1C548.2 515.417 542.783 510 536.1 510C529.417 510 524 515.417 524 522.1C524 528.783 529.417 534.2 536.1 534.2Z" fill="#FCD303"/>
<path opacity="0.73" d="M374.4 623.3C381.082 623.3 386.5 617.883 386.5 611.2C386.5 604.517 381.082 599.1 374.4 599.1C367.717 599.1 362.3 604.517 362.3 611.2C362.3 617.883 367.717 623.3 374.4 623.3Z" fill="#FCD303"/>
<path opacity="0.64" d="M189.6 601.3C196.283 601.3 201.7 595.883 201.7 589.2C201.7 582.517 196.283 577.1 189.6 577.1C182.917 577.1 177.5 582.517 177.5 589.2C177.5 595.883 182.917 601.3 189.6 601.3Z" fill="#FCD303"/>
<path opacity="0.55" d="M52.1 475.9C58.7826 475.9 64.2 470.483 64.2 463.8C64.2 457.117 58.7826 451.7 52.1 451.7C45.4174 451.7 40 457.117 40 463.8C40 470.483 45.4174 475.9 52.1 475.9Z" fill="#FCD303"/>
<path opacity="0.35" d="M12.4999 293.3C19.1825 293.3 24.5999 287.883 24.5999 281.2C24.5999 274.517 19.1825 269.1 12.4999 269.1C5.81726 269.1 0.399902 274.517 0.399902 281.2C0.399902 287.883 5.81726 293.3 12.4999 293.3Z" fill="#FCD303"/>
<path opacity="0.79" d="M86.1999 121.7C92.8825 121.7 98.2999 116.283 98.2999 109.6C98.2999 102.917 92.8825 97.5 86.1999 97.5C79.5172 97.5 74.0999 102.917 74.0999 109.6C74.0999 116.283 79.5172 121.7 86.1999 121.7Z" fill="#FCD303"/>
<path opacity="0.72" d="M246.8 24.9C253.483 24.9 258.9 19.4826 258.9 12.8C258.9 6.11731 253.483 0.699951 246.8 0.699951C240.117 0.699951 234.7 6.11731 234.7 12.8C234.7 19.4826 240.117 24.9 246.8 24.9Z" fill="#FCD303"/>
<path opacity="0.33" d="M434.9 39.2C441.582 39.2 447 33.7826 447 27.1C447 20.4174 441.582 15 434.9 15C428.217 15 422.8 20.4174 422.8 27.1C422.8 33.7826 428.217 39.2 434.9 39.2Z" fill="#FCD303"/>
</svg>
