<svg width="668" height="566" viewBox="0 0 668 566" fill="none" xmlns="http://www.w3.org/2000/svg">
<path class="plate" d="M337.432 529.743C163.726 529.743 21.7694 484.548 12.031 427.582C11.6771 429.905 11.4785 432.243 11.4785 434.598C11.4785 501.799 157.41 556.279 337.43 556.279C517.449 556.279 663.381 501.801 663.381 434.598C663.381 432.243 663.183 429.905 662.829 427.582C653.089 484.546 511.134 529.743 337.428 529.743H337.432Z" fill="#096E8C"/>
<path class="plate" d="M563.923 343.382C563.942 345.333 563.961 347.263 563.979 349.136C564.106 361.945 564.218 372.858 564.294 380.778C583.847 392.851 594.95 406.662 594.95 421.336C594.95 468.64 479.655 506.989 337.43 506.989C195.205 506.989 79.9092 468.641 79.9092 421.336C79.9092 408.257 88.7372 395.866 104.499 384.777C106.021 383.301 107.733 382.18 109.583 381.397C110.902 380.567 112.251 379.742 113.649 378.928V342.519C50.7428 362.283 11.4775 390.284 11.4775 421.34C11.4775 423.439 11.6761 425.522 12.03 427.591C21.7691 484.555 163.725 529.752 337.431 529.752C511.137 529.752 653.094 484.557 662.832 427.591C663.186 425.521 663.384 423.438 663.384 421.34C663.384 390.736 625.244 363.098 563.924 343.389L563.923 343.382Z" fill="#009DC8"/>
<path class="duff" d="M605.647 350.193L605.734 296.121C605.734 296.121 527.867 351.796 346.996 351.55C346.996 351.55 183.041 358.068 71.5244 298.806L71.457 347.78C71.457 347.78 95.0269 411.995 345.239 419.069C345.239 419.069 538.35 419.336 605.647 350.194" fill="#733121"/>
<path class="creamwhite" d="M605.738 296.12L605.887 264.494C605.887 264.494 534.64 329.143 353.77 329.076C345.473 335.141 123.198 322.296 71.6968 262.065L71.5254 298.808C71.5254 298.808 98.9068 341.408 287.139 351.302C307.907 352.393 313.136 354.806 338 355C365.29 355.699 603.476 334.21 605.735 296.122" fill="#E6B7AC"/>
<path class="creamwhite" d="M605.496 381.837L605.645 350.211C605.643 350.209 532.282 411.134 355.262 415C348.6 418.216 92.4903 401.804 71.4614 347.777L71.29 384.52C71.29 384.52 106.204 441.902 355.262 438.992C383.272 444.235 603.313 420.385 605.5 381.834" fill="#E6B7AC"/>
<path class="duff" d="M605.647 438.104L605.734 384.031C605.734 384.031 527.867 439.706 346.996 439.461C346.996 439.461 183.041 445.978 71.5244 386.717L71.457 435.69C71.457 435.69 90.2887 501.425 340.5 508.5C340.5 508.5 538.349 507.245 605.647 438.104Z" fill="#733121"/>
<path class="duff" d="M605.968 193.297C605.968 193.297 528.14 251.181 347.216 250.963C347.216 250.963 183.242 257.786 71.7646 196.088L71.7031 262.065C71.7031 262.065 95.2468 328.912 345.439 336.312C345.439 336.312 575.794 329.812 605.887 264.499L605.969 193.301" fill="#733121"/>
<path class="duff" d="M334.607 184.121C333.997 183.429 334.073 182.342 334.272 181.506C334.425 180.865 334.737 179.45 335.591 179.469C336.236 179.479 336.697 180.422 336.952 180.91C337.374 181.717 337.712 182.634 337.364 183.535C336.918 184.663 335.444 185.076 334.607 184.121Z" fill="white"/>
<path class="duff" d="M339.023 258.5C486.496 258.5 606.046 222.169 606.046 193.29C606.046 164.411 486.496 141 339.023 141C191.55 141 72 164.411 72 193.29C72 222.169 191.55 258.5 339.023 258.5Z" fill="#723222"/>
<path class="creampink" d="M80.3923 169.434C69.9741 186.93 52.9414 227.41 94.9481 232.001C94.9481 232.001 109.839 235.258 123.326 258.928C123.326 258.928 130.082 284.233 158.838 269.115C158.838 269.115 189.466 251.207 208.061 266.43C208.061 266.43 233.886 299.612 260.441 276.641C286.996 253.669 305.627 233.711 304.276 324.927C304.276 324.927 297.927 350.224 324.965 355.322C324.965 355.322 349.828 358.779 351.628 323.295C351.628 323.295 361.996 243.774 387.326 265.775C387.326 265.775 414.93 310.873 431.358 294.335C447.785 277.798 443.146 262.508 475.245 272.695C475.245 272.695 526.81 290.935 526.827 261.306C526.844 231.677 536.516 223.98 548.201 228.845C559.885 233.71 571.919 267.401 580.12 231.977C581.953 224.06 586.675 215.747 594.654 230.269C602.633 244.791 618.671 223.438 604.822 181.774C590.973 140.109 484.353 112.179 341.067 112.008C197.761 111.81 107.954 123.15 80.3962 169.433L80.3923 169.434Z" fill="#FF70BF"/>
<path class="berries" d="M405.989 102.14C393.241 98.3896 382.163 100.154 375.048 114.523C365.455 133.898 374.656 167.553 387.158 173.732C399.659 179.91 432.018 166.796 441.61 147.421C447.158 136.215 445.139 127.747 438.901 120.838C433.992 120.057 431.019 118.073 431.019 118.073C431.398 123.871 436.395 134.879 436.395 134.879C431.934 129.838 426.8 122.222 426.8 122.222C426.8 122.222 426.648 127.555 420.448 133.84C420.448 133.84 421.158 123.849 417.94 117.926C417.94 117.926 410.442 119.423 401.775 119.426C401.775 119.426 407.561 116.353 410.399 110.612C410.399 110.612 402.251 109.287 393.705 107.472C393.705 107.472 401.942 105.065 406.187 102.295C406.187 102.295 406.115 102.24 405.988 102.139" fill="#FF0009"/>
<path class="berries" d="M267.116 105.929C266.99 106.029 266.917 106.084 266.917 106.084C271.163 108.854 279.4 111.261 279.4 111.261C270.853 113.076 262.706 114.401 262.706 114.401C265.544 120.142 271.33 123.215 271.33 123.215C262.663 123.212 255.165 121.715 255.165 121.715C251.946 127.638 252.657 137.629 252.657 137.629C246.456 131.345 246.304 126.011 246.304 126.011C246.304 126.011 241.171 133.628 236.709 138.668C236.709 138.668 241.707 127.66 242.086 121.862C242.086 121.862 239.113 123.846 234.204 124.628C227.966 131.536 225.947 140.004 231.495 151.21C241.088 170.585 273.446 183.699 285.947 177.521C298.448 171.342 307.649 137.687 298.056 118.313C290.942 103.943 279.864 102.179 267.116 105.929" fill="#FF0009"/>
<path class="berries" d="M242.099 121.862C241.72 127.66 236.722 138.668 236.722 138.668C241.184 133.628 246.317 126.011 246.317 126.011C246.317 126.011 246.469 131.344 252.67 137.629C252.67 137.629 251.959 127.639 255.178 121.715C255.178 121.715 262.675 123.213 271.343 123.215C271.343 123.215 265.557 120.143 262.719 114.402C262.719 114.402 270.867 113.076 279.413 111.262C279.413 111.262 271.176 108.855 266.93 106.084C266.93 106.084 267.003 106.03 267.13 105.929C267.905 105.31 270.906 102.743 274.546 97.4229C270.442 99.9953 262.814 99.6599 257.727 103.518C254.584 105.903 253.833 107.516 252.625 109.224C246.027 100.579 235.59 97.0603 235.091 96.8947C233.994 96.5332 232.812 97.1294 232.448 98.2262C232.084 99.3235 232.682 100.506 233.777 100.871C233.886 100.905 243.209 104.072 249.053 111.461C246.927 111.872 243.754 112.766 241.175 114.682C234.996 119.269 228.9 124.904 228.9 124.904C230.854 125.009 232.635 124.881 234.218 124.628C239.127 123.846 242.1 121.862 242.1 121.862" fill="#007C40"/>
<path class="berries" d="M431.019 118.073C431.398 123.871 436.395 134.879 436.395 134.879C431.934 129.839 426.8 122.222 426.8 122.222C426.8 122.222 426.648 127.555 420.448 133.84C420.448 133.84 421.158 123.849 417.94 117.926C417.94 117.926 410.442 119.424 401.775 119.426C401.775 119.426 407.561 116.353 410.399 110.613C410.399 110.613 402.251 109.287 393.705 107.472C393.705 107.472 401.942 105.066 406.188 102.295C406.188 102.295 406.114 102.241 405.988 102.14C405.213 101.521 402.211 98.9535 398.571 93.6338C402.676 96.2063 410.304 95.8708 415.391 99.7287C418.534 102.114 419.285 103.727 420.493 105.435C427.091 96.7895 437.528 93.2712 438.026 93.1056C439.124 92.7442 440.305 93.3403 440.669 94.4371C441.033 95.5344 440.436 96.7174 439.34 97.0819C439.231 97.1159 429.908 100.283 424.065 107.672C426.191 108.083 429.364 108.976 431.943 110.893C438.122 115.48 444.217 121.115 444.217 121.115C442.264 121.22 440.483 121.092 438.899 120.839C433.991 120.057 431.018 118.073 431.018 118.073" fill="#007C40"/>
<path class="berries" d="M381.219 131.225C381.113 130.245 381.854 129.339 382.543 128.728C383.071 128.263 384.217 127.216 384.956 127.757C385.512 128.165 385.335 129.272 385.258 129.858C385.129 130.825 384.858 131.836 383.996 132.414C382.912 133.127 381.365 132.58 381.219 131.225Z" fill="white"/>
<path class="berries" d="M390.978 121.875C389.728 122.22 388.423 121.223 388.701 119.889C388.905 118.924 389.886 118.289 390.734 117.922C391.38 117.642 392.794 116.998 393.328 117.742C393.733 118.304 393.22 119.303 392.969 119.835C392.546 120.716 391.978 121.594 390.978 121.875Z" fill="white"/>
<path class="berries" d="M380.466 147.872C380.241 146.91 380.862 145.921 381.474 145.232C381.941 144.703 382.949 143.524 383.748 143.971C384.353 144.308 384.313 145.432 384.307 146.021C384.298 146.997 384.154 148.035 383.367 148.71C382.382 149.552 380.776 149.197 380.466 147.872Z" fill="white"/>
<path class="berries" d="M390.984 138.318C390.878 137.338 391.616 136.43 392.31 135.821C392.836 135.355 393.982 134.308 394.719 134.848C395.277 135.257 395.1 136.365 395.023 136.95C394.895 137.919 394.625 138.93 393.762 139.507C392.677 140.219 391.13 139.671 390.984 138.318Z" fill="white"/>
<path class="berries" d="M404.397 131.304C404.322 130.319 405.09 129.437 405.799 128.847C406.343 128.4 407.518 127.386 408.24 127.95C408.787 128.376 408.574 129.481 408.479 130.062C408.319 131.026 408.018 132.031 407.135 132.578C406.032 133.257 404.504 132.664 404.397 131.304Z" fill="white"/>
<path class="berries" d="M390.637 164.328C390.445 163.398 391.068 162.467 391.673 161.821C392.136 161.326 393.138 160.222 393.891 160.674C394.462 161.011 394.392 162.088 394.371 162.655C394.336 163.591 394.17 164.582 393.399 165.209C392.425 165.99 390.898 165.607 390.637 164.328Z" fill="white"/>
<path class="berries" d="M401.548 149.435C401.377 150.397 401.063 151.396 400.176 151.933C399.065 152.601 397.541 151.987 397.453 150.628C397.391 149.644 398.165 148.77 398.885 148.19C399.432 147.748 400.621 146.749 401.334 147.322C401.875 147.754 401.651 148.855 401.548 149.435Z" fill="white"/>
<path class="berries" d="M411.051 147.001C410.805 146.045 411.402 145.041 411.997 144.338C412.454 143.798 413.434 142.594 414.244 143.025C414.853 143.347 414.84 144.472 414.848 145.059C414.863 146.035 414.742 147.076 413.971 147.773C413.005 148.636 411.393 148.319 411.051 147.001Z" fill="white"/>
<path class="berries" d="M408.961 160.206C408.901 159.222 409.676 158.349 410.394 157.769C410.942 157.326 412.132 156.328 412.843 156.899C413.384 157.332 413.16 158.434 413.056 159.013C412.886 159.975 412.573 160.974 411.686 161.512C410.574 162.179 409.049 161.564 408.961 160.206Z" fill="white"/>
<path class="berries" d="M426.781 143.324C426.486 142.384 427.032 141.353 427.59 140.617C428.019 140.055 428.935 138.804 429.765 139.19C430.391 139.481 430.435 140.605 430.473 141.194C430.538 142.167 430.469 143.212 429.737 143.945C428.818 144.857 427.19 144.625 426.781 143.324Z" fill="white"/>
<path class="berries" d="M421.79 154.827C421.73 153.843 422.505 152.97 423.223 152.389C423.771 151.947 424.959 150.948 425.671 151.522C426.213 151.952 425.989 153.055 425.886 153.635C425.714 154.597 425.403 155.596 424.514 156.132C423.403 156.801 421.878 156.186 421.79 154.827Z" fill="white"/>
<path class="berries" d="M292.966 129.079C292.819 130.433 291.273 130.981 290.188 130.268C289.327 129.69 289.056 128.678 288.927 127.711C288.85 127.126 288.672 126.018 289.229 125.611C289.968 125.069 291.114 126.117 291.642 126.582C292.331 127.192 293.072 128.099 292.966 129.079Z" fill="white"/>
<path class="berries" d="M283.207 119.735C282.207 119.455 281.638 118.577 281.216 117.696C280.965 117.163 280.451 116.164 280.857 115.602C281.39 114.858 282.804 115.502 283.451 115.782C284.299 116.15 285.28 116.785 285.484 117.749C285.762 119.083 284.457 120.08 283.207 119.735Z" fill="white"/>
<path class="berries" d="M293.685 145.732C293.375 147.058 291.769 147.412 290.785 146.571C289.998 145.895 289.854 144.857 289.845 143.881C289.838 143.292 289.798 142.168 290.404 141.832C291.203 141.384 292.211 142.563 292.678 143.093C293.29 143.781 293.911 144.77 293.685 145.732Z" fill="white"/>
<path class="berries" d="M283.142 136.172C282.995 137.525 281.448 138.073 280.364 137.361C279.501 136.784 279.23 135.773 279.103 134.804C279.025 134.219 278.848 133.111 279.407 132.702C280.144 132.162 281.289 133.209 281.816 133.675C282.51 134.284 283.248 135.192 283.142 136.172Z" fill="white"/>
<path class="berries" d="M269.782 129.164C269.674 130.524 268.147 131.117 267.043 130.438C266.161 129.891 265.859 128.886 265.7 127.921C265.604 127.34 265.391 126.236 265.939 125.81C266.66 125.246 267.835 126.26 268.38 126.707C269.089 127.297 269.857 128.179 269.782 129.164Z" fill="white"/>
<path class="berries" d="M283.534 162.181C283.274 163.461 281.746 163.843 280.772 163.063C280.002 162.436 279.835 161.444 279.801 160.508C279.779 159.942 279.71 158.865 280.28 158.527C281.033 158.075 282.035 159.18 282.498 159.675C283.103 160.32 283.726 161.252 283.534 162.181Z" fill="white"/>
<path class="berries" d="M272.597 147.289C272.494 146.709 272.271 145.608 272.812 145.176C273.524 144.603 274.713 145.602 275.261 146.044C275.98 146.624 276.755 147.498 276.693 148.482C276.604 149.841 275.081 150.455 273.969 149.787C273.083 149.25 272.769 148.251 272.597 147.289Z" fill="white"/>
<path class="berries" d="M263.102 144.862C262.76 146.179 261.148 146.496 260.182 145.633C259.411 144.937 259.29 143.896 259.305 142.92C259.313 142.332 259.298 141.208 259.909 140.885C260.719 140.455 261.699 141.659 262.155 142.198C262.751 142.901 263.348 143.906 263.102 144.862Z" fill="white"/>
<path class="berries" d="M265.197 158.06C265.109 159.418 263.584 160.033 262.473 159.365C261.586 158.827 261.273 157.829 261.102 156.866C260.998 156.287 260.774 155.186 261.316 154.753C262.027 154.182 263.216 155.18 263.764 155.622C264.483 156.203 265.258 157.075 265.197 158.06Z" fill="white"/>
<path class="berries" d="M247.371 141.184C246.962 142.485 245.334 142.718 244.416 141.806C243.683 141.073 243.614 140.028 243.679 139.054C243.718 138.466 243.761 137.342 244.387 137.051C245.217 136.664 246.134 137.915 246.562 138.478C247.121 139.213 247.667 140.244 247.371 141.184Z" fill="white"/>
<path class="berries" d="M252.362 152.681C252.274 154.039 250.749 154.654 249.638 153.986C248.749 153.449 248.438 152.45 248.266 151.488C248.163 150.909 247.939 149.806 248.481 149.375C249.193 148.802 250.381 149.801 250.93 150.243C251.647 150.824 252.422 151.696 252.362 152.681Z" fill="white"/>
<path class="berries" d="M315.297 127.64C302.726 130.612 294.224 137.438 295.15 152.994C296.398 173.972 320.402 197.955 333.936 197.15C347.471 196.346 368.464 169.691 367.216 148.714C366.494 136.581 360.704 130.405 352.105 127.576C347.584 129.28 344.116 129.037 344.116 129.037C347.234 133.75 356.763 140.636 356.763 140.636C350.565 138.53 342.557 134.571 342.557 134.571C342.557 134.571 345.002 139.147 342.798 147.439C342.798 147.439 338.578 138.662 333.003 135.211C333.003 135.211 327.396 140.086 320.079 144.262C320.079 144.262 323.482 138.882 323.109 132.668C323.109 132.668 315.59 135.473 307.5 138.057C307.5 138.057 313.293 132.058 315.541 127.674C315.541 127.674 315.452 127.664 315.297 127.64Z" fill="#FF0009"/>
<path class="berries" d="M344.113 129.039C347.23 133.752 356.76 140.639 356.76 140.639C350.561 138.532 342.554 134.574 342.554 134.574C342.554 134.574 344.998 139.149 342.795 147.441C342.795 147.441 338.575 138.664 333 135.213C333 135.213 327.393 140.088 320.076 144.264C320.076 144.264 323.479 138.884 323.106 132.67C323.106 132.67 315.588 135.475 307.497 138.059C307.497 138.059 313.29 132.06 315.538 127.676C315.538 127.676 315.45 127.666 315.295 127.642C314.341 127.492 310.569 126.77 304.93 124.032C309.636 124.227 315.914 120.27 322.07 121.078C325.874 121.578 327.286 122.578 329.13 123.439C330.53 112.962 337.645 104.966 337.986 104.585C338.738 103.751 340.023 103.686 340.86 104.437C341.696 105.188 341.762 106.474 341.013 107.31C340.938 107.391 334.595 114.554 333.226 123.607C335.219 122.93 338.329 122.156 341.431 122.532C348.86 123.429 356.725 125.251 356.725 125.251C355.127 126.28 353.562 127.03 352.102 127.579C347.581 129.283 344.114 129.04 344.114 129.04" fill="#007C40"/>
<path class="berries" d="M308.421 164.125C307.859 163.349 308.046 162.227 308.334 161.38C308.556 160.733 309.018 159.296 309.903 159.398C310.569 159.474 310.953 160.494 311.171 161.026C311.529 161.904 311.788 162.889 311.339 163.791C310.768 164.916 309.198 165.198 308.421 164.125Z" fill="white"/>
<path class="berries" d="M312.154 151.529C311.265 152.422 309.683 152.209 309.274 150.949C308.981 150.036 309.503 149.028 310.042 148.309C310.452 147.762 311.335 146.537 312.145 146.908C312.758 147.187 312.807 148.278 312.851 148.848C312.92 149.795 312.864 150.81 312.154 151.529Z" fill="white"/>
<path class="berries" d="M315.821 178.539C315.166 177.836 315.214 176.702 315.398 175.826C315.537 175.154 315.82 173.673 316.71 173.666C317.383 173.659 317.892 174.627 318.17 175.127C318.634 175.956 319.013 176.901 318.674 177.851C318.249 179.035 316.722 179.509 315.821 178.539Z" fill="white"/>
<path class="berries" d="M320.078 165.407C319.515 164.631 319.701 163.509 319.993 162.661C320.212 162.014 320.674 160.578 321.557 160.679C322.226 160.755 322.612 161.776 322.828 162.307C323.188 163.186 323.447 164.171 322.997 165.073C322.425 166.197 320.854 166.48 320.078 165.407Z" fill="white"/>
<path class="berries" d="M328.068 153.027C327.529 152.232 327.752 151.118 328.068 150.278C328.312 149.638 328.815 148.216 329.696 148.345C330.364 148.441 330.717 149.476 330.916 150.013C331.247 150.904 331.477 151.897 330.996 152.784C330.392 153.889 328.816 154.124 328.07 153.027" fill="white"/>
<path class="berries" d="M334.355 169.706C334.675 170.601 334.891 171.595 334.402 172.476C333.785 173.575 332.203 173.79 331.473 172.686C330.946 171.884 331.178 170.774 331.506 169.938C331.755 169.3 332.276 167.885 333.155 168.025C333.819 168.129 334.162 169.167 334.355 169.706Z" fill="white"/>
<path class="berries" d="M341.232 163.079C340.563 162.39 340.582 161.254 340.746 160.374C340.871 159.699 341.117 158.21 342.009 158.184C342.679 158.163 343.211 159.119 343.5 159.61C343.984 160.427 344.384 161.364 344.069 162.324C343.67 163.518 342.155 164.026 341.232 163.079Z" fill="white"/>
<path class="berries" d="M345.816 175.229C345.29 174.427 345.524 173.317 345.85 172.481C346.099 171.844 346.622 170.429 347.498 170.568C348.164 170.673 348.506 171.711 348.698 172.25C349.018 173.144 349.236 174.138 348.747 175.019C348.13 176.118 346.545 176.333 345.816 175.229Z" fill="white"/>
<path class="berries" d="M352.758 152.393C352.055 151.742 352.018 150.608 352.135 149.718C352.225 149.037 352.396 147.54 353.283 147.466C353.952 147.41 354.531 148.338 354.847 148.816C355.372 149.607 355.817 150.523 355.553 151.494C355.217 152.707 353.731 153.294 352.758 152.393Z" fill="white"/>
<path class="berries" d="M354.067 164.504C353.541 163.702 353.775 162.592 354.1 161.756C354.35 161.118 354.871 159.703 355.749 159.844C356.414 159.947 356.757 160.985 356.949 161.524C357.269 162.419 357.488 163.413 356.996 164.294C356.381 165.393 354.796 165.608 354.067 164.504Z" fill="white"/>
</svg>
