<svg width="102" height="102" viewBox="0 0 102 102" fill="none" xmlns="http://www.w3.org/2000/svg">
<g clip-path="url(#clip0_453_469)">
<path d="M30.2542 72.0733C45.0874 78.7702 80.9608 85.0524 78.7099 57.3094C76.4589 29.5665 87.0626 13.6671 69.8992 5.91818C52.7357 -1.83073 -17.6291 50.4552 30.2542 72.0733Z" fill="#FF1A1A"/>
<path d="M66.4829 64.5868C66.4829 64.5868 66.4831 64.551 66.4878 64.488C66.4949 64.4274 66.4967 64.33 66.5151 64.222C66.5319 64.1122 66.5476 63.9745 66.5788 63.8293C66.6111 63.6685 66.6494 63.5091 66.6936 63.3512C66.7437 63.1721 66.8009 62.995 66.8651 62.8204C66.9341 62.6321 67.0103 62.4465 67.0934 62.2639C67.2692 61.8839 67.4754 61.5186 67.7099 61.1717C67.9358 60.8334 68.1926 60.5168 68.477 60.226C68.748 59.9499 69.0296 59.7199 69.2932 59.5443C69.4146 59.4637 69.5397 59.3888 69.668 59.3197C69.7851 59.2583 69.8909 59.2082 69.9823 59.1712C70.1636 59.0956 70.2835 59.0684 70.2835 59.0684C71.1221 58.8777 71.9566 59.4031 72.1473 60.2419C72.1951 60.4559 72.1979 60.6776 72.1558 60.8928C72.1558 60.8928 72.1316 61.0135 72.0609 61.1966C72.0262 61.2889 71.979 61.3959 71.9206 61.5146C71.8548 61.6447 71.7832 61.7716 71.7058 61.8952C71.5372 62.1631 71.3147 62.4506 71.0455 62.7288C70.7771 63.0075 70.4624 63.2774 70.1202 63.5202C69.7794 63.7636 69.4196 63.9792 69.0443 64.165C68.864 64.2528 68.6803 64.3337 68.4939 64.4076C68.3211 64.4764 68.1455 64.5382 67.9678 64.5929C67.7992 64.6448 67.6393 64.687 67.493 64.7202C67.3485 64.7552 67.2113 64.7744 67.102 64.7941C66.9944 64.8155 66.897 64.8196 66.8368 64.8283C66.774 64.8346 66.7382 64.8358 66.7382 64.8358C66.6725 64.8377 66.6088 64.8135 66.561 64.7685C66.5132 64.7234 66.4852 64.6612 66.4833 64.5956L66.4829 64.5868ZM35.9724 57.7885C35.9724 57.7885 35.987 57.7587 36.0087 57.7052C36.0273 57.653 36.0656 57.5717 36.0937 57.4769C36.1238 57.3813 36.1665 57.2627 36.1984 57.1339C36.277 56.834 36.3304 56.5281 36.358 56.2193C36.3736 56.0496 36.3825 55.8739 36.3836 55.6955C36.3836 55.3353 36.3502 54.9758 36.2839 54.6217C36.2192 54.2689 36.1187 53.9312 35.9903 53.6287C35.8627 53.3259 35.7067 53.0586 35.5447 52.8414C35.4627 52.7332 35.3819 52.6364 35.3037 52.5531C35.2248 52.4703 35.1512 52.4001 35.0852 52.3445C34.955 52.2326 34.8597 52.1774 34.8597 52.1774C34.7325 52.1045 34.5963 52.0484 34.4547 52.0104C33.5766 51.7793 32.6775 52.3038 32.4465 53.1819C32.4465 53.1819 32.4185 53.2885 32.4062 53.4597C32.3991 53.5457 32.3971 53.6474 32.4002 53.7618C32.4041 53.8758 32.4161 54.0014 32.4351 54.136C32.475 54.4041 32.5548 54.703 32.6798 55.0069C32.804 55.3112 32.9728 55.6205 33.1775 55.9149C33.382 56.2114 33.6136 56.4884 33.8691 56.7422C33.994 56.8646 34.124 56.9817 34.2587 57.0931C34.3849 57.1977 34.5155 57.2967 34.6504 57.3898C34.7705 57.473 34.8939 57.5512 35.0203 57.6244C35.1344 57.6927 35.2486 57.746 35.3376 57.7919C35.4245 57.8387 35.5093 57.8687 35.5594 57.8923C35.6126 57.9146 35.6441 57.9253 35.6441 57.9253C35.7061 57.9463 35.7736 57.944 35.834 57.9188C35.8944 57.8936 35.9436 57.8473 35.9724 57.7885ZM47.3204 52.0871C47.3204 52.0871 47.3535 52.0871 47.4112 52.083C47.4662 52.0765 47.5561 52.0754 47.6533 52.0588C47.7523 52.0438 47.8774 52.0298 48.0073 52.0017C48.3109 51.9402 48.6088 51.8534 48.8979 51.7423C49.0611 51.68 49.2216 51.6107 49.3788 51.5347C49.7019 51.3762 50.0095 51.188 50.2978 50.9726C50.5855 50.7593 50.8441 50.5204 51.0587 50.2721C51.2738 50.0243 51.4447 49.7668 51.568 49.5257C51.6247 49.4141 51.6755 49.2996 51.7201 49.1827C51.7596 49.0754 51.7901 48.9784 51.8108 48.8949C51.8538 48.7289 51.8611 48.619 51.8611 48.619C51.8697 48.4791 51.8615 48.3276 51.8325 48.1835C51.653 47.293 50.7857 46.7165 49.8952 46.896C49.8952 46.896 49.7873 46.9178 49.6283 46.982C49.5349 47.0196 49.4437 47.0622 49.3549 47.1096C49.2448 47.1692 49.138 47.2346 49.0348 47.3054C48.812 47.4592 48.5791 47.6626 48.3617 47.9084C48.1437 48.1537 47.9408 48.4414 47.7671 48.7546C47.5914 49.0686 47.4452 49.3982 47.3304 49.7392C47.2758 49.9052 47.2282 50.0733 47.1877 50.2433C47.1155 50.5445 47.0686 50.8513 47.0474 51.1603C47.0365 51.2928 47.039 51.4185 47.0371 51.5187C47.0335 51.6172 47.044 51.7066 47.0449 51.7618C47.0483 51.8194 47.0527 51.8524 47.0527 51.8524C47.0613 51.9173 47.0932 51.9769 47.1424 52.0201C47.1916 52.0633 47.2549 52.0871 47.3204 52.0871ZM70.2697 35.6983C70.2697 35.6983 70.3028 35.6983 70.3605 35.6942C70.4154 35.6878 70.5054 35.6866 70.6025 35.67C70.7016 35.655 70.8267 35.6411 70.9566 35.6129C71.2601 35.5514 71.5581 35.4646 71.8472 35.3535C72.0104 35.2912 72.1708 35.222 72.3281 35.1459C72.6511 34.9874 72.9588 34.7992 73.2471 34.5839C73.5348 34.3706 73.7934 34.1317 74.008 33.8833C74.2231 33.6356 74.394 33.378 74.5173 33.1369C74.574 33.0253 74.6248 32.9108 74.6694 32.7939C74.7089 32.6866 74.7394 32.5897 74.7601 32.5061C74.8031 32.3401 74.8104 32.2303 74.8104 32.2303C74.819 32.0903 74.8108 31.9389 74.7817 31.7948C74.6022 30.9043 73.735 30.3278 72.8445 30.5073C72.8445 30.5073 72.7366 30.5291 72.5776 30.5933C72.4842 30.6309 72.393 30.6735 72.3042 30.7209C72.1941 30.7805 72.0873 30.8458 71.9841 30.9167C71.7613 31.0705 71.5284 31.2738 71.311 31.5196C71.093 31.765 70.8901 32.0526 70.7163 32.3659C70.5407 32.6799 70.3945 33.0095 70.2797 33.3505C70.225 33.5164 70.1774 33.6846 70.137 33.8546C70.0648 34.1558 70.0178 34.4625 69.9966 34.7716C69.9858 34.904 69.9883 35.0298 69.9864 35.1299C69.9827 35.2285 69.9933 35.3179 69.9942 35.3731C69.9976 35.4307 70.002 35.4637 70.002 35.4637C70.0105 35.5286 70.0424 35.5882 70.0916 35.6314C70.1409 35.6746 70.2042 35.6984 70.2697 35.6983ZM65.7126 50.5541C65.7126 50.5541 65.7441 50.5463 65.7977 50.5287C65.8483 50.5097 65.9333 50.4873 66.0211 50.4487C66.1112 50.4112 66.2262 50.3685 66.3419 50.3115C66.6126 50.1826 66.8718 50.031 67.1167 49.8582C67.2545 49.7621 67.3872 49.6591 67.5144 49.5495C67.6478 49.4402 67.7716 49.3205 67.8925 49.1965C68.0127 49.0729 68.1264 48.9432 68.2334 48.808C68.4475 48.5408 68.6267 48.2564 68.7616 47.9739C68.8971 47.6916 68.9875 47.4107 69.0378 47.1566C69.0809 46.944 69.0992 46.727 69.0924 46.5102C69.091 46.4282 69.079 46.3587 69.0752 46.3133C69.0696 46.2671 69.0633 46.2407 69.0633 46.2407C69.0376 46.1381 69.0029 46.0379 68.9597 45.9413C68.5717 45.0878 67.5653 44.7107 66.712 45.0986C66.712 45.0986 66.6874 45.1098 66.6477 45.134C66.6097 45.1591 66.5476 45.1926 66.4823 45.2422C66.3076 45.3709 66.1484 45.5194 66.0079 45.6848C65.8392 45.8813 65.6742 46.1261 65.5361 46.407C65.3974 46.6877 65.2846 47.0042 65.2069 47.3377C65.1668 47.5053 65.1351 47.6749 65.1122 47.8457C65.0895 48.0174 65.0719 48.1887 65.0684 48.3611C65.0608 48.5288 65.0619 48.6968 65.0716 48.8644C65.0873 49.1637 65.1283 49.4612 65.1942 49.7535C65.2209 49.8797 65.2584 49.9965 65.2846 50.0905C65.3086 50.1834 65.3436 50.2642 65.3599 50.3156C65.3792 50.3685 65.3926 50.3982 65.3926 50.3982C65.4191 50.4576 65.4658 50.5058 65.5243 50.5343C65.5828 50.5628 65.6495 50.5698 65.7126 50.5541ZM50.9656 63.9398C50.9513 64.0049 50.9634 64.0731 50.9993 64.1294C51.0352 64.1856 51.092 64.2253 51.1571 64.2397C51.1571 64.2397 51.1917 64.2473 51.253 64.2563C51.3123 64.2624 51.4063 64.2818 51.5134 64.2872C51.6219 64.2946 51.757 64.3091 51.9022 64.3104C52.0623 64.3139 52.2225 64.3113 52.3824 64.3025C52.5634 64.2927 52.7441 64.2756 52.9238 64.2512C53.1172 64.225 53.3095 64.1914 53.5003 64.1504C53.8972 64.0625 54.2861 63.9419 54.6631 63.7896C55.0294 63.6443 55.381 63.4642 55.7129 63.2517C56.0282 63.0491 56.3012 62.8264 56.5184 62.6093C56.6265 62.5 56.7223 62.3947 56.8035 62.2953C56.8841 62.1952 56.9518 62.1036 57.0042 62.0233C57.1102 61.8643 57.1586 61.7541 57.1586 61.7541C57.2407 61.5652 57.2856 61.3623 57.291 61.1565C57.3103 60.2882 56.6221 59.5688 55.7539 59.5495C55.7539 59.5495 55.6337 59.5468 55.4447 59.5758C55.3497 59.5894 55.2382 59.6119 55.1133 59.6428C54.9889 59.6743 54.853 59.7167 54.7082 59.7685C54.4197 59.8739 54.1025 60.0271 53.7856 60.2273C53.4529 60.4385 53.1411 60.681 52.8546 60.9516C52.5574 61.2291 52.2838 61.5306 52.0364 61.8532C51.9185 62.0088 51.8068 62.1689 51.7015 62.3332C51.6034 62.4857 51.5116 62.6421 51.4262 62.8021C51.3508 62.9433 51.2807 63.0874 51.2162 63.234C51.1559 63.3661 51.112 63.4947 51.0728 63.5963C51.0325 63.6956 51.0104 63.7889 50.9908 63.8455C50.9732 63.9049 50.9655 63.9393 50.9655 63.9393L50.9656 63.9398ZM41.0626 42.9264C41.0626 42.9264 41.0775 42.8955 41.0999 42.8399C41.1189 42.7856 41.1584 42.7014 41.1873 42.6024C41.2185 42.5025 41.2623 42.3789 41.2955 42.2436C41.3341 42.0952 41.3669 41.9454 41.3938 41.7944C41.4242 41.6242 41.4475 41.4527 41.4635 41.2805C41.4809 41.0959 41.4908 40.9107 41.4932 40.7253C41.4957 40.3409 41.4648 39.9571 41.4006 39.5781C41.3409 39.2117 41.2441 38.8523 41.1117 38.5054C40.9851 38.1762 40.8297 37.8829 40.6677 37.6426C40.5856 37.5229 40.505 37.4151 40.4267 37.3222C40.3474 37.2296 40.2739 37.1506 40.2076 37.0878C40.0771 36.9612 39.9811 36.8971 39.9811 36.8971C39.8316 36.7978 39.6668 36.7237 39.4933 36.6778C38.6364 36.4543 37.7605 36.9679 37.5372 37.8249C37.5372 37.8249 37.5082 37.9365 37.4944 38.1179C37.4866 38.2089 37.4838 38.3169 37.4861 38.4387C37.4891 38.5601 37.5003 38.6943 37.5184 38.8384C37.5568 39.1257 37.6351 39.4482 37.7589 39.7784C37.882 40.109 38.0501 40.4478 38.2545 40.7726C38.458 41.0988 38.6896 41.4065 38.9466 41.6923C39.0715 41.8294 39.2018 41.9614 39.3373 42.088C39.4636 42.2062 39.5947 42.319 39.7305 42.4261C39.8508 42.5212 39.9747 42.6115 40.102 42.6969C40.2167 42.776 40.3314 42.8394 40.4211 42.8934C40.5085 42.9483 40.5937 42.985 40.6441 43.0132C40.6976 43.0399 40.7294 43.0532 40.7294 43.0532C40.7906 43.0783 40.8592 43.0792 40.921 43.0556C40.9829 43.0321 41.0336 42.9859 41.0626 42.9264ZM40.3905 29.3626C40.3905 29.3626 40.4149 29.3386 40.4547 29.2937C40.4909 29.2488 40.5563 29.1827 40.6167 29.0992C40.6796 29.0155 40.7623 28.9138 40.8389 28.7975C41.0216 28.5269 41.1824 28.2423 41.3198 27.9462C41.3981 27.7781 41.4695 27.6068 41.534 27.433C41.6652 27.0717 41.7646 26.6996 41.8311 26.3211C41.8976 25.9558 41.9269 25.5848 41.9183 25.2137C41.9094 24.8609 41.8613 24.5327 41.7891 24.2519C41.7555 24.1224 41.7156 23.9947 41.6694 23.8692C41.6259 23.7555 41.5829 23.6565 41.5415 23.5749C41.461 23.4119 41.3922 23.3193 41.3922 23.3193C41.2846 23.1756 41.1542 23.0506 41.006 22.9493C40.2735 22.4517 39.2763 22.6422 38.7787 23.3747C38.7787 23.3747 38.7138 23.4701 38.6402 23.6363C38.6023 23.7194 38.5636 23.8203 38.5249 23.9357C38.484 24.0631 38.4495 24.1923 38.4214 24.3231C38.3611 24.6066 38.327 24.9367 38.333 25.2894C38.3402 25.6606 38.385 26.0301 38.4668 26.3921C38.5482 26.7668 38.6671 27.1407 38.8108 27.4905C38.8825 27.6615 38.9611 27.8296 39.0464 27.9943C39.1961 28.2843 39.3688 28.5619 39.5628 28.8243C39.6443 28.9374 39.7312 29.0355 39.7975 29.1163C39.8614 29.1972 39.9295 29.2606 39.9675 29.3039C40.0091 29.3471 40.0345 29.3702 40.0345 29.3702C40.0837 29.4144 40.1479 29.4382 40.214 29.4368C40.2801 29.4354 40.3433 29.4089 40.3905 29.3626ZM27.2022 48.1535C27.2572 48.1862 27.3229 48.1958 27.3849 48.1802C27.4469 48.1645 27.5001 48.1248 27.5329 48.0699C27.5329 48.0699 27.5519 48.0382 27.5813 47.9799C27.6081 47.9221 27.6561 47.8355 27.7012 47.7287C27.8245 47.4455 27.9278 47.154 28.0105 46.8564C28.0633 46.6687 28.1087 46.4791 28.1467 46.2879C28.1883 46.0813 28.2222 45.8731 28.2484 45.664C28.3009 45.2252 28.3198 44.783 28.3048 44.3414C28.2925 43.911 28.2424 43.4826 28.1553 43.061C28.0715 42.6596 27.9543 42.2932 27.8238 41.9853C27.7574 41.8315 27.6908 41.6918 27.6245 41.5693C27.5575 41.447 27.4942 41.3415 27.4362 41.2557C27.3223 41.0838 27.2349 40.99 27.2349 40.99C27.0688 40.8132 26.8635 40.6778 26.6357 40.5946C25.8399 40.307 24.9616 40.7189 24.6739 41.5146C24.6739 41.5146 24.6304 41.6351 24.5932 41.838C24.5736 41.9397 24.557 42.0617 24.5435 42.2004C24.5307 42.339 24.5245 42.4938 24.524 42.6612C24.525 42.9957 24.5614 43.3788 24.6422 43.7807C24.7224 44.1828 24.8463 44.6036 25.0082 45.0168C25.168 45.4288 25.3592 45.8279 25.5801 46.2106C25.6865 46.3927 25.7996 46.5707 25.9191 46.7445C26.0293 46.9052 26.1456 47.0616 26.2678 47.2134C26.4609 47.4545 26.6705 47.6818 26.8953 47.8937C26.9786 47.9742 27.0568 48.0349 27.1042 48.0775C27.1543 48.1196 27.1843 48.1413 27.1843 48.1413C27.19 48.1458 27.196 48.1498 27.2022 48.1535ZM49.6405 33.3521C49.6405 33.3521 49.6699 33.3344 49.7189 33.2999C49.7645 33.2647 49.8434 33.2156 49.9217 33.1482C50.0022 33.0815 50.1063 33.0017 50.2078 32.9063C50.4483 32.6856 50.6708 32.4462 50.8733 32.1902C50.9852 32.0489 51.0954 31.8984 51.2007 31.7407C51.4123 31.4197 51.5954 31.0809 51.7479 30.7281C51.8974 30.3883 52.0119 30.0341 52.0897 29.6711C52.1628 29.326 52.1923 28.9955 52.1873 28.7056C52.1847 28.5718 52.1755 28.4383 52.1597 28.3055C52.1437 28.1847 52.125 28.0784 52.1036 27.9895C52.0631 27.8123 52.0176 27.7061 52.0176 27.7061C51.949 27.5477 51.851 27.3912 51.728 27.2566C51.131 26.6025 50.1167 26.5563 49.4626 27.1532C49.4626 27.1532 49.3774 27.2309 49.2672 27.3755C49.2112 27.4476 49.15 27.5366 49.0856 27.6399C49.0163 27.7543 48.9526 27.872 48.8949 27.9927C48.7705 28.2545 48.6606 28.5677 48.5846 28.9121C48.5054 29.2748 48.4632 29.6446 48.4588 30.0158C48.4519 30.4001 48.4786 30.7843 48.5384 31.1639C48.5684 31.3469 48.6058 31.5286 48.6506 31.7086C48.729 32.0254 48.8325 32.3355 48.9602 32.6359C49.0133 32.7646 49.0751 32.8803 49.1208 32.9743C49.1641 33.068 49.2158 33.1453 49.2428 33.1963C49.2732 33.248 49.2925 33.2763 49.2925 33.2763C49.3299 33.331 49.3867 33.3692 49.4514 33.3833C49.5161 33.3974 49.5838 33.3863 49.6405 33.3521ZM66.0863 23.2327C66.0944 23.2574 66.1074 23.2803 66.1243 23.3C66.1413 23.3198 66.162 23.336 66.1853 23.3477C66.2085 23.3594 66.2338 23.3665 66.2598 23.3684C66.2858 23.3703 66.3119 23.3671 66.3366 23.359L66.408 23.3354C66.4507 23.318 66.522 23.297 66.5966 23.2617C66.6729 23.2274 66.77 23.1881 66.8687 23.1363C67.1011 23.0175 67.3236 22.8803 67.5341 22.7261C67.65 22.6409 67.7684 22.549 67.8807 22.4487C68.1134 22.2476 68.3272 22.0257 68.5196 21.7858C68.9091 21.3105 69.176 20.7711 69.2891 20.3209C69.3156 20.2173 69.3369 20.1125 69.353 20.0068C69.3654 19.9221 69.3735 19.8369 69.3772 19.7514C69.3818 19.6053 69.3712 19.5148 69.3712 19.5148C69.3472 19.3103 69.2737 19.1148 69.157 18.9452C69.0403 18.7755 68.8841 18.6369 68.7017 18.5413C68.5194 18.4457 68.3165 18.396 68.1107 18.3966C67.9048 18.3971 67.7021 18.4478 67.5203 18.5443C67.5203 18.5443 67.4398 18.5871 67.3222 18.6741C67.2637 18.7177 67.1976 18.7733 67.126 18.8392C67.0549 18.9055 66.9805 18.9832 66.9039 19.0704C66.598 19.4196 66.3061 19.9459 66.1368 20.5365C66.0488 20.8312 65.988 21.1333 65.955 21.4391C65.9364 21.5884 65.9281 21.738 65.9239 21.882C65.9197 22.0257 65.9228 22.1653 65.93 22.2965C65.9375 22.4277 65.9496 22.551 65.9649 22.6625C65.9783 22.7731 66.0013 22.8754 66.0165 22.9576C66.0299 23.0389 66.0533 23.1094 66.0632 23.1545L66.0846 23.2268L66.0863 23.2327ZM28.1344 60.5511C28.1344 60.5511 28.1318 60.517 28.1233 60.4577C28.1124 60.4011 28.1045 60.3084 28.0798 60.2082C28.0567 60.1061 28.0326 59.9773 27.9936 59.8436C27.9562 59.7078 27.9095 59.5603 27.8534 59.4057C27.7944 59.2432 27.7285 59.0832 27.656 58.9262C27.5808 58.7625 27.4963 58.5961 27.4034 58.4309C27.2156 58.1025 26.9937 57.7791 26.748 57.4846C26.504 57.1884 26.2353 56.9223 25.9602 56.7015C25.6855 56.48 25.4042 56.3043 25.1435 56.1775C25.0231 56.1193 24.8998 56.0671 24.7743 56.0211C24.6594 55.9807 24.5561 55.9493 24.4672 55.9279C24.2908 55.8839 24.1756 55.8765 24.1756 55.8765C24.0032 55.8659 23.8195 55.8826 23.6436 55.9312C22.79 56.1675 22.2898 57.051 22.5262 57.9045C22.5262 57.9045 22.557 58.0157 22.6361 58.1795C22.6825 58.276 22.7337 58.37 22.7897 58.4612C22.8603 58.5748 22.9365 58.6848 23.018 58.7908C23.1953 59.0202 23.4247 59.2599 23.6973 59.4837C23.9697 59.708 24.2849 59.9168 24.6246 60.0954C24.9642 60.2755 25.3189 60.4257 25.6846 60.5442C25.8613 60.6002 26.0403 60.6491 26.2211 60.6906C26.3895 60.7296 26.5596 60.7614 26.7307 60.7862C26.8825 60.8082 27.0351 60.8242 27.1881 60.8342C27.327 60.8452 27.4579 60.8424 27.5627 60.8442C27.6659 60.8479 27.758 60.8368 27.8158 60.836C27.8471 60.8343 27.8784 60.8315 27.9095 60.8278C27.9751 60.8188 28.0348 60.7853 28.0766 60.7339C28.1183 60.6825 28.139 60.6172 28.1344 60.5511ZM57.1456 36.9859C57.1456 36.9859 57.1783 36.9754 57.2338 36.953C57.2863 36.929 57.3743 36.8992 57.4658 36.8514C57.5595 36.8048 57.6789 36.7508 57.7996 36.6811C58.0841 36.521 58.3553 36.3385 58.6107 36.1352C58.7559 36.0199 58.8964 35.8987 59.0318 35.772C59.3108 35.5077 59.5663 35.2194 59.7952 34.9107C60.0249 34.6032 60.2196 34.279 60.3688 33.9592C60.5186 33.6399 60.6225 33.3246 60.6837 33.0414C60.7117 32.9106 60.7331 32.7785 60.7479 32.6455C60.7598 32.5244 60.7657 32.4164 60.7654 32.3252C60.7663 32.1434 60.7461 32.0298 60.7461 32.0298C60.7142 31.8531 60.6535 31.683 60.5664 31.526C60.134 30.7532 59.157 30.4771 58.3841 30.9095C58.3841 30.9095 58.2834 30.9659 58.1432 31.0816C58.0605 31.1496 57.9814 31.2218 57.9061 31.2979C57.8126 31.3935 57.7238 31.4936 57.6401 31.598C57.4594 31.8246 57.2811 32.1044 57.1285 32.4226C56.9753 32.7404 56.8475 33.0962 56.7547 33.4687C56.6604 33.8413 56.5988 34.2215 56.5707 34.6048C56.5583 34.7898 56.5533 34.9752 56.556 35.1606C56.558 35.3405 56.5687 35.5147 56.5844 35.6784C56.6004 35.8421 56.6217 35.9955 56.6464 36.134C56.6686 36.2715 56.7025 36.3981 56.7256 36.5002C56.7464 36.6012 56.7791 36.6883 56.7938 36.744C56.8116 36.8013 56.824 36.8332 56.824 36.8332C56.8481 36.8948 56.8948 36.9449 56.9546 36.9733C57.0143 37.0017 57.0827 37.0062 57.1456 36.9859ZM55.3473 18.6742C55.3518 18.7266 55.377 18.775 55.4173 18.8088C55.4575 18.8426 55.5095 18.8591 55.5619 18.8545L55.6369 18.848C55.6824 18.8408 55.7567 18.8367 55.8373 18.8196C55.9194 18.8037 56.0231 18.7878 56.1309 18.7599C56.25 18.7309 56.3679 18.6972 56.4845 18.659C56.6158 18.6159 56.7454 18.5674 56.8727 18.5134C57.0051 18.4571 57.1413 18.3949 57.2736 18.323C57.5462 18.1807 57.8052 18.0138 58.0475 17.8243C58.5355 17.4512 58.9191 16.9874 59.1325 16.5752C59.1858 16.4721 59.231 16.3745 59.2668 16.2841C59.3021 16.1933 59.3297 16.1116 59.349 16.0411C59.3872 15.9 59.3975 15.8095 59.3975 15.8095C59.415 15.6535 59.4038 15.4956 59.3645 15.3436C59.2793 15.0189 59.0686 14.7412 58.7787 14.5718C58.4888 14.4024 58.1434 14.3551 57.8187 14.4403C57.8187 14.4403 57.7306 14.4634 57.5962 14.5211C57.5179 14.5557 57.4415 14.5944 57.3672 14.6368C57.2747 14.6904 57.1848 14.7485 57.098 14.811C56.7201 15.0806 56.3154 15.5259 56.015 16.062C55.8618 16.3286 55.7332 16.6086 55.631 16.8986C55.5804 17.0377 55.5364 17.1792 55.4992 17.3225C55.4639 17.4561 55.4341 17.5911 55.4101 17.7273C55.3872 17.8568 55.3708 17.9795 55.3602 18.0915C55.3479 18.2022 55.3468 18.3071 55.3427 18.3906C55.3372 18.4728 55.3436 18.547 55.343 18.593L55.3471 18.6682C55.347 18.6702 55.347 18.6722 55.3473 18.6742Z" fill="#FF5C5C"/>
<path d="M39.3109 80.9303C41.8243 89.0823 49.7541 91.5146 52.5153 92.1246C52.9734 92.2258 53.3729 91.8043 53.2467 91.3525C52.9154 90.1657 52.1525 87.934 50.5238 85.0277C50.0694 84.2166 50.4133 83.8195 51.2836 84.1466C54.9067 85.5084 63.4234 87.988 67.5765 83.1379C67.8233 82.8496 67.7683 82.413 67.4498 82.2065C66.1988 81.3953 62.549 79.4878 54.0581 77.8694C52.4957 77.5716 52.4837 77.0236 54.0317 76.658C58.1756 75.6793 65.2113 73.4297 68.7593 68.9211C69.081 68.5122 68.7908 67.9124 68.2706 67.915C64.0352 67.9358 49.7518 68.173 44.9193 70.392C42.5285 71.4898 42.3533 62.165 42.368 58.7641C42.3702 58.2539 41.7909 57.9578 41.3809 58.2614C38.787 60.1822 32.1859 65.6905 34.0597 70.7887C34.2501 71.3066 33.7437 71.8041 33.2374 71.5851L15.7462 64.021L15.746 64.0209C15.7474 64.0306 17.2707 75.3983 29.4751 76.6256C32.431 76.9228 24.1458 80.0242 21.4071 81.0131C20.9723 81.1702 20.8554 81.733 21.1935 82.0481C25.2222 85.8018 35.7705 81.6883 38.4787 80.5398C38.8167 80.3963 39.2026 80.5793 39.3109 80.9303Z" fill="#16992B"/>
</g>
<defs>
<clipPath id="clip0_453_469">
<rect width="79" height="79" fill="white" transform="translate(101.826 73.8989) rotate(159.298)"/>
</clipPath>
</defs>
</svg>
