<svg width="79" height="79" viewBox="0 0 79 79" fill="none" xmlns="http://www.w3.org/2000/svg">
<g clip-path="url(#clip0_453_461)">
<path d="M66.3054 27.0089C54.7974 15.5009 23.4611 -3.0572 15.7593 23.6902C8.05759 50.4375 -7.48195 61.5619 5.83402 74.8778C19.15 88.1938 103.455 64.1582 66.3054 27.0089Z" fill="#FF1A1A"/>
<path d="M29.7696 21.205C29.7696 21.205 29.7568 21.2385 29.7301 21.2957C29.7021 21.3499 29.6659 21.4403 29.6106 21.5349C29.5561 21.6316 29.4927 21.7549 29.4121 21.8797C29.3251 22.0186 29.2329 22.1543 29.1358 22.2863C29.0256 22.4362 28.9095 22.5816 28.7877 22.7222C28.6566 22.874 28.5197 23.0207 28.3774 23.1621C28.0786 23.4554 27.7566 23.7242 27.4146 23.9658C27.0837 24.2024 26.7316 24.4078 26.3628 24.5793C26.0116 24.7418 25.6669 24.8573 25.3583 24.9285C25.2162 24.9609 25.0727 24.9868 24.9283 25.0061C24.797 25.0221 24.6803 25.0315 24.5817 25.0339C24.3854 25.0405 24.2637 25.0235 24.2637 25.0235C23.4118 24.9055 22.8169 24.119 22.9351 23.267C22.966 23.0499 23.0417 22.8415 23.1572 22.6551C23.1572 22.6551 23.2225 22.5508 23.3534 22.4045C23.4185 22.3304 23.5004 22.2469 23.597 22.1565C23.7045 22.0582 23.8164 21.9647 23.9324 21.8765C24.1849 21.6855 24.4947 21.4952 24.8448 21.3301C25.1944 21.1642 25.5842 21.0231 25.9901 20.9169C26.395 20.8097 26.8077 20.7352 27.2245 20.6941C27.4243 20.6757 27.6246 20.6649 27.8252 20.6617C28.0112 20.6585 28.1972 20.6627 28.3828 20.6744C28.5589 20.6855 28.7233 20.7024 28.8719 20.7231C29.0194 20.7415 29.1546 20.772 29.2638 20.7922C29.372 20.8103 29.4646 20.8408 29.524 20.854C29.5849 20.8703 29.6189 20.8819 29.6189 20.8819C29.681 20.9033 29.732 20.9484 29.7608 21.0075C29.7896 21.0665 29.7938 21.1346 29.7724 21.1967L29.7696 21.205ZM55.9069 38.35C55.9069 38.35 55.8827 38.3727 55.8435 38.4151C55.8077 38.4574 55.743 38.5199 55.6833 38.5986C55.6213 38.6774 55.5395 38.7732 55.4641 38.8825C55.2846 39.1352 55.1265 39.4025 54.9915 39.6816C54.9169 39.8348 54.8464 39.996 54.7824 40.1625C54.6551 40.4995 54.5592 40.8475 54.496 41.2022C54.4318 41.555 54.4065 41.9065 54.4196 42.2349C54.432 42.5632 54.4834 42.8684 54.5582 43.1289C54.5966 43.2591 54.638 43.3782 54.6816 43.4838C54.7262 43.5891 54.7702 43.6808 54.8123 43.7561C54.8946 43.9068 54.9642 43.9922 54.9642 43.9922C55.0575 44.1053 55.165 44.2059 55.284 44.2915C56.0237 44.8181 57.0503 44.6453 57.5767 43.9056C57.5767 43.9056 57.6406 43.8158 57.7126 43.66C57.7497 43.582 57.7875 43.4876 57.825 43.3794C57.8617 43.2714 57.8949 43.1497 57.9246 43.0172C57.982 42.7522 58.0131 42.4444 58.0037 42.1159C57.995 41.7874 57.9464 41.4384 57.8591 41.0906C57.7725 40.7409 57.6538 40.4 57.5045 40.0723C57.431 39.9136 57.3508 39.7581 57.2641 39.6063C57.1831 39.4638 57.0959 39.325 57.0026 39.1903C56.9196 39.07 56.8319 38.9532 56.7395 38.84C56.6569 38.7359 56.569 38.6456 56.5019 38.5712C56.4372 38.4967 56.3684 38.4387 56.33 38.3989C56.288 38.3592 56.2624 38.3381 56.2624 38.3381C56.2118 38.2966 56.1478 38.2748 56.0824 38.277C56.017 38.2792 55.9546 38.3052 55.9069 38.35ZM43.2762 39.6717C43.2762 39.6717 43.2452 39.66 43.1898 39.6435C43.1361 39.63 43.0515 39.5993 42.9548 39.5805C42.8568 39.5595 42.7349 39.5284 42.6034 39.5088C42.2977 39.459 41.9883 39.4348 41.6786 39.4365C41.5039 39.4372 41.3293 39.4452 41.1554 39.4608C40.7971 39.4949 40.4428 39.5621 40.097 39.6617C39.7525 39.7595 39.4262 39.8916 39.1376 40.048C38.8488 40.2037 38.5979 40.3842 38.3973 40.5662C38.3048 40.6505 38.2169 40.7397 38.1338 40.8332C38.0589 40.9196 37.9961 40.9996 37.9472 41.0704C37.8483 41.2105 37.8026 41.3106 37.8026 41.3106C37.7451 41.4385 37.6993 41.5831 37.6755 41.7282C37.5286 42.6246 38.1361 43.4705 39.0325 43.6174C39.0325 43.6174 39.1412 43.6351 39.3126 43.6313C39.4132 43.6291 39.5137 43.6215 39.6135 43.6086C39.7375 43.5917 39.8605 43.5683 39.9821 43.5385C40.2449 43.4734 40.5346 43.3656 40.8249 43.2125C41.1155 43.0601 41.407 42.8627 41.6803 42.6311C41.9556 42.3995 42.2089 42.1428 42.4368 41.8644C42.5466 41.7285 42.6506 41.588 42.7485 41.4433C42.9225 41.1871 43.0749 40.9167 43.204 40.6351C43.2609 40.5151 43.303 40.3966 43.3402 40.3035C43.3785 40.2127 43.4002 40.1253 43.4189 40.0733C43.436 40.0182 43.4436 39.9858 43.4436 39.9858C43.4585 39.9221 43.4498 39.8551 43.419 39.7973C43.3882 39.7395 43.3374 39.6949 43.2762 39.6717ZM16.0151 46.8895C16.0151 46.8895 15.9841 46.8778 15.9287 46.8613C15.875 46.8479 15.7905 46.8172 15.6937 46.7984C15.5958 46.7774 15.4739 46.7462 15.3424 46.7266C15.0367 46.6768 14.7273 46.6527 14.4176 46.6544C14.2429 46.655 14.0683 46.6631 13.8943 46.6786C13.5361 46.7127 13.1818 46.78 12.836 46.8795C12.4915 46.9773 12.1651 47.1094 11.8766 47.2659C11.5878 47.4216 11.3369 47.6021 11.1363 47.784C11.0438 47.8684 10.9558 47.9575 10.8727 48.0511C10.7979 48.1375 10.7351 48.2174 10.6862 48.2882C10.5873 48.4284 10.5416 48.5285 10.5416 48.5285C10.4841 48.6564 10.4382 48.801 10.4145 48.946C10.2676 49.8425 10.8751 50.6883 11.7715 50.8352C11.7715 50.8352 11.8801 50.853 12.0516 50.8491C12.1522 50.8469 12.2526 50.8394 12.3524 50.8264C12.4765 50.8096 12.5995 50.7862 12.7211 50.7564C12.9838 50.6913 13.2736 50.5834 13.5638 50.4304C13.8545 50.2779 14.146 50.0806 14.4193 49.849C14.6946 49.6173 14.9478 49.3607 15.1758 49.0823C15.2856 48.9464 15.3895 48.8059 15.4875 48.6612C15.6615 48.4049 15.8138 48.1346 15.9429 47.853C15.9999 47.7329 16.042 47.6144 16.0792 47.5214C16.1174 47.4305 16.1392 47.3432 16.1579 47.2912C16.175 47.2361 16.1826 47.2037 16.1826 47.2037C16.1976 47.1399 16.1888 47.0729 16.158 47.0151C16.1272 46.9573 16.0764 46.9127 16.0151 46.8895ZM25.5296 34.604C25.5296 34.604 25.4973 34.6001 25.441 34.5976C25.387 34.5975 25.2995 34.5884 25.2037 34.5935C25.1062 34.5967 24.9835 34.5959 24.8551 34.6084C24.5564 34.6333 24.2603 34.6835 23.9701 34.7586C23.8073 34.7997 23.6467 34.8491 23.489 34.9067C23.3256 34.9618 23.1674 35.03 23.0105 35.1033C22.8544 35.1764 22.7021 35.2575 22.5542 35.3461C22.2595 35.5205 21.9914 35.7231 21.7653 35.9397C21.5388 36.1559 21.3549 36.3867 21.218 36.6066C21.1026 36.7903 21.0087 36.9867 20.9385 37.192C20.9108 37.2691 20.8974 37.3384 20.8849 37.3822C20.8738 37.4274 20.8704 37.4543 20.8704 37.4543C20.8582 37.5594 20.8552 37.6654 20.8615 37.7711C20.9227 38.7066 21.7308 39.4151 22.6661 39.3538C22.6661 39.3538 22.6931 39.3521 22.7388 39.3435C22.7832 39.3335 22.8531 39.3241 22.9318 39.3008C23.1407 39.2421 23.3421 39.1595 23.532 39.0545C23.7593 38.9303 24.0002 38.7596 24.2287 38.5456C24.4577 38.3321 24.6751 38.076 24.8656 37.7914C24.9624 37.6488 25.0519 37.5014 25.1338 37.3497C25.2157 37.1971 25.2927 37.0431 25.3569 36.8831C25.4233 36.7289 25.4817 36.5713 25.5319 36.4111C25.623 36.1256 25.6898 35.8329 25.7315 35.5361C25.7511 35.4086 25.7573 35.2861 25.7661 35.1889C25.7764 35.0936 25.7723 35.0056 25.7752 34.9518C25.7758 34.8954 25.7738 34.8629 25.7738 34.8629C25.77 34.7979 25.7434 34.7364 25.6987 34.689C25.6541 34.6417 25.5942 34.6116 25.5296 34.604ZM44.0563 27.2957C44.0928 27.2398 44.1055 27.1717 44.0918 27.1064C44.0781 27.0411 44.039 26.9839 43.9832 26.9474C43.9832 26.9474 43.9535 26.9282 43.8994 26.8981C43.846 26.8714 43.765 26.82 43.6667 26.7771C43.5678 26.7317 43.4465 26.6705 43.3112 26.6179C43.1627 26.558 43.0119 26.5039 42.8593 26.4555C42.6864 26.4007 42.5114 26.3529 42.3346 26.3122C42.1445 26.2683 41.9527 26.2318 41.7597 26.2027C41.3574 26.1445 40.9509 26.1199 40.5445 26.1291C40.1504 26.1355 39.7579 26.1798 39.3723 26.2611C39.0057 26.3392 38.6716 26.4511 38.3917 26.5773C38.252 26.6413 38.1251 26.706 38.014 26.7703C37.9032 26.8354 37.8076 26.8971 37.7301 26.9538C37.5747 27.065 37.4905 27.151 37.4905 27.151C37.347 27.2987 37.2332 27.4726 37.1554 27.6632C36.8304 28.4687 37.2199 29.3849 38.0251 29.7098C38.0251 29.7098 38.1367 29.7549 38.3237 29.7945C38.4174 29.8154 38.5297 29.8337 38.6574 29.849C38.7849 29.8635 38.927 29.8718 39.0808 29.8746C39.3879 29.878 39.7388 29.8468 40.106 29.7715C40.4919 29.6917 40.8693 29.575 41.233 29.4231C41.609 29.2687 41.9716 29.0833 42.3171 28.8691C42.4823 28.7652 42.6434 28.6549 42.8 28.5384C42.9457 28.4304 43.0868 28.3166 43.2232 28.1971C43.3438 28.0917 43.4602 27.9817 43.5724 27.8674C43.6755 27.7651 43.762 27.6603 43.8346 27.5791C43.9074 27.5004 43.9611 27.421 43.9994 27.375C44.0368 27.3256 44.0563 27.2962 44.0563 27.2962V27.2957ZM45.8915 50.453C45.8915 50.453 45.8667 50.4766 45.8261 50.5208C45.789 50.5649 45.7224 50.6297 45.6604 50.7121C45.5959 50.7945 45.5112 50.8946 45.4323 51.0094C45.3438 51.1346 45.2601 51.2632 45.1816 51.3949C45.0929 51.5434 45.0105 51.6955 44.9347 51.851C44.8532 52.0175 44.7784 52.1873 44.7107 52.3598C44.5724 52.7185 44.4657 53.0885 44.3917 53.4657C44.3181 53.8296 44.2816 54.2 44.2828 54.5712C44.2848 54.9239 44.3265 55.2532 44.3931 55.5353C44.4275 55.6763 44.4649 55.8056 44.5053 55.9202C44.5466 56.0349 44.5875 56.1347 44.6273 56.2169C44.7046 56.3814 44.7718 56.4754 44.7718 56.4754C44.8765 56.6211 45.0045 56.7487 45.1506 56.853C45.8731 57.3649 46.8741 57.1941 47.3859 56.4714C47.3859 56.4714 47.4525 56.3773 47.5295 56.2125C47.569 56.1301 47.6097 56.0301 47.6506 55.9153C47.6908 55.8007 47.7278 55.6712 47.7617 55.53C47.8275 55.2477 47.8682 54.9184 47.8691 54.5657C47.8708 54.2129 47.8333 53.8366 47.7569 53.4604C47.6819 53.0834 47.574 52.7137 47.4346 52.3555C47.3663 52.1831 47.291 52.0136 47.209 51.8473C47.1327 51.6921 47.0499 51.5401 46.9608 51.3919C46.8819 51.2605 46.7979 51.1322 46.709 51.0073C46.6297 50.8928 46.5448 50.793 46.48 50.7107C46.4176 50.6285 46.3508 50.564 46.3137 50.5198C46.2731 50.4759 46.2481 50.4523 46.2481 50.4523C46.1996 50.4071 46.1358 50.3821 46.0696 50.3822C46.0034 50.3824 45.9397 50.4077 45.8915 50.453ZM41.7253 63.3786C41.7253 63.3786 41.694 63.3925 41.6409 63.4204C41.5912 63.4496 41.5067 63.4883 41.4206 63.5451C41.3322 63.6011 41.2189 63.667 41.1061 63.7488C40.8396 63.9373 40.5886 64.1467 40.3553 64.3751C40.2227 64.5047 40.0954 64.6396 39.9736 64.7795C39.7231 65.0711 39.4986 65.3839 39.3026 65.7145C39.1112 66.0327 38.9527 66.3694 38.8295 66.7196C38.7131 67.0528 38.6422 67.3768 38.6104 67.665C38.596 67.798 38.5883 67.9315 38.5871 68.0652C38.5875 68.187 38.5928 68.2948 38.6027 68.3857C38.6204 68.5667 38.652 68.6777 38.652 68.6777C38.7019 68.8501 38.7797 69.0131 38.8824 69.1603C39.3917 69.8847 40.3919 70.0591 41.1163 69.5497C41.1163 69.5497 41.2107 69.4834 41.3384 69.3539C41.4032 69.2896 41.4751 69.2089 41.5521 69.1146C41.6353 69.01 41.7133 68.9013 41.7858 68.7889C41.9424 68.545 42.091 68.2482 42.2101 67.9162C42.3346 67.5665 42.4233 67.205 42.4748 66.8374C42.5311 66.4581 42.5521 66.0663 42.5413 65.6883C42.5346 65.503 42.5205 65.318 42.499 65.1338C42.4614 64.8096 42.398 64.4889 42.3093 64.1748C42.2731 64.0403 42.2265 63.9177 42.193 63.8187C42.1618 63.7204 42.1205 63.6371 42.1003 63.5831C42.0767 63.528 42.0611 63.4974 42.0611 63.4974C42.0307 63.4387 41.9791 63.3937 41.9167 63.3716C41.8543 63.3496 41.7859 63.3521 41.7253 63.3786ZM60.7048 50.4632C60.665 50.4132 60.6069 50.3809 60.5434 50.3737C60.4798 50.3664 60.416 50.3847 60.3659 50.4245C60.3659 50.4245 60.3369 50.4475 60.2888 50.4916C60.2433 50.5362 60.1678 50.6002 60.0879 50.6842C59.8724 50.9055 59.6727 51.1417 59.4901 51.3909C59.3745 51.5477 59.2649 51.709 59.1618 51.8744C59.0499 52.0531 58.9446 52.2358 58.8461 52.4222C58.6419 52.814 58.4679 53.221 58.3258 53.6394C58.1852 54.0463 58.0806 54.4648 58.0131 54.89C57.9495 55.295 57.9296 55.6792 57.9429 56.0134C57.9506 56.1807 57.9635 56.335 57.9822 56.4729C58.0016 56.611 58.0236 56.7321 58.0475 56.8329C58.0933 57.034 58.1419 57.1526 58.1419 57.1526C58.2348 57.3767 58.3789 57.5759 58.5627 57.7343C59.2053 58.2847 60.1726 58.2098 60.723 57.5672C60.723 57.5672 60.8063 57.4698 60.9128 57.2932C60.9671 57.2051 61.0257 57.0967 61.0874 56.9718C61.1484 56.8466 61.2089 56.7041 61.2686 56.5476C61.3858 56.2344 61.4872 55.8631 61.5537 55.4586C61.6208 55.0542 61.6537 54.6167 61.6483 54.173C61.6444 53.7311 61.6067 53.2902 61.5353 52.854C61.5002 52.6461 61.4573 52.4396 61.407 52.2349C61.3607 52.0455 61.3072 51.8581 61.2465 51.6729C61.1512 51.3791 61.0354 51.0924 60.9001 50.8147C60.8506 50.7099 60.7989 50.6255 60.7696 50.5689C60.7376 50.5118 60.7173 50.481 60.7173 50.481C60.7135 50.4748 60.7093 50.4688 60.7048 50.4632ZM34.4829 56.3768C34.4829 56.3768 34.4492 56.383 34.3911 56.3979C34.3361 56.4148 34.2449 56.4328 34.1478 56.4681C34.0489 56.5021 33.9233 56.5399 33.7946 56.5933C33.4917 56.7147 33.1989 56.86 32.919 57.0279C32.7644 57.1205 32.6081 57.2223 32.4538 57.3327C32.1424 57.5581 31.8514 57.8103 31.584 58.0864C31.324 58.3514 31.0917 58.6422 30.8906 58.9543C30.7002 59.2514 30.5558 59.5501 30.458 59.823C30.4131 59.9491 30.3746 60.0772 30.3424 60.2071C30.3146 60.3257 30.2946 60.4317 30.2831 60.5224C30.2584 60.7025 30.2634 60.8179 30.2634 60.8179C30.2716 60.9904 30.308 61.1714 30.3754 61.3408C30.7027 62.1637 31.6351 62.5655 32.4579 62.2384C32.4579 62.2384 32.5652 62.1958 32.7193 62.0995C32.7972 62.0518 32.886 61.9903 32.9827 61.9164C33.088 61.8339 33.1891 61.7462 33.2858 61.6538C33.4947 61.4529 33.7082 61.1987 33.9011 60.9034C34.1034 60.5922 34.2735 60.2611 34.4089 59.9154C34.5512 59.5584 34.6621 59.1896 34.7403 58.8133C34.7769 58.6315 34.8062 58.4483 34.8279 58.2642C34.8666 57.9401 34.8793 57.6134 34.8661 57.2873C34.8619 57.1481 34.8451 57.0181 34.8355 56.9139C34.8281 56.811 34.8071 56.7204 34.7999 56.6632C34.7897 56.6041 34.7817 56.5707 34.7817 56.5707C34.766 56.5064 34.7264 56.4505 34.6708 56.4144C34.6153 56.3784 34.5481 56.3649 34.4829 56.3768ZM15.5217 60.0292C15.5228 60.0031 15.5188 59.9772 15.5099 59.9527C15.501 59.9282 15.4874 59.9058 15.4698 59.8866C15.4522 59.8674 15.431 59.8519 15.4074 59.8409C15.3838 59.8299 15.3582 59.8237 15.3322 59.8226L15.2571 59.8193C15.211 59.8206 15.1369 59.815 15.0546 59.8216C14.9712 59.8267 14.8664 59.8292 14.7558 59.8428C14.4964 59.8717 14.2398 59.9214 13.9883 59.9912C13.8497 60.0299 13.7066 60.0741 13.566 60.1282C13.2773 60.2341 12.9988 60.3661 12.734 60.5224C12.2017 60.8293 11.7613 61.2396 11.4964 61.6207C11.435 61.7083 11.378 61.7988 11.3256 61.892C11.2841 61.9668 11.2464 62.0437 11.2127 62.1223C11.1566 62.2574 11.1346 62.3458 11.1346 62.3458C11.0848 62.5455 11.0845 62.7544 11.1336 62.9543C11.1828 63.1543 11.28 63.3392 11.4167 63.493C11.5535 63.6469 11.7257 63.7651 11.9185 63.8374C12.1112 63.9097 12.3187 63.9339 12.5229 63.9079C12.5229 63.9079 12.6134 63.8963 12.7541 63.8565C12.8243 63.8364 12.9058 63.8077 12.996 63.7715C13.086 63.7346 13.183 63.6882 13.2855 63.6337C13.6951 63.4152 14.1542 63.0261 14.5214 62.5334C14.7078 62.2888 14.8716 62.0278 15.0105 61.7534C15.0807 61.6203 15.1414 61.4832 15.1961 61.3501C15.2509 61.2171 15.2974 61.0855 15.337 60.9602C15.3764 60.8347 15.4086 60.7152 15.4338 60.6055C15.4603 60.4973 15.475 60.3935 15.4898 60.3112C15.506 60.2304 15.5091 60.1561 15.5157 60.1105L15.5212 60.0353L15.5217 60.0292ZM64.2155 38.5365C64.2155 38.5365 64.2058 38.5694 64.1928 38.6279C64.1829 38.6847 64.1576 38.7742 64.1453 38.8766C64.1308 38.9803 64.1078 39.1093 64.097 39.2481C64.084 39.3884 64.0755 39.5429 64.0734 39.7073C64.0712 39.8802 64.0762 40.0531 64.0885 40.2256C64.101 40.4054 64.1212 40.5908 64.1498 40.7783C64.2093 41.1519 64.3025 41.5328 64.4283 41.8951C64.5519 42.2585 64.7091 42.6024 64.8884 42.9062C65.0671 43.2105 65.2681 43.4743 65.4671 43.6851C65.5592 43.7821 65.656 43.8745 65.7572 43.9619C65.8504 44.0403 65.9359 44.1062 66.0115 44.1576C66.161 44.2611 66.2661 44.3088 66.2661 44.3088C66.4236 44.3796 66.6014 44.429 66.7831 44.4456C67.6651 44.5263 68.4454 43.8767 68.5259 42.9948C68.5259 42.9948 68.5364 42.8798 68.5204 42.6987C68.5111 42.5921 68.4963 42.486 68.4762 42.3808C68.4503 42.2497 68.4179 42.1198 68.3792 41.9919C68.2945 41.7146 68.1646 41.4092 67.9887 41.1036C67.8132 40.7974 67.5921 40.4907 67.3375 40.2036C67.0835 39.915 66.8048 39.6492 66.5046 39.4091C66.3591 39.2941 66.2089 39.1852 66.0546 39.0824C65.9107 38.9864 65.7629 38.8965 65.6116 38.8129C65.4774 38.7386 65.3403 38.6697 65.2007 38.6063C65.0746 38.5469 64.9512 38.5032 64.8538 38.4645C64.7586 38.4245 64.6685 38.4023 64.6142 38.3827C64.5843 38.3732 64.5541 38.3647 64.5236 38.3572C64.4591 38.3424 64.3913 38.3527 64.3341 38.386C64.2769 38.4193 64.2345 38.4731 64.2155 38.5365ZM28.747 50.3245C28.747 50.3245 28.7127 50.3228 28.6528 50.3242C28.5953 50.3281 28.5024 50.3248 28.3999 50.3372C28.2958 50.3476 28.1649 50.356 28.0275 50.3785C27.7048 50.4276 27.3865 50.5025 27.0758 50.6024C26.8992 50.659 26.7249 50.7226 26.5535 50.7933C26.199 50.9419 25.8581 51.1212 25.5348 51.3291C25.2112 51.5356 24.9145 51.77 24.6619 52.0164C24.4089 52.2622 24.2003 52.5203 24.0429 52.7636C23.9705 52.8761 23.9038 52.9921 23.8429 53.1113C23.7889 53.2203 23.7453 53.3193 23.7133 53.4047C23.6482 53.5745 23.6269 53.6879 23.6269 53.6879C23.5943 53.8644 23.591 54.045 23.6169 54.2227C23.7482 55.0984 24.5646 55.7021 25.4404 55.5708C25.4404 55.5708 25.5546 55.5536 25.7266 55.495C25.828 55.4606 25.9275 55.421 26.0248 55.3765C26.1461 55.3201 26.2646 55.2578 26.3797 55.1898C26.6289 55.0417 26.8946 54.8429 27.1498 54.5993C27.4055 54.3561 27.6508 54.0685 27.8693 53.7528C28.0892 53.4376 28.2812 53.1038 28.443 52.7551C28.5201 52.5865 28.5902 52.4148 28.6533 52.2404C28.715 52.0715 28.7666 51.9047 28.8098 51.746C28.8526 51.5873 28.8869 51.4362 28.9128 51.298C28.9406 51.1614 28.9537 51.031 28.9682 50.9273C28.9844 50.8255 28.9846 50.7325 28.9906 50.6752C28.9941 50.6154 28.9938 50.5811 28.9938 50.5811C28.993 50.5149 28.9671 50.4516 28.9212 50.4039C28.8753 50.3562 28.813 50.3278 28.747 50.3245ZM23.9559 68.0896C23.9701 68.039 23.9637 67.9848 23.938 67.939C23.9123 67.8931 23.8695 67.8593 23.8189 67.8451L23.7463 67.8247C23.7013 67.8153 23.6303 67.7929 23.5488 67.7804C23.4665 67.7662 23.3638 67.7445 23.2532 67.7324C23.1315 67.7175 23.0093 67.7073 22.8868 67.7019C22.7486 67.6957 22.6103 67.6954 22.4722 67.7008C22.3284 67.7067 22.179 67.7167 22.0298 67.7372C21.7245 67.7739 21.4232 67.8385 21.1296 67.9301C20.5411 68.1066 20.0184 68.4049 19.6731 68.715C19.5868 68.7926 19.51 68.8679 19.4445 68.9398C19.3794 69.0123 19.3247 69.079 19.2818 69.1381C19.1961 69.2566 19.1545 69.3376 19.1545 69.3376C19.083 69.4773 19.0377 69.629 19.0207 69.785C18.9856 70.119 19.0846 70.4532 19.2959 70.7141C19.5071 70.9751 19.8134 71.1414 20.1474 71.1765C20.1474 71.1765 20.2379 71.1861 20.3841 71.1796C20.4695 71.1748 20.5546 71.1657 20.6391 71.1523C20.7446 71.1349 20.8492 71.1123 20.9525 71.0845C21.4013 70.9659 21.9374 70.6925 22.4078 70.2971C22.6454 70.1019 22.8646 69.8854 23.0628 69.6503C23.1593 69.5381 23.2505 69.4213 23.3359 69.3004C23.4162 69.1879 23.4918 69.0721 23.5624 68.9532C23.6295 68.8401 23.6883 68.7312 23.7379 68.6301C23.7885 68.5309 23.8266 68.4332 23.8599 68.3566C23.8942 68.2816 23.9144 68.21 23.9312 68.1671L23.9539 68.0953C23.9547 68.0935 23.9554 68.0916 23.9559 68.0896Z" fill="#FF5C5C"/>
<path d="M60.9642 15.5218C61.4949 7.00769 54.9369 1.92916 52.5696 0.382488C52.1769 0.125892 51.6541 0.378939 51.6125 0.84615C51.5029 2.07343 51.4276 4.43078 51.9237 7.72517C52.0621 8.64447 51.6 8.89443 50.9015 8.28079C47.9937 5.7261 40.9035 0.395912 35.3041 3.46472C34.9712 3.6471 34.8683 4.07497 35.0933 4.38078C35.9768 5.58183 38.7166 8.65635 46.0871 13.1718C47.4434 14.0027 47.2608 14.5196 45.6836 14.3144C41.4613 13.765 34.0846 13.3822 29.1718 16.3454C28.7264 16.6142 28.7858 17.2778 29.2734 17.4593C33.2427 18.9372 46.6876 23.7645 51.9925 23.3971C54.6171 23.2153 51.4846 31.9999 50.2685 35.1761C50.0862 35.6526 50.5234 36.1343 51.0143 35.9953C54.1196 35.1155 62.2418 32.2963 62.2912 26.8649C62.2961 26.3132 62.9457 26.0268 63.342 26.4107L77.0298 39.6696L77.0299 39.6697C77.0321 39.6601 79.6257 28.488 68.6431 23.0256C65.9832 21.7026 74.8298 21.7304 77.7412 21.7734C78.2035 21.7802 78.5118 21.2951 78.3069 20.8808C75.8653 15.9453 64.5439 16.0643 61.6046 16.1813C61.2377 16.1961 60.9414 15.8884 60.9642 15.5218Z" fill="#16992B"/>
</g>
<defs>
<clipPath id="clip0_453_461">
<rect width="79" height="79" fill="white"/>
</clipPath>
</defs>
</svg>
