<svg width="147" height="147" viewBox="0 0 147 147" fill="none" xmlns="http://www.w3.org/2000/svg">
<g clip-path="url(#clip0_453_465)">
<path d="M112.092 80.6075C108.538 59.2285 88.9626 14.8566 59.9053 37.8678C30.848 60.8791 5.39882 60.8959 9.51187 85.6335C13.6249 110.371 123.567 149.621 112.092 80.6075Z" fill="#FF1A1A"/>
<path d="M77.0073 46.026C77.0073 46.026 76.9675 46.0524 76.8943 46.0937C76.8219 46.1306 76.7128 46.2006 76.5795 46.2602C76.4456 46.3228 76.2814 46.4073 76.0975 46.4801C75.8956 46.5632 75.6907 46.6388 75.4832 46.7065C75.2478 46.7836 75.0094 46.8512 74.7686 46.9092C74.509 46.972 74.2471 47.025 73.9835 47.068C73.4326 47.1544 72.8756 47.1962 72.318 47.193C71.7763 47.1931 71.2358 47.1429 70.7034 47.0431C70.1972 46.9471 69.7343 46.8054 69.3449 46.6434C69.1658 46.5686 68.9903 46.4855 68.8189 46.3945C68.6642 46.3102 68.5306 46.23 68.422 46.1562C68.2042 46.0114 68.0855 45.8987 68.0855 45.8987C67.2541 45.1111 67.2186 43.7984 68.0064 42.9669C68.2082 42.7557 68.4515 42.5886 68.721 42.4761C68.721 42.4761 68.8725 42.4136 69.1276 42.3565C69.2554 42.3267 69.4089 42.2997 69.5835 42.2766C69.7762 42.2533 69.9698 42.2387 70.1638 42.233C70.5852 42.2215 71.0681 42.2554 71.5753 42.3476C72.0825 42.4387 72.614 42.5876 73.136 42.787C73.6576 42.9843 74.1625 43.2233 74.6458 43.5016C74.8764 43.6364 75.1018 43.7798 75.3216 43.9316C75.5256 44.0721 75.7238 44.2208 75.9159 44.3772C76.098 44.5256 76.263 44.6713 76.408 44.8088C76.5536 44.9429 76.6763 45.0807 76.779 45.1872C76.8822 45.2905 76.9588 45.3953 77.013 45.4555C77.0664 45.5204 77.0942 45.5593 77.0942 45.5593C77.1449 45.6305 77.1653 45.719 77.1507 45.8052C77.1362 45.8915 77.088 45.9684 77.0168 46.0191L77.0073 46.026ZM92.0445 84.8408C92.0445 84.8408 92.0007 84.8466 91.9254 84.8623C91.8538 84.8803 91.7354 84.898 91.6098 84.937C91.4815 84.9743 91.3187 85.0148 91.1524 85.0747C90.7622 85.2095 90.3839 85.3767 90.0216 85.5744C89.8222 85.6827 89.6209 85.8027 89.4226 85.9335C89.0237 86.1999 88.6503 86.5027 88.3072 86.838C87.9644 87.1706 87.6648 87.5317 87.4247 87.8976C87.1838 88.2628 87.0031 88.6333 86.8825 88.9734C86.8233 89.1442 86.7758 89.3053 86.7414 89.4534C86.7081 89.6021 86.6847 89.7354 86.6721 89.8496C86.6444 90.0766 86.6537 90.223 86.6537 90.223C86.6672 90.4178 86.7058 90.61 86.7684 90.7949C87.1619 91.9383 88.4078 92.546 89.551 92.1524C89.551 92.1524 89.6897 92.1046 89.8885 91.9916C89.9889 91.9359 90.103 91.8628 90.2274 91.7747C90.3508 91.6861 90.481 91.5799 90.6159 91.4594C90.8833 91.2169 91.1553 90.9074 91.3995 90.5443C91.6445 90.1817 91.8621 89.766 92.0369 89.3216C92.2139 88.8758 92.3493 88.4146 92.4414 87.9438C92.4846 87.715 92.5181 87.4845 92.5418 87.2528C92.5644 87.0358 92.5774 86.8178 92.5807 86.5997C92.584 86.4052 92.5794 86.2106 92.5669 86.0165C92.5582 85.8397 92.5328 85.6738 92.5177 85.5413C92.5053 85.4105 92.4757 85.2943 92.4649 85.2215C92.4502 85.146 92.4388 85.1033 92.4388 85.1033C92.4162 85.0191 92.3637 84.946 92.2911 84.8977C92.2185 84.8494 92.1309 84.8292 92.0445 84.8408ZM77.3379 76.491C77.3379 76.491 77.3134 76.4543 77.2662 76.3935C77.2184 76.3374 77.1506 76.2387 77.0603 76.1433C76.9705 76.0447 76.8625 75.9166 76.7353 75.7935C76.4426 75.5029 76.1262 75.2371 75.7893 74.9991C75.5996 74.8645 75.4043 74.738 75.2038 74.6201C74.7893 74.3796 74.3534 74.1781 73.9017 74.0182C73.4527 73.8573 72.9969 73.7477 72.5631 73.6937C72.1297 73.6387 71.7181 73.6399 71.3599 73.6817C71.1944 73.7014 71.0301 73.7299 70.8676 73.7669C70.7196 73.8026 70.5896 73.8405 70.4818 73.8794C70.2662 73.9546 70.1391 74.0277 70.1391 74.0277C69.9777 74.1217 69.8161 74.2428 69.6781 74.3815C68.8247 75.2389 68.8277 76.6257 69.6851 77.479C69.6851 77.479 69.789 77.5824 69.9777 77.711C70.0884 77.7865 70.2031 77.8561 70.3212 77.9194C70.4686 77.9972 70.62 78.0671 70.7748 78.129C71.1099 78.2619 71.5073 78.3695 71.9403 78.4285C72.3732 78.4884 72.8418 78.5004 73.3172 78.4611C73.7948 78.4234 74.268 78.3415 74.7305 78.2164C74.9547 78.1542 75.1761 78.0825 75.3942 78.0016C75.7812 77.8588 76.1556 77.6839 76.5136 77.4788C76.6682 77.3929 76.8056 77.2971 76.918 77.2251C77.0298 77.1563 77.121 77.0785 77.1815 77.0367C77.2427 76.9903 77.276 76.961 77.276 76.961C77.3415 76.9035 77.384 76.8241 77.3954 76.7377C77.4067 76.6512 77.3863 76.5636 77.3379 76.491ZM42.2161 63.1985C42.2161 63.1985 42.1915 63.1618 42.1443 63.101C42.0965 63.0449 42.0287 62.9461 41.9385 62.8508C41.8486 62.7522 41.7407 62.624 41.6135 62.501C41.3208 62.2103 41.0044 61.9446 40.6675 61.7065C40.4778 61.5719 40.2824 61.4455 40.0819 61.3276C39.6674 61.0871 39.2315 60.8856 38.7798 60.7256C38.3308 60.5648 37.875 60.4551 37.4413 60.4012C37.0078 60.3461 36.5962 60.3474 36.238 60.3891C36.0725 60.4089 35.9082 60.4373 35.7457 60.4744C35.5977 60.51 35.4678 60.548 35.36 60.5868C35.1443 60.662 35.0173 60.7351 35.0173 60.7351C34.8559 60.8291 34.6943 60.9502 34.5562 61.089C33.7028 61.9464 33.7059 63.3331 34.5632 64.1865C34.5632 64.1865 34.6672 64.2898 34.8559 64.4184C34.9666 64.494 35.0812 64.5636 35.1994 64.6269C35.3468 64.7046 35.4982 64.7746 35.653 64.8364C35.988 64.9694 36.3855 65.077 36.8184 65.1359C37.2514 65.1959 37.72 65.2078 38.1954 65.1685C38.673 65.1308 39.1461 65.0489 39.6087 64.9238C39.8328 64.8616 40.0543 64.79 40.2724 64.7091C40.6594 64.5662 41.0338 64.3913 41.3917 64.1863C41.5464 64.1003 41.6838 64.0046 41.7961 63.9326C41.9079 63.8637 41.9991 63.786 42.0596 63.7441C42.1209 63.6977 42.1541 63.6685 42.1541 63.6685C42.2198 63.611 42.2622 63.5316 42.2736 63.4451C42.285 63.3587 42.2646 63.271 42.2161 63.1985ZM62.0374 57.2576C62.0374 57.2576 62.0055 57.2285 61.9464 57.1822C61.888 57.1402 61.8003 57.0626 61.6925 56.9939C61.5844 56.9219 61.4521 56.8261 61.3033 56.7402C60.9605 56.5358 60.6008 56.3609 60.2283 56.2174C60.0201 56.1359 59.8078 56.0651 59.5924 56.0053C59.3727 55.9384 59.1486 55.8898 58.9218 55.8477C58.6961 55.8061 58.4683 55.776 58.2395 55.7575C57.7852 55.7181 57.3378 55.7299 56.9252 55.7895C56.5124 55.8483 56.1344 55.9559 55.8158 56.0881C55.5485 56.1977 55.2947 56.3378 55.0596 56.5058C54.9699 56.568 54.9017 56.6326 54.8543 56.6704C54.8072 56.7108 54.7827 56.7372 54.7827 56.7372C54.6881 56.8417 54.6028 56.9542 54.5277 57.0735C53.8696 58.1343 54.1963 59.5277 55.257 60.1857C55.257 60.1857 55.2876 60.2048 55.3437 60.2308C55.3996 60.2543 55.4826 60.2983 55.5859 60.334C55.8577 60.4322 56.1398 60.4987 56.4269 60.532C56.7693 60.5735 57.1623 60.5751 57.5756 60.5202C57.9891 60.4662 58.4229 60.3571 58.8497 60.1965C59.065 60.1169 59.2762 60.0265 59.4823 59.9256C59.6893 59.8237 59.8919 59.7165 60.0854 59.5929C60.2768 59.4773 60.462 59.3519 60.6404 59.2171C60.9603 58.9784 61.2593 58.713 61.5344 58.4238C61.6543 58.3009 61.7559 58.173 61.8407 58.0745C61.9257 57.9792 61.9893 57.8807 62.0342 57.8246C62.0785 57.7641 62.1015 57.7273 62.1015 57.7273C62.1477 57.6539 62.1666 57.5667 62.1548 57.4808C62.1431 57.3949 62.1016 57.3159 62.0374 57.2576ZM87.7674 63.6882C87.8501 63.6559 87.9167 63.592 87.9524 63.5106C87.9881 63.4293 87.9901 63.337 87.9578 63.2543C87.9578 63.2543 87.9407 63.2104 87.9053 63.1359C87.8681 63.0656 87.8202 62.9472 87.7469 62.8246C87.6749 62.6989 87.591 62.5386 87.4851 62.3768C87.3706 62.197 87.2492 62.0216 87.1212 61.851C86.9765 61.6577 86.8239 61.4703 86.6639 61.2894C86.4919 61.0946 86.3125 60.9065 86.126 60.7255C85.7351 60.351 85.3138 60.0095 84.8665 59.7047C84.4346 59.4065 83.9751 59.1504 83.4943 58.94C83.0367 58.7406 82.5882 58.6031 82.1873 58.5231C81.9862 58.4842 81.7988 58.456 81.6286 58.4397C81.4581 58.4244 81.3067 58.4172 81.1789 58.4186C80.9245 58.4188 80.7666 58.4466 80.7666 58.4466C80.4968 58.4955 80.2389 58.5958 80.0069 58.742C79.0311 59.3629 78.7435 60.657 79.3642 61.6327C79.3642 61.6327 79.4501 61.7679 79.622 61.9557C79.7073 62.0508 79.8148 62.1577 79.9414 62.2731C80.0682 62.3876 80.2157 62.5066 80.3802 62.6288C80.7102 62.8702 81.1144 63.1082 81.5706 63.311C82.0505 63.5234 82.5497 63.6892 83.0613 63.8064C83.5883 63.9302 84.1246 64.0103 84.6648 64.0457C84.9242 64.0611 85.1842 64.0663 85.444 64.0615C85.6854 64.0573 85.9266 64.0433 86.1668 64.0195C86.3791 63.9986 86.5904 63.9697 86.8004 63.9327C86.9913 63.9017 87.1662 63.8553 87.3076 63.8235C87.4475 63.7946 87.5672 63.7501 87.6443 63.73C87.7231 63.7055 87.767 63.6887 87.767 63.6887L87.7674 63.6882ZM71.8217 90.196C71.8217 90.196 71.7765 90.2023 71.6984 90.2187C71.6241 90.2378 71.5017 90.2564 71.3707 90.2976C71.237 90.3369 71.0677 90.3798 70.8934 90.4431C70.7005 90.5101 70.5104 90.5846 70.3233 90.6665C70.1122 90.7587 69.9052 90.8597 69.7026 90.9694C69.4854 91.0866 69.2729 91.2127 69.0658 91.3471C68.6383 91.6286 68.2362 91.9468 67.8639 92.2981C67.5024 92.6353 67.176 93.0083 66.8898 93.4114C66.6188 93.7951 66.4089 94.184 66.2627 94.5412C66.1908 94.7206 66.1311 94.8896 66.0861 95.0451C66.0421 95.2013 66.0091 95.3411 65.9885 95.4611C65.9449 95.6991 65.9448 95.8529 65.9448 95.8529C65.9454 96.0919 65.9853 96.3292 66.0628 96.5553C66.4491 97.6694 67.6657 98.2596 68.7798 97.873C68.7798 97.873 68.9249 97.8226 69.1359 97.7037C69.2425 97.6451 69.3641 97.5683 69.4973 97.4756C69.6295 97.3825 69.7699 97.2709 69.916 97.1443C70.2059 96.8893 70.505 96.5641 70.7792 96.1827C71.0542 95.8019 71.305 95.3652 71.5136 94.8986C71.7242 94.432 71.8937 93.948 72.0201 93.452C72.0795 93.2123 72.1293 92.9703 72.1693 92.7267C72.2068 92.4994 72.2347 92.2707 72.253 92.0412C72.2693 91.8377 72.2777 91.6336 72.2781 91.4294C72.2808 91.244 72.2662 91.0701 72.2597 90.9308C72.2559 90.7935 72.2334 90.6719 72.2273 90.5953C72.2174 90.5162 72.2086 90.4713 72.2086 90.4713C72.1911 90.3849 72.1414 90.3083 72.0695 90.2572C71.9977 90.2061 71.9091 90.1842 71.8217 90.196ZM57.2985 100.972C57.2985 100.972 57.2538 100.963 57.1747 100.952C57.0983 100.945 56.9767 100.922 56.8395 100.916C56.7003 100.909 56.5266 100.892 56.3411 100.893C55.9064 100.891 55.4722 100.924 55.0427 100.99C54.7987 101.028 54.5562 101.076 54.316 101.133C53.8189 101.255 53.3333 101.42 52.8649 101.626C52.4113 101.823 51.9788 102.065 51.5741 102.349C51.19 102.619 50.8622 102.916 50.6046 103.203C50.4861 103.336 50.3742 103.475 50.2694 103.619C50.1756 103.751 50.0978 103.872 50.0381 103.978C49.9171 104.188 49.8655 104.332 49.8655 104.332C49.7859 104.558 49.744 104.795 49.7413 105.034C49.732 106.213 50.6805 107.176 51.8597 107.186C51.8597 107.186 52.0134 107.187 52.2519 107.145C52.3719 107.126 52.5123 107.094 52.6687 107.052C52.8399 107.003 53.0086 106.945 53.1742 106.88C53.5328 106.737 53.9235 106.53 54.3097 106.263C54.7154 105.981 55.0914 105.658 55.4318 105.299C55.7866 104.932 56.1127 104.524 56.3937 104.106C56.5301 103.9 56.6581 103.689 56.7774 103.472C56.9878 103.092 57.1674 102.696 57.3146 102.287C57.3795 102.113 57.4239 101.944 57.4644 101.811C57.5067 101.68 57.5264 101.558 57.5464 101.484C57.5635 101.406 57.5702 101.361 57.5702 101.361C57.5828 101.274 57.5617 101.185 57.5113 101.113C57.4608 101.04 57.3847 100.99 57.2985 100.972ZM87.8612 101.679C87.8569 101.594 87.8189 101.514 87.7557 101.457C87.6925 101.4 87.6092 101.37 87.5241 101.374C87.5241 101.374 87.4749 101.377 87.3886 101.387C87.3047 101.4 87.1734 101.411 87.0218 101.44C86.617 101.513 86.2178 101.615 85.827 101.743C85.5802 101.823 85.3366 101.913 85.0968 102.013C84.8372 102.12 84.5817 102.236 84.3306 102.362C83.8059 102.628 83.3023 102.934 82.8243 103.277C82.3569 103.609 81.9194 103.982 81.517 104.39C81.1345 104.779 80.8154 105.18 80.571 105.553C80.4498 105.74 80.3443 105.917 80.2577 106.081C80.1718 106.245 80.1018 106.394 80.0497 106.521C79.9436 106.775 79.9044 106.941 79.9044 106.941C79.8315 107.255 79.8333 107.583 79.9097 107.897C80.1797 108.991 81.2855 109.659 82.3794 109.389C82.3794 109.389 82.5451 109.348 82.7972 109.239C82.9243 109.185 83.0717 109.114 83.2353 109.026C83.3983 108.938 83.5742 108.83 83.7601 108.707C84.1297 108.458 84.527 108.135 84.9123 107.748C85.2982 107.362 85.6726 106.913 86.0104 106.428C86.3484 105.947 86.649 105.44 86.9095 104.912C87.0323 104.66 87.1459 104.403 87.2499 104.142C87.3464 103.901 87.4336 103.656 87.5113 103.409C87.6355 103.017 87.7322 102.616 87.8006 102.211C87.8281 102.059 87.8375 101.928 87.8496 101.844C87.8592 101.757 87.861 101.708 87.861 101.708C87.8618 101.698 87.8618 101.688 87.8612 101.679ZM54.8752 87.7781C54.8752 87.7781 54.8338 87.7586 54.7594 87.7299C54.6867 87.7055 54.5739 87.6544 54.4414 87.6175C54.308 87.5777 54.1426 87.5214 53.9619 87.4796C53.5397 87.3765 53.1099 87.3072 52.6767 87.2723C52.4375 87.2529 52.1893 87.2422 51.9367 87.2422C51.4249 87.2453 50.9143 87.2931 50.4108 87.3851C49.9239 87.4709 49.447 87.606 48.9875 87.7884C48.5512 87.9627 48.1634 88.1744 47.846 88.3944C47.6999 88.4962 47.5588 88.6052 47.4234 88.7209C47.3014 88.8279 47.1976 88.9272 47.115 89.0167C46.9488 89.1926 46.8648 89.3215 46.8648 89.3215C46.74 89.5147 46.6393 89.739 46.5812 89.9747C46.2984 91.1196 46.9974 92.2769 48.1421 92.5598C48.1421 92.5598 48.2913 92.5967 48.5328 92.6118C48.6542 92.6205 48.7979 92.6225 48.96 92.6174C49.1379 92.6095 49.3154 92.5929 49.4916 92.5676C49.8735 92.5117 50.3017 92.4018 50.7393 92.2312C51.1996 92.0507 51.6402 91.8239 52.0545 91.5542C52.4852 91.2776 52.8909 90.964 53.2671 90.6169C53.4476 90.4484 53.6211 90.2725 53.7873 90.0899C54.0802 89.7687 54.347 89.4247 54.5851 89.0612C54.6884 88.9072 54.7709 88.7532 54.8412 88.633C54.9129 88.5158 54.9603 88.4014 54.9968 88.3338C55.0315 88.2619 55.0486 88.2196 55.0486 88.2196C55.0815 88.1377 55.0818 88.0465 55.0496 87.9644C55.0173 87.8823 54.955 87.8157 54.8752 87.7781ZM31.5058 77.0506C31.5272 77.0233 31.543 76.9921 31.5523 76.9587C31.5616 76.9253 31.5642 76.8904 31.56 76.856C31.5558 76.8216 31.5448 76.7883 31.5278 76.7581C31.5107 76.7279 31.4879 76.7014 31.4605 76.6801L31.3817 76.6184C31.3307 76.584 31.2548 76.5206 31.1606 76.4641C31.0662 76.405 30.9508 76.3265 30.8204 76.2556C30.517 76.0861 30.2005 75.9411 29.8741 75.822C29.694 75.7566 29.5047 75.6936 29.3105 75.6434C28.9157 75.5345 28.5118 75.4618 28.1039 75.4261C27.2895 75.3464 26.4948 75.4498 25.9126 75.6575C25.7783 75.7048 25.6465 75.7587 25.5175 75.8191C25.4146 75.8679 25.3142 75.922 25.2168 75.9811C25.0515 76.084 24.9591 76.1627 24.9591 76.1627C24.7505 76.3406 24.5884 76.5666 24.4868 76.8212C24.3852 77.0759 24.3473 77.3514 24.3763 77.6241C24.4053 77.8967 24.5003 78.1581 24.6532 78.3857C24.806 78.6133 25.0121 78.8002 25.2534 78.9301C25.2534 78.9301 25.3604 78.9876 25.5436 79.0535C25.6352 79.0861 25.7457 79.1181 25.8716 79.1487C25.9976 79.1785 26.1387 79.2033 26.2918 79.2237C26.9048 79.3042 27.7035 79.2381 28.4828 78.9888C28.8742 78.8683 29.2537 78.7122 29.6167 78.5227C29.7959 78.4328 29.9677 78.3313 30.1302 78.2295C30.2925 78.1278 30.4447 78.0212 30.5847 77.9162C30.7245 77.8108 30.852 77.7062 30.9642 77.6068C31.0767 77.5102 31.173 77.4091 31.2528 77.3314C31.3329 77.2564 31.3938 77.1784 31.4363 77.1341L31.5005 77.057L31.5058 77.0506ZM100.901 91.4773C100.901 91.4773 100.865 91.5054 100.805 91.5587C100.751 91.6126 100.654 91.6899 100.561 91.7914C100.465 91.8924 100.341 92.0144 100.221 92.1565C100.099 92.2984 99.9698 92.4591 99.8401 92.6356C99.7038 92.8212 99.5754 93.0124 99.4551 93.2088C99.3295 93.4132 99.2077 93.6298 99.0935 93.855C98.8687 94.3058 98.6746 94.7906 98.5303 95.2805C98.3828 95.7698 98.2868 96.2642 98.2457 96.7321C98.2036 97.2001 98.2171 97.6417 98.2695 98.0241C98.2941 98.2005 98.3274 98.3756 98.3694 98.5487C98.4096 98.7057 98.4512 98.8433 98.4933 98.9575C98.5751 99.1855 98.652 99.3185 98.652 99.3185C98.7678 99.5172 98.9222 99.7084 99.1062 99.8672C99.9991 100.638 101.347 100.538 102.118 99.6451C102.118 99.6451 102.218 99.5287 102.341 99.3201C102.414 99.1973 102.48 99.071 102.539 98.9415C102.613 98.7794 102.678 98.6136 102.735 98.445C102.858 98.079 102.954 97.6476 103 97.1803C103.047 96.7128 103.045 96.2093 102.992 95.701C102.94 95.1917 102.844 94.6879 102.705 94.1953C102.636 93.9581 102.558 93.7238 102.47 93.4929C102.389 93.2775 102.298 93.0657 102.199 92.8579C102.111 92.6735 102.016 92.4927 101.914 92.3158C101.823 92.1538 101.724 92.011 101.648 91.8936C101.576 91.7766 101.495 91.6827 101.452 91.6194C101.427 91.586 101.401 91.5534 101.373 91.5217C101.315 91.4557 101.234 91.4144 101.146 91.4061C101.058 91.3979 100.97 91.4233 100.901 91.4773ZM53.3484 76.7795C53.3484 76.7795 53.3126 76.7511 53.2467 76.7063C53.1814 76.6659 53.0832 76.5904 52.9627 76.5245C52.8417 76.4552 52.6935 76.3629 52.5272 76.2808C52.1395 76.0841 51.7368 75.9188 51.3228 75.7863C51.0877 75.7108 50.8496 75.6449 50.6092 75.5886C50.11 75.4751 49.6019 75.4054 49.0907 75.3802C48.5803 75.3533 48.0773 75.3774 47.6129 75.4488C47.1484 75.5191 46.7225 75.6372 46.3636 75.7789C46.198 75.8447 46.0359 75.9187 45.8777 76.0006C45.7347 76.077 45.6108 76.1503 45.51 76.2181C45.308 76.3516 45.1972 76.458 45.1972 76.458C45.0252 76.6239 44.8816 76.817 44.7721 77.0295C44.2361 78.08 44.6531 79.3661 45.7035 79.9021C45.7035 79.9021 45.8405 79.972 46.0723 80.0417C46.2087 80.0829 46.3472 80.1172 46.4871 80.1443C46.6622 80.1771 46.8387 80.2013 47.0162 80.2169C47.4008 80.2494 47.8426 80.2399 48.3077 80.1736C48.773 80.1081 49.2615 79.9865 49.7427 79.8138C50.225 79.6426 50.6915 79.4296 51.1368 79.1772C51.3509 79.0542 51.5599 78.9225 51.7632 78.7825C51.9609 78.6472 52.1459 78.5065 52.3156 78.3681C52.485 78.2293 52.6391 78.0922 52.7742 77.9625C52.9101 77.8361 53.0253 77.705 53.1213 77.6039C53.2177 77.5061 53.2899 77.4055 53.3407 77.3481C53.391 77.286 53.4172 77.2486 53.4172 77.2486C53.4675 77.1764 53.4885 77.0876 53.4757 77.0005C53.4629 76.9133 53.4174 76.8343 53.3484 76.7795ZM34.4004 92.3143C34.455 92.2705 34.49 92.2068 34.4977 92.1372C34.5054 92.0677 34.4851 91.9979 34.4413 91.9432L34.3786 91.865C34.337 91.8199 34.2775 91.7407 34.1989 91.6641C34.1206 91.5849 34.0263 91.4819 33.9158 91.3832C33.7955 91.2727 33.671 91.167 33.5425 91.0663C33.3976 90.9526 33.2481 90.8451 33.0942 90.744C32.9338 90.639 32.7643 90.5342 32.5867 90.4409C32.2276 90.2442 31.8512 90.0808 31.4622 89.9527C30.688 89.6882 29.8907 89.6064 29.2765 89.675C29.1229 89.6923 28.9814 89.7143 28.8548 89.7416C28.7281 89.7697 28.6172 89.7995 28.5249 89.8303C28.3404 89.8924 28.2325 89.9478 28.2325 89.9478C28.0468 90.0439 27.8803 90.1731 27.7411 90.329C27.4444 90.6635 27.2928 91.1022 27.3197 91.5485C27.3465 91.9949 27.5495 92.4123 27.884 92.7089C27.884 92.7089 27.9747 92.7894 28.138 92.8955C28.2343 92.9566 28.3335 93.0126 28.4355 93.0635C28.5633 93.1263 28.6941 93.1829 28.8274 93.2328C29.4056 93.4518 30.198 93.5708 31.0138 93.5068C31.4223 93.4794 31.8275 93.4146 32.2242 93.3134C32.4157 93.2665 32.6049 93.2106 32.7911 93.1458C32.9652 93.0861 33.1368 93.0191 33.3053 92.9451C33.4656 92.8746 33.6137 92.8021 33.7456 92.731C33.8773 92.6627 33.9942 92.5864 34.0897 92.5291C34.1849 92.4744 34.2622 92.4125 34.3137 92.3791L34.3938 92.3189C34.3961 92.3176 34.3983 92.316 34.4004 92.3143Z" fill="#FF5C5C"/>
<path d="M115.202 64.0275C122.371 55.215 119.199 44.6348 117.832 41.1259C117.606 40.5438 116.844 40.4131 116.437 40.887C115.367 42.1317 113.46 44.6271 111.446 48.5801C110.884 49.6832 110.19 49.5961 109.909 48.3904C108.737 43.371 105.184 32.1059 96.7416 31.094C96.2398 31.0338 95.797 31.4176 95.8039 31.9231C95.8308 33.9085 96.418 39.3609 100.906 49.9605C101.731 51.911 101.133 52.3296 99.5836 50.8858C95.435 47.0207 87.7403 40.8933 80.1233 40.2988C79.4326 40.245 78.983 41.0099 79.3707 41.5841C82.5262 46.259 93.3528 61.9007 99.3842 65.6109C102.368 67.4466 92.1716 74.5371 88.3946 77.0362C87.828 77.4111 87.9286 78.2716 88.568 78.5011C92.6134 79.9529 103.596 83.1889 107.855 77.3433C108.288 76.7494 109.213 76.9422 109.345 77.6649L113.905 102.629L113.905 102.629C113.915 102.62 125.377 92.5259 117.71 78.1032C115.853 74.6101 125.415 81.4913 128.535 83.7926C129.031 84.1579 129.741 83.8712 129.839 83.2637C131.017 76.0262 118.66 67.3874 115.385 65.2378C114.976 64.9697 114.894 64.407 115.202 64.0275Z" fill="#16992B"/>
</g>
<defs>
<clipPath id="clip0_453_465">
<rect width="105.201" height="105.201" fill="white" transform="translate(61.1797) rotate(35.56)"/>
</clipPath>
</defs>
</svg>
